<svg width="500" height="266" viewBox="0 0 500 266" fill="none" xmlns="http://www.w3.org/2000/svg">
<path d="M386.462 254.3C382.882 259.025 378.587 262.462 379.589 264.037C380.591 265.612 381.451 265.325 386.749 265.325C395.769 265.325 404.647 264.753 403.215 263.75C401.783 262.748 395.34 262.032 389.755 260.171C388.324 259.598 392.762 257.02 391.474 256.591C389.736 255.984 388.058 255.217 386.462 254.3Z" fill="#3F464E"/>
<path d="M479.389 263.75C479.389 263.75 480.678 265.325 485.116 265.325C492.992 265.325 501.153 264.323 499.865 263.464C498.576 262.605 484.401 259.598 484.401 259.598L481.394 255.732L476.096 258.595L479.389 263.75Z" fill="#3F464E"/>
<path d="M454.762 148.771C451.283 148.806 447.816 148.372 444.453 147.482C443.048 147.103 441.851 146.18 441.126 144.918C440.401 143.656 440.207 142.158 440.587 140.753C440.966 139.347 441.889 138.151 443.151 137.426C444.413 136.701 445.911 136.507 447.316 136.887C447.603 136.887 459.917 140.18 467.076 133.88C471.944 129.87 473.806 121.995 472.517 110.827L472.088 107.247L483.256 100.947C484.517 100.259 485.994 100.084 487.381 100.458C488.767 100.831 489.957 101.724 490.702 102.951C491.397 104.234 491.576 105.733 491.204 107.143C490.831 108.553 489.935 109.768 488.697 110.54L483.686 113.261C484.545 126.434 481.252 136.171 474.235 142.328C467.219 148.485 460.633 148.771 454.762 148.771Z" fill="#DEDEDE"/>
<path d="M473.661 118.272C473.518 126.291 471.37 132.018 467.361 135.455C459.486 142.184 445.883 138.748 445.74 138.748C444.967 138.505 444.154 138.421 443.348 138.5C442.542 138.579 441.761 138.82 441.05 139.208C440.34 139.597 439.715 140.125 439.214 140.761C438.712 141.397 438.344 142.127 438.132 142.909C437.92 143.69 437.868 144.506 437.979 145.308C438.089 146.11 438.361 146.882 438.777 147.576C439.194 148.271 439.746 148.874 440.401 149.35C441.056 149.826 441.801 150.165 442.59 150.346C446.094 151.924 449.919 152.659 453.758 152.494C477.098 151.778 491.13 131.589 491.416 119.847L473.661 118.272Z" fill="#08E774"/>
<path d="M441.588 90.3509C439.481 89.465 437.426 88.4611 435.431 87.344L390.9 112.974C390.9 112.974 403.214 132.448 403.93 133.307C404.646 134.166 434.859 111.972 456.766 96.2216C451.755 94.217 446.6 92.6419 441.588 90.3509Z" fill="#08E774"/>
<path d="M441.874 89.7782C447.029 92.0691 452.327 93.6442 457.481 95.6488L478.816 80.1847L458.197 74.4572L436.146 87.0576L441.874 89.7782Z" fill="#08E774"/>
<path d="M406.363 64.1475L418.534 97.0805L442.16 105.672L412.234 50.8312L406.363 64.1475Z" fill="#02B659"/>
<path d="M443.449 113.834H425.98L441.588 141.039L465.357 151.205L443.449 113.834Z" fill="#02B659"/>
<path d="M465.501 151.062L451.468 127.293L391.616 162.374L379.875 142.328L387.321 23.0533L414.097 7.3028L462.494 89.7783L478.817 80.1848L492.277 103.381L476.096 112.831L489.986 136.744L465.501 151.062ZM411.233 58.5637L409.658 59.4228L405.505 123.141L437.866 104.24L411.233 58.5637Z" fill="url(#paint0_linear_2241_8816)"/>
<path d="M359.973 136.887L379.876 142.328L391.617 162.374L370.568 157.076L359.973 136.887Z" fill="#02B659"/>
<path d="M359.973 136.887L379.876 142.328L387.178 23.0532L368.993 18.6144L359.973 136.887Z" fill="#05CD66"/>
<path d="M368.992 18.6143L387.177 23.0531L414.096 7.30255L395.625 1.86145L368.992 18.6143Z" fill="#08E774"/>
<path d="M409.086 184.425C409.086 184.425 411.95 215.926 411.95 226.951C411.95 226.951 389.04 244.849 383.312 254.157C385.747 256.018 390.615 258.452 393.622 258.309C403.572 248.989 414.356 240.601 425.839 233.251C425.839 233.251 432.998 212.203 435.289 194.448L409.086 184.425Z" fill="url(#paint1_linear_2241_8816)"/>
<path d="M425.408 185.857C430.568 186.013 435.686 184.881 440.3 182.563C438.724 176.263 442.018 157.649 446.027 147.769C446.027 147.769 449.177 140.896 446.886 138.748C438.724 130.873 431.851 131.589 429.561 131.446C422.115 137.746 408.226 156.503 408.798 181.131C412.664 185.141 420.397 185.857 425.408 185.857Z" fill="#08E774"/>
<path d="M475.953 259.455C478.979 258.858 481.709 257.241 483.685 254.873C474.807 240.554 442.304 187.718 440.586 183.566V183.136C435.64 185.675 430.095 186.814 424.549 186.429C419.824 186.286 412.807 185.57 408.941 181.991V182.85C409.657 196.596 455.334 242.559 473.375 260.171L475.953 259.455Z" fill="url(#paint2_linear_2241_8816)"/>
<path d="M381.593 171.538C380.375 171.569 379.161 171.375 378.014 170.965C376.266 170.34 374.698 169.295 373.45 167.922C372.201 166.549 371.31 164.889 370.854 163.09C370.452 161.685 370.617 160.178 371.313 158.893C372.009 157.608 373.181 156.647 374.577 156.217C375.963 155.819 377.451 155.987 378.713 156.685C379.974 157.383 380.908 158.554 381.307 159.94L381.593 160.656C382.166 160.656 384.457 160.512 389.612 157.362C394.766 154.212 399.921 150.489 405.362 146.48C414.526 139.75 423.117 133.307 430.277 131.016C431.663 130.607 433.154 130.752 434.435 131.42C435.717 132.087 436.69 133.226 437.15 134.596C437.558 135.982 437.414 137.472 436.746 138.754C436.079 140.036 434.94 141.009 433.57 141.469C428.129 143.187 419.824 149.344 411.949 155.214C400.208 163.949 389.898 171.538 381.593 171.538Z" fill="#DEDEDE"/>
<path d="M391.903 167.528C391.187 164.235 390.471 160.655 388.466 158.078C384.027 160.512 382.166 160.655 381.593 160.655L381.307 159.939C380.908 158.554 379.974 157.383 378.713 156.685C377.451 155.987 375.963 155.819 374.577 156.217C373.181 156.647 372.009 157.608 371.313 158.893C370.617 160.178 370.452 161.685 370.854 163.09C371.31 164.889 372.201 166.548 373.45 167.922C374.698 169.295 376.266 170.34 378.014 170.965C379.161 171.375 380.375 171.569 381.593 171.538C385.263 171.357 388.841 170.327 392.046 168.531C392.046 168.101 391.903 167.815 391.903 167.528Z" fill="#DEDEDE"/>
<path d="M437.15 134.596C436.69 133.226 435.717 132.087 434.435 131.42C433.154 130.752 431.663 130.607 430.277 131.016C423.117 133.307 414.526 139.75 405.362 146.48C399.921 150.489 394.337 154.499 389.612 157.362L389.039 157.649C391.044 160.369 394.623 173.686 394.767 174.115C400.494 170.965 428.415 149.773 434.429 143.33C436.577 141.182 438.009 137.459 437.15 134.596Z" fill="#08E774"/>
<path d="M373.86 167.099C373.705 167.122 373.546 167.108 373.396 167.058C373.247 167.009 373.112 166.924 373.001 166.813C368.705 163.806 366.414 157.792 366.271 157.649C366.131 157.23 366.156 156.774 366.343 156.374C366.529 155.974 366.863 155.662 367.274 155.501C367.471 155.434 367.68 155.406 367.888 155.421C368.096 155.435 368.299 155.49 368.485 155.583C368.672 155.676 368.838 155.806 368.974 155.964C369.11 156.122 369.213 156.305 369.278 156.503C369.421 156.503 371.283 161.658 374.863 164.235C375.034 164.348 375.18 164.496 375.29 164.67C375.399 164.844 375.47 165.04 375.497 165.244C375.524 165.447 375.507 165.655 375.447 165.851C375.387 166.048 375.285 166.229 375.149 166.383C375.033 166.62 374.847 166.816 374.617 166.944C374.387 167.072 374.122 167.126 373.86 167.099Z" fill="#DEDEDE"/>
<path d="M373.861 163.233C373.607 163.216 373.359 163.144 373.136 163.02C372.913 162.896 372.721 162.724 372.573 162.517C370.568 159.653 368.85 152.637 368.707 151.921C368.614 151.504 368.681 151.068 368.892 150.698C369.104 150.327 369.446 150.048 369.852 149.916C370.284 149.863 370.721 149.962 371.088 150.198C371.454 150.433 371.726 150.79 371.857 151.205C372.286 153.066 373.718 158.651 375.15 160.655C375.289 160.821 375.393 161.014 375.454 161.222C375.515 161.43 375.533 161.648 375.506 161.863C375.48 162.078 375.409 162.285 375.298 162.472C375.187 162.658 375.039 162.82 374.864 162.946L373.861 163.233Z" fill="#DEDEDE"/>
<path d="M376.151 162.231C375.816 162.253 375.482 162.168 375.199 161.988C374.915 161.808 374.697 161.542 374.576 161.228C373.144 157.649 372.571 150.06 372.571 149.773C372.552 149.567 372.574 149.358 372.636 149.16C372.698 148.962 372.798 148.777 372.931 148.618C373.064 148.458 373.227 148.326 373.411 148.23C373.595 148.133 373.796 148.074 374.003 148.055C374.21 148.036 374.418 148.059 374.616 148.12C374.815 148.182 374.999 148.282 375.158 148.415C375.318 148.548 375.45 148.711 375.546 148.895C375.643 149.079 375.702 149.28 375.721 149.487C375.96 153.076 376.584 156.628 377.582 160.083C377.676 160.279 377.728 160.492 377.735 160.71C377.741 160.927 377.703 161.143 377.623 161.345C377.542 161.546 377.42 161.729 377.266 161.882C377.111 162.034 376.926 162.153 376.723 162.231H376.151Z" fill="#DEDEDE"/>
<path d="M378.585 161.515C378.232 161.528 377.885 161.422 377.6 161.215C377.314 161.007 377.106 160.709 377.01 160.369C376.427 157.684 376.378 154.911 376.867 152.207C376.998 151.792 377.27 151.436 377.636 151.2C378.002 150.965 378.44 150.865 378.872 150.919C379.083 150.968 379.281 151.06 379.455 151.19C379.629 151.319 379.774 151.483 379.882 151.671C379.989 151.859 380.057 152.068 380.08 152.283C380.103 152.499 380.082 152.717 380.017 152.923C379.617 155.106 379.665 157.347 380.16 159.51C380.214 159.942 380.114 160.379 379.879 160.746C379.643 161.112 379.287 161.384 378.872 161.515H378.585Z" fill="#DEDEDE"/>
<path d="M443.305 143.33C442.568 143.326 441.839 143.181 441.157 142.901C440.533 142.625 439.971 142.224 439.507 141.724C439.042 141.223 438.685 140.633 438.457 139.989C438.23 139.346 438.135 138.662 438.181 137.981C438.227 137.3 438.411 136.635 438.723 136.028C439.794 134.013 441.039 132.097 442.446 130.3C442.886 129.78 443.424 129.353 444.031 129.042C444.637 128.732 445.299 128.544 445.978 128.491C446.657 128.438 447.34 128.52 447.987 128.732C448.634 128.944 449.233 129.282 449.748 129.727C450.264 130.155 450.688 130.681 450.997 131.275C451.306 131.869 451.492 132.519 451.546 133.186C451.599 133.853 451.518 134.525 451.308 135.16C451.098 135.796 450.762 136.383 450.321 136.887C449.443 138.003 448.676 139.202 448.03 140.466C447.61 141.354 446.938 142.099 446.098 142.608C445.258 143.117 444.287 143.368 443.305 143.33Z" fill="#DEDEDE"/>
<path d="M444.021 140.753L446.025 142.614C446.933 142.166 447.646 141.403 448.03 140.466C448.676 139.202 449.443 138.003 450.321 136.887C450.762 136.383 451.097 135.796 451.308 135.16C451.518 134.525 451.599 133.853 451.546 133.186C451.492 132.519 451.306 131.869 450.997 131.275C450.688 130.681 450.264 130.155 449.748 129.727C449.233 129.282 448.634 128.944 447.987 128.732C447.339 128.52 446.656 128.438 445.977 128.491C445.298 128.544 444.637 128.732 444.03 129.042C443.424 129.353 442.886 129.78 442.446 130.3C442.158 130.764 441.822 131.196 441.443 131.589C441.443 134.882 441.873 138.319 444.021 140.753Z" fill="#08E774"/>
<path d="M461.06 135.025C460.574 136.212 459.858 137.29 458.953 138.199C458.049 139.108 456.974 139.829 455.789 140.322C454.605 140.814 453.336 141.068 452.053 141.068C450.771 141.068 449.501 140.815 448.317 140.323C447.118 139.852 446.026 139.145 445.106 138.244C444.187 137.342 443.458 136.265 442.964 135.075C442.469 133.886 442.219 132.61 442.229 131.322C442.238 130.034 442.507 128.761 443.019 127.579L445.596 121.422C446.067 120.223 446.774 119.132 447.676 118.212C448.577 117.292 449.655 116.563 450.844 116.069C452.033 115.575 453.31 115.325 454.598 115.334C455.885 115.344 457.158 115.612 458.34 116.124C460.701 117.108 462.58 118.981 463.572 121.339C464.563 123.696 464.587 126.35 463.638 128.725L461.06 135.025Z" fill="#DEDEDE"/>
<path d="M444.021 126.863C443.305 130.3 438.437 129.154 436.719 127.436C435 125.718 432.709 118.129 438.15 118.559C434.284 112.545 447.744 106.101 449.176 112.974C450.178 111.256 451.324 109.538 453.615 109.395C455.906 109.251 458.197 110.683 458.053 112.688C459.289 111.732 460.812 111.225 462.374 111.251C463.936 111.277 465.442 111.835 466.645 112.831C467.36 113.547 468.792 114.979 468.076 115.981C467.36 116.984 465.785 116.697 465.07 116.984C464.354 117.27 471.083 117.413 470.081 119.418C469.079 121.422 467.217 119.561 466.645 119.418C469.222 120.85 470.224 122.281 469.938 125.432C469.651 128.582 469.079 129.727 467.36 129.87C465.642 130.013 465.356 129.441 465.356 128.582C467.504 130.729 464.497 136.457 461.776 133.593C461.338 132.99 461.14 132.247 461.219 131.506C461.299 130.765 461.65 130.08 462.206 129.584C460.631 128.725 457.194 123.856 459.628 122.568C458.483 122.568 453.185 120.706 454.903 119.275C455.333 120.993 453.042 123.284 451.324 122.425C452.469 124.716 449.176 126.577 447.314 126.577C448.46 128.152 444.737 130.013 443.591 127.723L444.021 126.863Z" fill="#3F464E"/>
<path d="M260.885 107.39C260.885 107.39 257.735 95.5056 273.199 92.6418L272.054 106.961L260.885 107.39Z" fill="#C7C6C6"/>
<path d="M198.602 137.746C195.33 137.749 192.1 137.015 189.151 135.598C175.119 129.011 173.544 108.965 173.401 108.106C173.322 106.648 173.817 105.216 174.781 104.119C175.744 103.022 177.099 102.345 178.556 102.235C179.27 102.177 179.99 102.26 180.673 102.48C181.355 102.701 181.988 103.054 182.533 103.52C183.079 103.986 183.527 104.555 183.852 105.194C184.177 105.834 184.372 106.531 184.426 107.247C184.713 111.256 187.004 122.425 193.876 125.718C200.749 129.011 208.482 125.718 219.507 117.843C220.684 117.007 222.145 116.674 223.568 116.915C224.991 117.157 226.26 117.954 227.096 119.131C227.931 120.309 228.265 121.769 228.023 123.193C227.781 124.616 226.984 125.885 225.807 126.72C215.498 134.023 206.477 137.746 198.602 137.746Z" fill="#CDE5E8"/>
<path d="M227.808 147.912L232.39 135.884C231.279 135.882 230.172 135.738 229.097 135.454C224.05 134.621 219.337 132.389 215.494 129.011C211.74 125.522 208.848 121.209 207.046 116.411C204.893 110.876 203.683 105.02 203.467 99.085C203.234 92.2226 203.762 85.3554 205.042 78.6094C206.274 71.8407 208.342 65.2513 211.199 58.9928C213.545 53.5725 216.788 48.5865 220.792 44.2445C224.237 40.4051 228.56 37.4573 233.393 35.6533C238.168 33.945 243.323 33.598 248.284 34.651C252.299 35.4191 256.106 37.0296 259.453 39.3762C261.028 36.2261 262.603 33.2191 264.321 30.2122C266.039 27.2053 267.901 22.9097 269.619 19.33C271.337 15.7504 270.908 16.0367 271.48 14.4617C265.869 11.2906 259.774 9.06533 253.439 7.87509C244.552 6.08352 235.364 6.47662 226.663 9.02059C218.289 11.4377 210.56 15.6936 204.039 21.4778C197.042 27.7088 191.265 35.186 187 43.5286C177.464 62.3646 173.396 83.4959 175.259 104.526C176.225 113.886 178.843 123 182.991 131.445C186.973 139.194 192.592 145.985 199.458 151.348C206.01 156.575 213.718 160.159 221.938 161.801C224.086 157.219 226.09 152.637 227.808 147.912Z" fill="#05CD66"/>
<path d="M301.98 65.5796C301.149 56.2579 298.575 47.1751 294.391 38.8036C289.391 28.8197 281.64 20.4733 272.054 14.7483C271.509 16.4192 270.839 18.0465 270.049 19.6166C268.474 23.1963 266.756 26.9191 264.894 30.4988C263.033 34.0785 261.601 36.6558 260.026 39.8059L261.601 41.0946C265.445 44.5354 268.393 48.86 270.192 53.695C272.364 59.1806 273.622 64.985 273.915 70.8775C274.143 77.7873 273.614 84.7013 272.34 91.4964C271.066 98.2545 268.999 104.839 266.183 111.113C263.788 116.541 260.497 121.527 256.446 125.861C252.922 129.674 248.559 132.615 243.703 134.452C240.318 135.705 236.71 136.242 233.107 136.027C231.246 140.323 229.67 144.762 228.095 149.201C226.52 153.639 224.516 157.792 222.654 161.944L223.943 162.231C232.818 164.069 242.006 163.725 250.719 161.228C259.063 158.667 266.772 154.374 273.342 148.628C280.33 142.388 286.106 134.913 290.382 126.577C299.996 107.77 304.021 86.6026 301.98 65.5796Z" fill="#07974D"/>
<path d="M240.697 167.958C231.776 166.361 223.375 162.627 216.212 157.076C209.343 151.658 203.726 144.82 199.745 137.03C195.579 128.642 192.96 119.571 192.013 110.254C190.991 99.7807 191.522 89.2139 193.588 78.8959C195.432 68.5518 198.861 58.5542 203.755 49.2563C207.981 40.8899 213.764 33.406 220.794 27.2055C227.344 21.4309 235.059 17.1335 243.417 14.6051C252.149 12.2302 261.308 11.8859 270.194 13.5984C279.079 15.311 287.455 19.0349 294.678 24.485C301.538 29.8162 307.116 36.6172 311.001 44.3879C315.278 52.7833 317.903 61.9218 318.733 71.307C320.742 92.3286 316.719 113.487 307.135 132.305C302.86 140.64 297.083 148.115 290.096 154.355C283.526 160.101 275.817 164.395 267.473 166.956C258.749 169.381 249.577 169.724 240.697 167.958ZM245.851 141.182C250.731 142.181 255.793 141.784 260.456 140.037C265.306 138.255 269.67 135.361 273.2 131.589C277.251 127.254 280.542 122.268 282.937 116.84C285.753 110.566 287.82 103.982 289.094 97.2238C290.368 90.4287 290.896 83.5148 290.669 76.6049C290.407 70.7083 289.148 64.8987 286.946 59.4225C285.147 54.5875 282.199 50.2629 278.355 46.8221C274.584 43.5041 269.98 41.2764 265.038 40.3787C260.078 39.3257 254.922 39.6727 250.147 41.381C245.315 43.185 240.991 46.1328 237.547 49.9722C233.575 54.2857 230.334 59.219 227.953 64.5773C225.116 70.8932 223.049 77.5274 221.796 84.337C220.446 91.0736 219.917 97.9489 220.221 104.813C220.453 110.745 221.663 116.599 223.801 122.138C225.588 126.944 228.482 131.26 232.249 134.739C236.091 138.117 240.804 140.349 245.851 141.182Z" fill="url(#paint3_linear_2241_8816)"/>
<path d="M337.347 87.4873L337.777 107.533C337.777 107.533 332.049 112.688 326.895 107.533L328.756 84.9099L337.347 87.4873Z" fill="#3F464E"/>
<path d="M313.579 248.142L310.715 246.567C309.766 248.146 308.611 249.591 307.278 250.863C308.288 251.669 309.061 252.734 309.515 253.944C309.969 255.154 310.086 256.464 309.856 257.736C308.767 258.712 307.619 259.621 306.419 260.457C303.269 261.888 297.398 264.036 297.398 264.036L312.003 265.182L322.886 254.156C319.61 252.434 316.495 250.421 313.579 248.142Z" fill="#3F464E"/>
<path d="M256.59 249.002C254.299 248.572 251.292 250.29 249.431 249.002C249.176 251.044 249.08 253.102 249.145 255.159L227.523 264.036H255.015C255.302 261.173 254.729 258.309 255.158 255.588L256.59 249.002Z" fill="#3F464E"/>
<path d="M281.648 151.205L257.307 197.455C257.307 197.455 267.186 205.759 276.923 208.48L295.108 154.069L281.648 151.205Z" fill="#DEDEDE"/>
<path d="M308.281 252.009C309.725 250.465 311.02 248.787 312.147 246.997C305.847 241.556 302.84 235.972 294.248 226.378C290.669 222.512 300.119 199.746 302.41 196.023C306.419 189.15 307.135 184.138 310.285 172.54L286.516 181.418C280.789 201.607 274.202 221.94 280.932 231.533C287.662 241.127 300.262 250.004 306.276 254.157C306.419 254.3 308.138 251.866 308.281 252.009Z" fill="url(#paint4_linear_2241_8816)"/>
<path d="M268.331 105.099L267.329 104.813C267.153 104.686 267.005 104.525 266.894 104.338C266.784 104.152 266.713 103.945 266.686 103.73C266.659 103.515 266.677 103.296 266.738 103.089C266.8 102.881 266.903 102.688 267.042 102.522C268.098 101.053 268.875 99.403 269.333 97.6535C269.371 97.4466 269.449 97.2493 269.563 97.0725C269.677 96.8958 269.824 96.7433 269.997 96.6236C270.17 96.504 270.365 96.4195 270.57 96.3751C270.776 96.3307 270.988 96.3272 271.195 96.3648C271.402 96.4024 271.599 96.4804 271.776 96.5943C271.952 96.7082 272.105 96.8558 272.225 97.0286C272.344 97.2015 272.429 97.3962 272.473 97.6017C272.518 97.8072 272.521 98.0194 272.484 98.2262C271.921 100.439 270.95 102.527 269.62 104.383C269.472 104.591 269.279 104.763 269.056 104.886C268.833 105.01 268.586 105.083 268.331 105.099Z" fill="#DEDEDE"/>
<path d="M308.568 177.408C315.727 157.935 321.741 127.436 324.032 115.265L320.452 114.12C318.448 113.547 315.87 112.831 313.722 113.547C312.656 113.877 311.644 114.359 310.715 114.979C309.856 117.7 309.427 119.847 309.427 119.847C309.427 119.847 294.249 148.914 284.369 168.817C292.785 170.579 300.925 173.468 308.568 177.408Z" fill="#18F784"/>
<path d="M284.082 169.39L281.505 174.401C279.643 177.838 277.496 180.988 275.491 184.138C255.874 213.635 248.572 237.117 247.283 248.143C249.145 249.718 256.161 250.434 258.452 250.863C262.175 232.392 271.482 220.651 288.378 206.762C293.962 202.18 298.115 196.166 301.837 191.297C305.56 186.429 306.276 183.709 308.424 177.981C300.722 174.062 292.538 171.174 284.082 169.39Z" fill="url(#paint5_linear_2241_8816)"/>
<path d="M265.038 177.552C263.781 177.463 262.592 176.951 261.662 176.1C260.733 175.249 260.119 174.108 259.92 172.864C259.721 171.62 259.948 170.345 260.566 169.246C261.183 168.147 262.154 167.29 263.32 166.813C269.907 164.522 280.073 155.501 286.946 145.621C300.978 125.862 310.715 114.979 311.144 114.407C312.182 113.56 313.49 113.115 314.828 113.153C316.167 113.19 317.447 113.707 318.437 114.609C319.426 115.512 320.058 116.74 320.217 118.069C320.377 119.399 320.054 120.741 319.306 121.852C319.163 121.852 309.569 132.734 295.967 152.065C289.237 161.658 277.209 173.543 266.9 177.122C266.323 177.413 265.684 177.561 265.038 177.552Z" fill="#C7C6C6"/>
<path d="M320.165 117.127H319.735C319.051 117.092 318.38 116.917 317.766 116.613C317.151 116.309 316.605 115.882 316.162 115.359C315.719 114.835 315.389 114.226 315.19 113.57C314.992 112.914 314.931 112.223 315.01 111.542C315.221 109.25 315.701 106.992 316.442 104.813C316.926 103.543 317.88 102.508 319.106 101.922C320.332 101.335 321.736 101.243 323.029 101.662C323.669 101.887 324.258 102.236 324.763 102.689C325.268 103.142 325.678 103.69 325.971 104.302C326.263 104.914 326.432 105.577 326.468 106.255C326.504 106.932 326.405 107.61 326.179 108.249C325.713 109.59 325.424 110.986 325.32 112.401C325.181 113.681 324.581 114.866 323.633 115.735C322.684 116.605 321.451 117.099 320.165 117.127Z" fill="#DEDEDE"/>
<path d="M321.597 111.686L324.604 114.549C324.97 113.882 325.213 113.155 325.32 112.401C325.424 110.986 325.713 109.59 326.179 108.249C326.406 107.61 326.504 106.932 326.468 106.255C326.433 105.577 326.264 104.914 325.971 104.302C325.678 103.69 325.268 103.142 324.763 102.689C324.258 102.236 323.669 101.887 323.029 101.662C321.965 101.314 320.817 101.321 319.758 101.683C318.699 102.044 317.786 102.741 317.158 103.667C317.588 106.531 320.022 109.824 321.597 111.686Z" fill="#08E774"/>
<path d="M334.913 100.517C334.895 101.808 334.62 103.083 334.104 104.266C333.589 105.45 332.843 106.519 331.91 107.412C330.977 108.305 329.876 109.003 328.671 109.467C327.466 109.93 326.181 110.149 324.89 110.111C323.611 110.074 322.352 109.785 321.185 109.261C320.018 108.737 318.966 107.988 318.088 107.058C317.21 106.127 316.525 105.032 316.07 103.836C315.616 102.64 315.402 101.366 315.44 100.088V93.3578C315.458 92.0668 315.733 90.7923 316.249 89.6086C316.764 88.4249 317.51 87.3555 318.443 86.4628C319.376 85.57 320.477 84.8717 321.682 84.4084C322.887 83.9451 324.172 83.7262 325.463 83.7643C326.742 83.8013 328.001 84.0901 329.168 84.6139C330.335 85.1378 331.388 85.8866 332.265 86.8174C333.143 87.7482 333.828 88.8429 334.283 90.0389C334.737 91.2348 334.951 92.5086 334.913 93.7874V100.517Z" fill="#DEDEDE"/>
<path d="M257.306 175.977C254.675 175.891 252.09 175.257 249.718 174.115C249.487 174.074 249.269 173.982 249.078 173.847C248.888 173.711 248.73 173.534 248.616 173.329C248.503 173.125 248.436 172.898 248.421 172.664C248.406 172.431 248.444 172.197 248.531 171.979C248.618 171.762 248.752 171.567 248.924 171.408C249.095 171.249 249.3 171.131 249.524 171.061C249.747 170.991 249.983 170.972 250.215 171.005C250.447 171.038 250.668 171.122 250.863 171.251C255.159 172.97 258.452 173.256 260.6 171.967C260.775 171.835 260.976 171.741 261.189 171.69C261.403 171.64 261.625 171.635 261.84 171.675C262.056 171.716 262.261 171.801 262.442 171.925C262.623 172.049 262.776 172.21 262.891 172.397C263.106 172.78 263.167 173.23 263.06 173.656C262.954 174.082 262.688 174.452 262.318 174.688C260.803 175.583 259.065 176.029 257.306 175.977Z" fill="#DEDEDE"/>
<path d="M259.311 178.267C256.94 178.225 254.583 177.888 252.295 177.265H251.579C251.368 177.216 251.169 177.124 250.995 176.994C250.822 176.865 250.676 176.701 250.569 176.513C250.461 176.324 250.394 176.116 250.37 175.901C250.347 175.685 250.369 175.467 250.433 175.26C250.465 175.055 250.54 174.858 250.655 174.685C250.77 174.512 250.921 174.365 251.098 174.256C251.276 174.147 251.474 174.078 251.681 174.054C251.888 174.029 252.097 174.05 252.295 174.115H253.011C257.008 175.398 261.299 175.448 265.325 174.258C265.536 174.162 265.767 174.113 265.999 174.116C266.232 174.119 266.461 174.174 266.67 174.276C266.879 174.378 267.063 174.525 267.208 174.707C267.353 174.889 267.457 175.1 267.51 175.326C267.564 175.553 267.567 175.788 267.519 176.016C267.472 176.243 267.374 176.457 267.233 176.643C267.093 176.828 266.913 176.98 266.707 177.088C266.501 177.195 266.273 177.256 266.041 177.265C263.85 177.889 261.588 178.226 259.311 178.267Z" fill="#DEDEDE"/>
<path d="M257.307 172.827C254.098 172.793 251.005 171.627 248.573 169.533C248.413 169.392 248.282 169.221 248.189 169.03C248.095 168.838 248.04 168.63 248.027 168.417C248.013 168.205 248.042 167.991 248.111 167.79C248.18 167.588 248.288 167.402 248.429 167.242C248.571 167.082 248.742 166.952 248.933 166.858C249.125 166.765 249.333 166.709 249.545 166.696C249.758 166.683 249.971 166.712 250.173 166.781C250.375 166.85 250.561 166.958 250.72 167.099C251.93 168.125 253.363 168.853 254.904 169.226C256.446 169.599 258.053 169.606 259.598 169.247C260.015 169.155 260.451 169.221 260.821 169.433C261.192 169.644 261.47 169.987 261.603 170.392C261.656 170.824 261.557 171.262 261.321 171.628C261.086 171.994 260.729 172.266 260.314 172.397C259.335 172.67 258.324 172.814 257.307 172.827Z" fill="#DEDEDE"/>
<path d="M260.601 171.108H260.458C258.856 170.967 257.31 170.453 255.943 169.608C254.575 168.763 253.425 167.609 252.582 166.24C252.485 166.053 252.426 165.848 252.409 165.637C252.393 165.426 252.418 165.215 252.485 165.014C252.552 164.814 252.658 164.629 252.798 164.471C252.938 164.312 253.108 164.183 253.298 164.092C253.659 163.884 254.088 163.828 254.491 163.935C254.893 164.042 255.237 164.305 255.446 164.665C256.023 165.566 256.802 166.32 257.722 166.867C258.642 167.414 259.677 167.739 260.744 167.815C260.965 167.831 261.18 167.894 261.375 167.999C261.57 168.105 261.741 168.25 261.876 168.425C262.012 168.601 262.108 168.803 262.16 169.019C262.211 169.235 262.217 169.459 262.176 169.676C262.14 170.069 261.958 170.434 261.667 170.699C261.375 170.964 260.995 171.11 260.601 171.108Z" fill="#DEDEDE"/>
<path d="M279.93 107.39H279.643C276.923 106.961 269.62 105.815 267.902 105.815C267.682 105.816 267.465 105.771 267.264 105.683C267.063 105.595 266.883 105.466 266.734 105.305C266.586 105.143 266.473 104.952 266.403 104.744C266.333 104.536 266.307 104.316 266.327 104.097C266.327 103.679 266.493 103.279 266.788 102.983C267.084 102.688 267.484 102.522 267.902 102.522C271.988 102.863 276.052 103.437 280.073 104.24C280.288 104.236 280.501 104.28 280.696 104.369C280.891 104.458 281.064 104.59 281.202 104.755C281.339 104.92 281.438 105.114 281.49 105.322C281.543 105.531 281.548 105.748 281.505 105.958C281.441 106.339 281.251 106.688 280.966 106.948C280.68 107.207 280.315 107.363 279.93 107.39Z" fill="#DEDEDE"/>
<path d="M278.783 110.827H278.354C274.694 109.78 270.961 109.015 267.185 108.536C266.966 108.537 266.748 108.492 266.547 108.404C266.346 108.316 266.166 108.187 266.018 108.025C265.869 107.863 265.756 107.672 265.686 107.464C265.616 107.256 265.59 107.036 265.61 106.818C265.628 106.61 265.687 106.409 265.783 106.225C265.879 106.04 266.011 105.877 266.171 105.744C266.331 105.611 266.515 105.51 266.714 105.449C266.912 105.388 267.121 105.366 267.328 105.386C271.194 105.529 278.926 107.677 279.213 107.677C279.424 107.726 279.622 107.818 279.796 107.948C279.97 108.077 280.115 108.241 280.223 108.429C280.33 108.617 280.398 108.826 280.421 109.041C280.444 109.257 280.423 109.475 280.358 109.681C280.243 110.009 280.03 110.294 279.749 110.499C279.468 110.703 279.131 110.818 278.783 110.827Z" fill="#DEDEDE"/>
<path d="M278.068 114.263H277.639C270.336 111.829 268.475 111.686 267.616 111.686L266.184 111.399C265.789 111.298 265.449 111.047 265.236 110.7C265.022 110.353 264.951 109.936 265.038 109.538C265.087 109.327 265.18 109.128 265.309 108.955C265.439 108.781 265.603 108.636 265.791 108.528C265.979 108.421 266.187 108.353 266.403 108.33C266.618 108.306 266.836 108.328 267.043 108.393H267.759C269.047 108.536 270.909 108.679 278.498 111.113C278.904 111.245 279.246 111.524 279.457 111.894C279.669 112.265 279.735 112.701 279.643 113.118C279.528 113.446 279.315 113.731 279.034 113.935C278.753 114.14 278.416 114.254 278.068 114.263Z" fill="#DEDEDE"/>
<path d="M274.918 116.84H274.774C267.472 116.411 267.186 112.401 267.186 111.972H270.336C270.336 111.972 270.765 113.547 275.061 113.833C275.268 113.851 275.47 113.91 275.654 114.006C275.838 114.103 276.002 114.234 276.135 114.394C276.268 114.554 276.368 114.738 276.429 114.937C276.491 115.136 276.512 115.345 276.493 115.552C276.475 115.74 276.42 115.923 276.331 116.09C276.242 116.257 276.12 116.405 275.974 116.524C275.827 116.644 275.659 116.734 275.477 116.788C275.296 116.842 275.106 116.86 274.918 116.84Z" fill="#DEDEDE"/>
<path d="M268.761 114.979C267.631 114.491 266.412 114.247 265.181 114.263C263.32 114.263 260.886 111.256 260.886 107.963C260.886 107.963 260.026 98.5123 270.05 102.808L268.761 114.979Z" fill="#DEDEDE"/>
<path d="M300.405 143.187L286.373 212.632C286.373 212.632 308.137 217.787 321.597 210.055L324.89 113.834C324.89 113.834 309.999 108.536 300.405 143.187Z" fill="#08E774"/>
<path d="M303.7 181.417L317.159 180.701C317.159 180.701 317.446 201.32 309.427 200.461C309.427 200.461 298.402 202.895 303.7 181.417Z" fill="#0ACD69"/>
<path d="M320.596 112.115C319.14 110.813 317.252 110.099 315.298 110.111C314.174 110.111 313.061 110.339 312.027 110.782C310.993 111.225 310.06 111.873 309.284 112.688C308.855 113.261 298.975 124.286 284.943 144.189L281.936 148.198L280.504 149.916L282.079 151.492C283.639 153.314 285.313 155.035 287.091 156.646L289.811 159.367L291.816 161.371L293.677 159.224C295.252 157.362 296.684 155.358 298.116 153.496C311.575 134.452 321.169 123.57 321.312 123.57C322.69 121.936 323.385 119.833 323.251 117.699C323.118 115.565 322.167 113.565 320.596 112.115Z" fill="#0ACD69"/>
<path d="M283.574 143.316L278.123 149.39L292.308 162.118L297.759 156.043L283.574 143.316Z" fill="#08E774"/>
<path d="M305.705 104.383L318.019 109.251C318.019 109.251 323.317 83.6211 319.451 79.755C319.451 79.755 305.705 78.4664 305.705 104.383Z" fill="#3F464E"/>
<path d="M320.166 84.1936C320.595 84.9095 330.189 91.3529 337.778 89.4915C337.778 89.4915 336.489 78.1797 318.877 79.898L320.166 84.1936Z" fill="#3F464E"/>
<path d="M327.612 96.3647C327.612 97.0727 327.471 97.7735 327.196 98.4258C326.92 99.0781 326.517 99.6686 326.01 100.162C325.503 100.656 324.902 101.044 324.242 101.301C323.583 101.559 322.879 101.682 322.171 101.663C321.47 101.682 320.772 101.559 320.12 101.3C319.469 101.04 318.877 100.651 318.381 100.155C317.885 99.659 317.495 99.067 317.236 98.4153C316.977 97.7636 316.853 97.0658 316.873 96.3647C316.854 95.6571 316.977 94.9527 317.235 94.2933C317.492 93.6339 317.879 93.0329 318.373 92.5256C318.867 92.0184 319.458 91.6153 320.11 91.3402C320.762 91.065 321.463 90.9234 322.171 90.9236C323.614 90.9236 324.998 91.4969 326.018 92.5173C327.039 93.5377 327.612 94.9217 327.612 96.3647Z" stroke="#BEBEBE" stroke-width="0.87" stroke-miterlimit="10"/>
<path d="M339.782 97.367C339.782 98.3016 339.505 99.2151 338.986 99.9922C338.467 100.769 337.729 101.375 336.865 101.733C336.002 102.09 335.052 102.184 334.135 102.001C333.219 101.819 332.377 101.369 331.716 100.708C331.055 100.047 330.605 99.2054 330.423 98.2888C330.241 97.3723 330.334 96.4222 330.692 95.5588C331.049 94.6954 331.655 93.9574 332.432 93.4382C333.209 92.919 334.123 92.6418 335.057 92.6418C335.678 92.6418 336.292 92.7641 336.865 93.0015C337.439 93.239 337.96 93.587 338.398 94.0258C338.837 94.4646 339.185 94.9855 339.423 95.5588C339.66 96.1321 339.782 96.7465 339.782 97.367V97.367Z" stroke="#BEBEBE" stroke-width="0.75" stroke-miterlimit="10"/>
<path d="M327.611 96.3648C328.075 96.1693 328.579 96.0931 329.08 96.1431C329.58 96.1931 330.06 96.3678 330.475 96.6511" stroke="#BEBEBE" stroke-width="0.87" stroke-miterlimit="10"/>
<path d="M170.822 105.815H170.393C169.038 105.67 167.792 105.009 166.912 103.969C166.032 102.93 165.586 101.591 165.668 100.231C166.008 97.9607 166.486 95.7133 167.1 93.5011C167.536 92.191 168.476 91.108 169.711 90.4904C170.946 89.8727 172.376 89.7711 173.686 90.2078C174.996 90.6445 176.079 91.5838 176.697 92.8191C177.314 94.0543 177.416 95.4843 176.979 96.7944C176.429 98.1171 176.09 99.5185 175.977 100.947C175.871 102.252 175.286 103.471 174.334 104.37C173.382 105.269 172.131 105.784 170.822 105.815Z" fill="#C7C6C6"/>
<path d="M167.814 248.858C172.846 251.231 178.295 252.593 183.851 252.868C189.436 242.988 206.188 216.069 191.011 194.018L169.389 182.42C169.389 182.42 191.011 205.043 167.814 248.858Z" fill="url(#paint6_linear_2241_8816)"/>
<path d="M178.984 257.736L182.42 250.863C181.275 250.72 176.12 250.577 173.972 249.718C171.176 254.747 167.967 259.537 164.379 264.036H193.446L178.984 257.736Z" fill="#3F464E"/>
<path d="M214.779 195.307C211.2 188.291 184.996 167.242 182.562 155.215L182.133 151.921C177.837 154.069 172.396 154.642 168.1 154.928C163.805 155.215 160.225 155.501 155.5 153.21C155.93 160.656 154.641 167.958 159.08 175.547C167.814 190.582 196.738 203.612 199.888 208.623C206.188 218.36 208.479 239.838 210.627 252.868C214.063 252.868 222.082 252.725 225.375 251.579C224.23 244.85 226.091 217.358 214.779 195.307Z" fill="url(#paint7_linear_2241_8816)"/>
<path d="M223.802 256.447C223.802 256.447 222.943 252.725 222.656 250.863C219.363 252.152 217.358 250.863 213.922 250.863C214.495 254.156 214.065 260.17 214.351 263.75H241.843L223.802 256.447Z" fill="#3F464E"/>
<path d="M168.244 158.937C172.539 158.651 181.274 157.506 184.853 153.926C184.137 148.198 181.56 139.034 182.419 131.589C185.426 106.245 173.112 98.6557 173.112 98.6557C173.112 98.6557 167.528 94.7897 162.946 99.5149C155.93 106.674 149.2 126.864 149.916 156.646C154.641 159.081 163.232 159.081 168.244 158.937Z" fill="#08E774"/>
<path d="M231.534 166.812H230.245C210.342 162.23 193.589 150.346 181.562 132.448C176.201 124.432 172.096 115.644 169.391 106.388C169.049 104.983 169.279 103.499 170.031 102.264C170.783 101.029 171.995 100.143 173.4 99.801C174.805 99.4593 176.288 99.6897 177.524 100.442C178.759 101.193 179.645 102.405 179.987 103.81C182.526 111.873 186.189 119.537 190.869 126.577C201.465 142.184 215.497 152.207 232.679 156.217C233.389 156.369 234.061 156.661 234.655 157.076C235.25 157.492 235.756 158.022 236.143 158.635C236.53 159.249 236.79 159.934 236.908 160.65C237.027 161.365 237.001 162.098 236.832 162.803C236.516 163.963 235.824 164.985 234.866 165.71C233.907 166.436 232.736 166.823 231.534 166.812Z" fill="#DEDEDE"/>
<path d="M219.363 150.346C208.113 144.891 198.56 136.476 191.728 126.004C187.004 119.062 183.382 111.43 180.989 103.381C180.637 101.981 179.824 100.74 178.681 99.8569C177.539 98.9741 176.133 98.5006 174.689 98.5123H173.114C171.494 98.9934 170.113 100.067 169.248 101.519C168.784 102.231 168.479 103.034 168.355 103.875C168.232 104.715 168.292 105.573 168.532 106.388C170.939 116.622 175.106 126.36 180.846 135.168C189.985 149.17 203.17 160.058 218.648 166.383H219.507C219.644 166.323 219.76 166.222 219.837 166.094C219.914 165.966 219.948 165.816 219.936 165.667V151.205C219.947 151.019 219.897 150.835 219.793 150.68C219.69 150.525 219.539 150.408 219.363 150.346Z" fill="#E1F3F6"/>
<path d="M235.542 167.242C233.665 167.251 231.793 167.059 229.958 166.669C229.749 166.635 229.55 166.559 229.371 166.446C229.193 166.333 229.039 166.186 228.919 166.012C228.798 165.838 228.714 165.642 228.672 165.435C228.629 165.228 228.628 165.015 228.669 164.808C228.701 164.584 228.781 164.37 228.903 164.18C229.025 163.989 229.186 163.827 229.377 163.705C229.567 163.583 229.781 163.503 230.005 163.471C230.229 163.439 230.457 163.455 230.674 163.519C235.399 164.378 239.408 164.092 242.558 162.374C242.942 162.213 243.371 162.196 243.767 162.328C244.162 162.46 244.495 162.73 244.706 163.09C244.803 163.277 244.862 163.482 244.879 163.693C244.896 163.903 244.87 164.115 244.803 164.315C244.736 164.516 244.63 164.701 244.49 164.859C244.351 165.018 244.18 165.146 243.99 165.238C241.381 166.589 238.48 167.277 235.542 167.242Z" fill="#DEDEDE"/>
<path d="M235.829 163.663H233.395C233.187 163.628 232.987 163.552 232.809 163.439C232.63 163.326 232.476 163.179 232.356 163.005C232.236 162.831 232.152 162.635 232.109 162.428C232.066 162.222 232.065 162.008 232.106 161.801C232.123 161.58 232.186 161.365 232.291 161.17C232.396 160.975 232.541 160.804 232.717 160.669C232.893 160.534 233.095 160.437 233.31 160.385C233.526 160.334 233.75 160.328 233.968 160.369C237.373 160.757 240.817 160.108 243.848 158.508C244.23 158.292 244.681 158.232 245.107 158.338C245.533 158.445 245.902 158.71 246.139 159.081C246.236 159.268 246.295 159.473 246.312 159.683C246.329 159.894 246.303 160.106 246.236 160.306C246.169 160.507 246.063 160.691 245.923 160.85C245.783 161.008 245.613 161.137 245.423 161.228C242.476 162.823 239.18 163.66 235.829 163.663Z" fill="#DEDEDE"/>
<path d="M234.396 160.512H233.537C233.322 160.517 233.109 160.473 232.914 160.384C232.718 160.294 232.546 160.163 232.408 159.998C232.271 159.832 232.172 159.639 232.119 159.43C232.067 159.222 232.062 159.005 232.105 158.794C232.123 158.587 232.182 158.385 232.278 158.201C232.374 158.017 232.506 157.853 232.666 157.72C232.826 157.587 233.01 157.487 233.209 157.426C233.408 157.364 233.616 157.343 233.823 157.362C234.898 157.433 235.975 157.278 236.985 156.908C237.996 156.538 238.919 155.961 239.694 155.215C239.818 155.053 239.975 154.919 240.155 154.823C240.334 154.727 240.532 154.67 240.736 154.656C240.939 154.643 241.143 154.673 241.333 154.744C241.524 154.816 241.698 154.927 241.842 155.071C242.014 155.184 242.159 155.332 242.269 155.506C242.378 155.68 242.449 155.876 242.476 156.08C242.504 156.283 242.486 156.491 242.426 156.687C242.366 156.884 242.265 157.065 242.128 157.219C241.149 158.288 239.952 159.134 238.618 159.702C237.285 160.27 235.845 160.546 234.396 160.512Z" fill="#DEDEDE"/>
<path d="M228.812 157.792C228.593 157.793 228.375 157.748 228.174 157.66C227.973 157.572 227.793 157.443 227.644 157.281C227.496 157.12 227.383 156.929 227.313 156.721C227.243 156.513 227.217 156.292 227.237 156.074C227.237 155.867 227.278 155.662 227.357 155.471C227.436 155.28 227.552 155.106 227.698 154.96C227.845 154.814 228.018 154.698 228.209 154.619C228.4 154.54 228.605 154.499 228.812 154.499C229.822 154.471 230.813 154.211 231.707 153.74C232.601 153.268 233.374 152.597 233.967 151.778C234.199 151.442 234.553 151.209 234.954 151.129C235.355 151.049 235.771 151.128 236.115 151.349C236.301 151.464 236.462 151.617 236.586 151.798C236.711 151.979 236.796 152.183 236.836 152.399C236.877 152.615 236.871 152.837 236.821 153.05C236.771 153.264 236.677 153.465 236.544 153.64C235.64 154.858 234.479 155.862 233.142 156.58C231.805 157.297 230.327 157.711 228.812 157.792Z" fill="#DEDEDE"/>
<path d="M223.515 121.422C223.261 121.406 223.013 121.333 222.79 121.209C222.567 121.086 222.375 120.914 222.226 120.706C220.781 118.866 219.799 116.705 219.363 114.406C219.315 113.992 219.42 113.576 219.657 113.233C219.894 112.891 220.247 112.646 220.651 112.545C221.085 112.503 221.519 112.627 221.865 112.893C222.21 113.159 222.442 113.546 222.513 113.977C222.971 115.726 223.748 117.376 224.804 118.845C224.94 118.999 225.042 119.18 225.102 119.377C225.162 119.573 225.179 119.781 225.152 119.984C225.125 120.188 225.054 120.384 224.944 120.558C224.835 120.732 224.689 120.88 224.517 120.993C224.245 121.251 223.89 121.403 223.515 121.422Z" fill="#DEDEDE"/>
<path d="M223.801 121.995H223.515C219.997 121.596 216.459 121.405 212.919 121.422C212.488 121.386 212.087 121.19 211.795 120.871C211.504 120.553 211.342 120.136 211.344 119.704C211.344 119.286 211.51 118.886 211.805 118.59C212.1 118.295 212.501 118.129 212.919 118.129C216.654 118.106 220.386 118.346 224.087 118.845C224.505 118.883 224.891 119.085 225.159 119.408C225.428 119.73 225.557 120.146 225.519 120.563C225.481 120.981 225.279 121.367 224.957 121.635C224.634 121.904 224.219 122.033 223.801 121.995Z" fill="#DEDEDE"/>
<path d="M212.059 125.432C211.665 125.433 211.284 125.287 210.993 125.022C210.701 124.757 210.519 124.392 210.484 124C210.464 123.793 210.485 123.584 210.547 123.385C210.608 123.187 210.709 123.002 210.842 122.842C210.975 122.682 211.138 122.551 211.322 122.454C211.507 122.358 211.708 122.299 211.915 122.281C212.918 122.138 221.939 120.993 224.946 121.565C225.154 121.6 225.353 121.676 225.532 121.789C225.71 121.902 225.864 122.049 225.984 122.223C226.105 122.397 226.189 122.593 226.232 122.8C226.275 123.006 226.275 123.22 226.234 123.427C226.2 123.635 226.124 123.835 226.011 124.013C225.898 124.192 225.75 124.346 225.577 124.466C225.403 124.586 225.207 124.67 225 124.713C224.793 124.756 224.58 124.757 224.373 124.716C222.511 124.286 215.925 125.002 212.202 125.432H212.059Z" fill="#DEDEDE"/>
<path d="M214.207 129.011C214.019 129.031 213.828 129.013 213.647 128.959C213.466 128.905 213.297 128.815 213.151 128.696C213.004 128.576 212.883 128.428 212.794 128.261C212.705 128.094 212.65 127.911 212.632 127.723C212.591 127.516 212.592 127.302 212.634 127.095C212.677 126.889 212.761 126.692 212.882 126.519C213.002 126.345 213.156 126.197 213.334 126.084C213.513 125.971 213.712 125.896 213.921 125.861C216.206 125.47 218.457 124.896 220.65 124.143L224.373 122.998C224.58 122.941 224.796 122.926 225.009 122.953C225.221 122.98 225.427 123.049 225.613 123.155C225.799 123.261 225.962 123.403 226.093 123.573C226.225 123.742 226.321 123.936 226.378 124.143C226.434 124.35 226.449 124.566 226.422 124.778C226.395 124.991 226.327 125.196 226.22 125.383C226.114 125.569 225.972 125.732 225.802 125.863C225.633 125.995 225.439 126.091 225.232 126.148L221.653 127.293C219.314 128.05 216.92 128.624 214.493 129.011H214.207Z" fill="#DEDEDE"/>
<path d="M217.644 131.589C217.279 131.57 216.929 131.435 216.646 131.203C216.362 130.971 216.16 130.655 216.069 130.3C216.028 130.093 216.029 129.88 216.072 129.673C216.115 129.466 216.199 129.27 216.319 129.096C216.439 128.923 216.593 128.775 216.772 128.662C216.95 128.549 217.15 128.473 217.358 128.439C222.656 127.58 223.658 125.575 223.658 125.575C223.791 125.176 224.077 124.847 224.453 124.659C224.829 124.471 225.264 124.44 225.663 124.573C226.062 124.706 226.391 124.992 226.579 125.367C226.767 125.743 226.798 126.179 226.665 126.577C226.522 127.15 225.09 130.443 217.931 131.589H217.644Z" fill="#DEDEDE"/>
<path d="M223.8 129.727L222.654 116.554C224.249 116.699 225.729 117.446 226.793 118.643C227.857 119.839 228.425 121.396 228.382 122.997C228.382 125.002 227.809 127.293 223.8 129.727Z" fill="#DEDEDE"/>
<path d="M187.574 86.9145C188.273 89.5537 187.897 92.3625 186.528 94.7247C185.159 97.087 182.909 98.8097 180.271 99.5149C177.632 100.214 174.823 99.8382 172.461 98.4692C170.099 97.1002 168.376 94.85 167.671 92.2124L165.809 85.1962C165.149 82.5587 165.542 79.7675 166.905 77.4149C168.269 75.0624 170.495 73.3337 173.112 72.5958C174.428 72.2519 175.8 72.172 177.147 72.3606C178.495 72.5492 179.791 73.0026 180.963 73.6948C182.134 74.3869 183.157 75.3041 183.972 76.3934C184.787 77.4827 185.379 78.7226 185.712 80.0415L187.574 86.9145Z" fill="#DEDEDE"/>
<path d="M186.571 83.1917C185.96 85.4488 184.718 87.4851 182.992 89.0624C180.878 90.8349 178.322 91.9981 175.597 92.427C172.873 92.8559 170.083 92.5342 167.527 91.4966V92.2125C168.329 94.7386 170.072 96.8589 172.396 98.1334C174.72 99.4078 177.445 99.7386 180.006 99.0569C182.567 98.3752 184.767 96.7334 186.149 94.4724C187.532 92.2114 187.991 89.5048 187.43 86.9146L186.571 83.1917Z" fill="#3F464E"/>
<path d="M167.672 91.7826C163.806 89.3484 159.653 79.8981 165.667 77.7503C171.681 75.6024 167.958 88.2029 167.958 91.4962L167.672 91.7826Z" fill="#3F464E"/>
<path d="M164.522 78.6097C159.797 75.1732 165.667 65.5797 177.265 65.5797C184.282 65.5797 184.282 71.0208 179.413 74.0277C174.545 77.0346 168.961 75.03 165.81 79.1825L164.522 78.6097Z" fill="#3F464E"/>
<path d="M186.571 85.3391C184.316 82.0554 182.305 78.6095 180.557 75.0296C179.698 73.1682 178.553 70.1613 182.276 72.3091C185.998 74.4569 186.858 80.6139 186.571 83.764V85.3391Z" fill="#3F464E"/>
<path d="M104.956 108.249C103.237 109.967 101.233 111.399 99.6578 113.261L76.3184 161.944L93.644 139.464L112.115 101.519L104.956 108.249Z" fill="#07974D"/>
<path d="M91.2098 100.231C92.7849 97.9397 94.5031 95.2191 96.3645 92.9281L55.6995 73.0252L17.0391 76.8912L84.7664 108.106C86.9142 105.529 89.2052 102.951 91.2098 100.231Z" fill="#02B659"/>
<path d="M96.936 93.2148C94.7882 95.9353 93.07 99.0854 90.9222 101.663L85.3379 108.393L116.123 122.568L127.292 107.963L96.936 93.2148Z" fill="#08E774"/>
<path d="M50.6881 149.63L62.5726 124.573L0 94.6465L10.0231 73.7412L113.118 13.0301L141.182 26.4896L99.8012 112.831L116.84 120.993L105.385 145.048L88.3462 136.887L76.3185 161.944L50.6881 149.63ZM96.9374 52.836L95.3624 51.9768L40.2355 84.3371L74.1707 100.517L96.9374 52.836Z" fill="url(#paint8_linear_2241_8816)"/>
<path d="M116.84 120.993L127.292 107.963L119.131 126.004L104.955 145.907L116.84 120.993Z" fill="#07974D"/>
<path d="M112.831 100.803L153.496 11.7413L141.182 26.4895L99.8008 112.831L112.831 100.803Z" fill="#02B659"/>
<path d="M10.0234 73.7412L28.3513 57.7043L129.012 0L112.975 13.03L10.0234 73.7412Z" fill="#05CD66"/>
<path d="M112.975 13.03L141.182 26.4895L153.496 11.7413L129.012 0L112.975 13.03Z" fill="#08E774"/>
<path d="M78.6103 78.0369C75.1738 75.6027 72.7396 76.7482 71.0214 77.0346C69.9199 77.1734 68.8046 76.92 67.8713 76.3187C67.533 76.1736 67.1547 76.1515 66.8019 76.2564C66.449 76.3612 66.1441 76.5863 65.9399 76.8925C65.7358 77.1987 65.6453 77.5668 65.6842 77.9328C65.7232 78.2988 65.889 78.6396 66.1531 78.896C67.333 79.6875 68.6409 80.2688 70.0191 80.6143C67.4417 83.0484 64.7212 85.9122 64.578 86.0554C64.422 86.2026 64.2977 86.3801 64.2127 86.5771C64.1278 86.7741 64.084 86.9863 64.084 87.2009C64.084 87.4154 64.1278 87.6276 64.2127 87.8246C64.2977 88.0216 64.422 88.1991 64.578 88.3463C64.893 88.6281 65.3009 88.7839 65.7235 88.7839C66.1461 88.7839 66.554 88.6281 66.869 88.3463L71.0214 84.1939L66.7258 89.635C66.4963 90.001 66.4131 90.4399 66.4927 90.8645C66.5723 91.289 66.8089 91.668 67.1554 91.926L68.1577 92.2124C68.4121 92.1962 68.6598 92.1235 68.8827 91.9997C69.1056 91.8758 69.2981 91.7039 69.4464 91.4965C70.4487 90.0646 71.8805 88.06 73.3124 86.3417C72.5852 87.8197 71.7724 89.254 70.8782 90.6373C70.7458 90.8124 70.6514 91.0131 70.6012 91.2267C70.5509 91.4404 70.5458 91.6621 70.5863 91.8778C70.6267 92.0936 70.7118 92.2984 70.836 92.4793C70.9603 92.6602 71.121 92.8132 71.3078 92.9283L72.1669 93.2147C72.4621 93.2201 72.7529 93.1424 73.0061 92.9905C73.2592 92.8386 73.4646 92.6186 73.5988 92.3556C74.1062 91.6384 74.538 90.8706 74.8874 90.0646C74.7344 90.4277 74.723 90.835 74.8555 91.2061C74.9881 91.5772 75.2549 91.8852 75.6034 92.0692L76.4625 92.3556C76.717 92.3393 76.9646 92.2667 77.1875 92.1428C77.4104 92.019 77.603 91.8471 77.7512 91.6396C78.9861 89.9229 79.8626 87.975 80.3285 85.9122H80.4717C81.3309 81.4734 80.1854 79.3256 78.6103 78.0369ZM75.317 89.4918L76.6057 87.0577C76.2297 87.8963 75.7993 88.7094 75.317 89.4918Z" fill="#DEDEDE"/>
<path d="M29.2107 96.3647C24.0559 96.0783 16.7534 106.101 24.3423 108.822C17.4693 108.679 15.7511 118.272 22.0513 120.993C11.0259 118.845 12.3146 133.164 17.4693 138.318C16.5954 138.232 15.7131 138.338 14.8846 138.63C14.0561 138.921 13.3014 139.39 12.6736 140.004C12.0458 140.618 11.5602 141.363 11.2508 142.185C10.9414 143.006 10.8158 143.886 10.8827 144.762C11.4555 148.485 12.8874 153.639 22.0513 156.36C31.2153 159.08 36.7996 153.926 41.3815 149.057C44.2453 155.071 58.7071 147.053 57.1321 139.893C62.5732 141.755 67.4415 135.598 67.5847 130.729C67.7279 125.861 64.2914 122.281 60.9981 119.131C63.2891 116.984 63.7187 113.261 63.1459 110.254C62.5732 107.247 56.1298 104.956 56.1298 101.09C56.1298 99.658 56.2729 95.5055 55.1275 93.6441C53.982 91.7827 50.1159 87.7735 46.1067 89.2053C29.2106 81.1869 29.2107 96.3647 29.2107 96.3647Z" fill="#3F464E"/>
<path d="M39.0896 252.868C34.3644 252.008 33.6485 252.295 29.0665 251.149L18.4707 264.179H59.7085L35.7963 257.736L39.0896 252.868Z" fill="#3F464E"/>
<path d="M115.838 256.591L113.404 253.44C111.234 254.812 108.931 255.963 106.531 256.877L112.975 264.179H137.173L115.838 256.591Z" fill="#3F464E"/>
<path d="M24.7715 252.868C29.3535 254.013 33.9354 255.159 38.6606 256.018L72.739 214.064L66.8684 197.454L43.0994 169.963L49.9724 208.909L24.7715 252.868Z" fill="url(#paint9_linear_2241_8816)"/>
<path d="M71.0207 158.364C61.7136 155.93 48.97 159.08 39.9492 162.517C39.9492 162.517 45.5335 184.711 49.1132 191.297C59.8522 210.628 105.958 258.738 105.958 258.738C108.536 257.879 113.404 254.3 115.552 252.868L71.0207 158.364Z" fill="url(#paint10_linear_2241_8816)"/>
<path d="M38.6611 171.108C47.6818 167.815 65.8665 162.088 75.1737 164.379C75.1737 164.379 62.8596 135.455 57.2753 129.155C51.6911 122.854 32.9336 112.688 32.9336 128.582C33.1737 142.933 35.0959 157.205 38.6611 171.108Z" fill="#C7C6C6"/>
<path d="M46.6801 127.15H46.3937C45.7353 127.343 45.0443 127.398 44.3636 127.313C43.6829 127.228 43.0269 127.004 42.4362 126.655C41.8456 126.306 41.3329 125.839 40.93 125.284C40.527 124.729 40.2423 124.097 40.0935 123.427C39.5229 121.229 39.2342 118.968 39.2344 116.697C39.2339 115.317 39.7723 113.99 40.7351 113.001C41.6979 112.011 43.009 111.437 44.3891 111.399C45.7562 111.399 47.0673 111.943 48.034 112.909C49.0007 113.876 49.5438 115.187 49.5438 116.554C49.5587 117.996 49.7025 119.434 49.9734 120.85C50.1729 121.48 50.2459 122.143 50.1882 122.801C50.1305 123.459 49.9433 124.099 49.6372 124.685C49.3311 125.27 48.9123 125.79 48.4048 126.213C47.8973 126.636 47.3111 126.954 46.6801 127.15Z" fill="#08E774"/>
<path d="M50.1166 121.995C50.1396 121.655 50.0908 121.313 49.9734 120.993C49.7025 119.577 49.5587 118.139 49.5438 116.697C49.5438 115.33 49.0007 114.019 48.034 113.052C47.0673 112.086 45.7562 111.542 44.3891 111.542C43.009 111.58 41.6979 112.154 40.7351 113.144C39.7723 114.133 39.2339 115.46 39.2344 116.84V117.27C41.8117 120.134 45.9641 121.422 50.1166 121.995Z" fill="#08E774"/>
<path d="M55.1256 106.531C55.5497 107.743 55.7262 109.027 55.6447 110.309C55.5632 111.59 55.2254 112.842 54.6512 113.99C54.0771 115.138 53.2783 116.16 52.3021 116.994C51.326 117.828 50.1924 118.457 48.9686 118.845C46.5191 119.661 43.8459 119.471 41.5367 118.316C39.2275 117.162 37.4713 115.137 36.6545 112.688L34.5067 106.245C34.1058 105.023 33.9509 103.733 34.051 102.451C34.1512 101.169 34.5043 99.9194 35.0901 98.7744C35.6759 97.6295 36.4827 96.612 37.4639 95.7806C38.4451 94.9492 39.5814 94.3204 40.8069 93.9306C42.0289 93.5297 43.3182 93.3748 44.6004 93.4749C45.8826 93.5751 47.1322 93.9282 48.2772 94.514C49.4221 95.0998 50.4396 95.9066 51.271 96.8878C52.1024 97.869 52.7312 99.0052 53.121 100.231L55.1256 106.531Z" fill="#DEDEDE"/>
<path d="M112.688 101.376L111.972 101.09L112.688 100.231C112.97 99.9158 113.125 99.5079 113.125 99.0853C113.125 98.6627 112.97 98.2548 112.688 97.9398H112.401C112.608 97.6034 112.692 97.2062 112.64 96.8151C112.587 96.424 112.402 96.0627 112.115 95.792C111.902 95.6079 111.644 95.4842 111.367 95.4338C111.09 95.3834 110.804 95.4082 110.54 95.5056L111.686 94.217C111.856 94.0728 111.99 93.8909 112.077 93.6858C112.164 93.4807 112.202 93.258 112.189 93.0355C112.175 92.8131 112.109 92.5969 111.997 92.4043C111.885 92.2116 111.729 92.0478 111.542 91.926C111.398 91.7821 111.225 91.6707 111.034 91.5991C110.843 91.5276 110.639 91.4976 110.436 91.5112C110.233 91.5247 110.035 91.5815 109.855 91.6777C109.675 91.7739 109.518 91.9074 109.395 92.0692C107.257 94.353 104.854 96.372 102.235 98.083C101.228 96.6919 99.9026 95.5626 98.3692 94.7897C98.1718 94.7225 97.963 94.6952 97.755 94.7094C97.547 94.7235 97.3439 94.7788 97.1574 94.872C96.971 94.9653 96.8049 95.0946 96.6687 95.2525C96.5326 95.4105 96.4292 95.5938 96.3645 95.792C96.2723 95.9778 96.2215 96.1814 96.2157 96.3887C96.2099 96.5961 96.2492 96.8022 96.3309 96.9928C96.4126 97.1835 96.5348 97.3541 96.6889 97.4929C96.8431 97.6317 97.0255 97.7353 97.2237 97.7966C98.1564 98.3077 98.9445 99.0466 99.5146 99.9444C99.3314 100.409 99.1878 100.888 99.0851 101.376C75.4593 133.45 43.9582 122.138 42.5263 121.566C41.8534 121.285 41.1308 121.142 40.4015 121.145C39.6722 121.149 38.9511 121.299 38.2811 121.587C37.611 121.875 37.0057 122.295 36.5011 122.822C35.9965 123.348 35.6028 123.971 35.3436 124.652C35.0844 125.334 34.9648 126.061 34.9921 126.79C35.0193 127.518 35.1928 128.234 35.5022 128.895C35.8116 129.555 36.2506 130.147 36.7931 130.634C37.3356 131.121 37.9706 131.495 38.6603 131.732C44.7728 133.897 51.2201 134.963 57.7041 134.882L64.7203 134.452C76.4616 133.021 94.0736 126.291 107.963 108.249L108.965 107.533L109.824 106.961C110.929 106.014 111.937 104.958 112.831 103.81C112.982 103.642 113.098 103.444 113.173 103.23C113.248 103.017 113.279 102.79 113.266 102.564C113.253 102.337 113.195 102.116 113.096 101.912C112.996 101.708 112.858 101.526 112.688 101.376Z" fill="#E1F3F6"/>
<path d="M69.0151 121.422L67.5832 121.709C64.2947 122.459 60.9332 122.843 57.5602 122.854C52.6008 122.873 47.6703 122.1 42.9551 120.563C42.174 120.283 41.3508 120.137 40.5209 120.133C39.2368 120.143 37.9834 120.527 36.915 121.24C35.8465 121.952 35.0095 122.961 34.5071 124.143C34.1781 124.941 34.0208 125.8 34.0455 126.664C34.0701 127.527 34.2762 128.376 34.6503 129.154C37.8004 134.739 46.5348 136.886 57.7033 136.886C60.0457 136.934 62.3888 136.838 64.7195 136.6L69.1583 135.884L70.1606 135.598C69.3667 132.936 68.8391 130.202 68.5855 127.436C68.5965 125.424 68.74 123.415 69.0151 121.422Z" fill="#E1F3F6"/>
<path d="M34.3641 111.399C37.6574 109.251 38.9461 105.242 38.5165 101.09C41.5235 103.094 43.8144 101.949 45.6759 98.5124C51.2602 106.388 59.8514 94.6463 48.2532 90.3507C38.8029 87.0574 29.639 96.2214 32.0731 105.528L34.3641 111.399Z" fill="#3F464E"/>
<defs>
<linearGradient id="paint0_linear_2241_8816" x1="492.277" y1="7.3028" x2="481.963" y2="198" gradientUnits="userSpaceOnUse">
<stop stop-color="#04D76A"/>
<stop offset="1" stop-color="#3F464E"/>
</linearGradient>
<linearGradient id="paint1_linear_2241_8816" x1="435.289" y1="184.425" x2="430.226" y2="275.274" gradientUnits="userSpaceOnUse">
<stop stop-color="#04D76A"/>
<stop offset="1" stop-color="#3F464E"/>
</linearGradient>
<linearGradient id="paint2_linear_2241_8816" x1="481.108" y1="202.609" x2="483.685" y2="278.413" gradientUnits="userSpaceOnUse">
<stop stop-color="#04D76A"/>
<stop offset="1" stop-color="#3F464E"/>
</linearGradient>
<linearGradient id="paint3_linear_2241_8816" x1="319.237" y1="12.5271" x2="309.983" y2="205.151" gradientUnits="userSpaceOnUse">
<stop stop-color="#04D76A"/>
<stop offset="1" stop-color="#3F464E"/>
</linearGradient>
<linearGradient id="paint4_linear_2241_8816" x1="312.147" y1="172.54" x2="302.772" y2="272.327" gradientUnits="userSpaceOnUse">
<stop stop-color="#04D76A"/>
<stop offset="1" stop-color="#3F464E"/>
</linearGradient>
<linearGradient id="paint5_linear_2241_8816" x1="306.316" y1="190.877" x2="309.735" y2="269.817" gradientUnits="userSpaceOnUse">
<stop stop-color="#04D76A"/>
<stop offset="1" stop-color="#3F464E"/>
</linearGradient>
<linearGradient id="paint6_linear_2241_8816" x1="197.214" y1="182.42" x2="189.123" y2="268.545" gradientUnits="userSpaceOnUse">
<stop stop-color="#04D76A"/>
<stop offset="1" stop-color="#3F464E"/>
</linearGradient>
<linearGradient id="paint7_linear_2241_8816" x1="225.375" y1="151.921" x2="218.347" y2="276.024" gradientUnits="userSpaceOnUse">
<stop stop-color="#04D76A"/>
<stop offset="1" stop-color="#3F464E"/>
</linearGradient>
<linearGradient id="paint8_linear_2241_8816" x1="141.182" y1="13.0301" x2="133.601" y2="196.377" gradientUnits="userSpaceOnUse">
<stop stop-color="#04D76A"/>
<stop offset="1" stop-color="#3F464E"/>
</linearGradient>
<linearGradient id="paint9_linear_2241_8816" x1="72.739" y1="169.963" x2="65.3114" y2="275.575" gradientUnits="userSpaceOnUse">
<stop stop-color="#04D76A"/>
<stop offset="1" stop-color="#3F464E"/>
</linearGradient>
<linearGradient id="paint10_linear_2241_8816" x1="112.945" y1="184.202" x2="117.214" y2="282.288" gradientUnits="userSpaceOnUse">
<stop stop-color="#04D76A"/>
<stop offset="1" stop-color="#3F464E"/>
</linearGradient>
</defs>
</svg>
