<svg width="40" height="40" viewBox="0 0 40 40" fill="none" xmlns="http://www.w3.org/2000/svg">
<rect width="40" height="40" rx="20" fill="#F4F1F0"/>
<path d="M13 25C13 26.6563 14.3438 28 16 28H24C25.625 28 27 26.6563 27 25V24H13V25ZM27.5 21H24.5V20H26.5C26.75 20 27 19.7813 27 19.5V19C27 18.75 26.75 18.5 26.5 18.5H24C23.4375 18.5 23 18.9688 23 19.5V21H21V15C21 14.4688 21.4375 14 22 14C22.5313 14 23 14.4688 23 15V15.5C23 15.7813 23.2188 16 23.5 16H24.5C24.75 16 25 15.7813 25 15.5V15C24.9688 13.3438 23.625 12 21.9688 12C21.7813 12 21.5938 12.0313 21.375 12.0625C19.9688 12.3438 19 13.6875 19 15.125V21H17V19.5C17 18.9688 16.5313 18.5 16 18.5H13.5C13.2188 18.5 13 18.75 13 19V19.5C13 19.7813 13.2188 20 13.5 20H15.5V21H12.5C12.2188 21 12 21.25 12 21.5V22.5C12 22.7813 12.2188 23 12.5 23H27.5C27.75 23 28 22.7813 28 22.5V21.5C28 21.25 27.75 21 27.5 21Z" fill="#06C864"/>
</svg>
