<svg width="40" height="40" viewBox="0 0 40 40" fill="none" xmlns="http://www.w3.org/2000/svg">
<rect width="40" height="40" rx="20" fill="#F4F1F0"/>
<path d="M19.8009 16.6331L14.038 21.3937V26.4989C14.038 26.7808 14.2573 27 14.5391 27H18.047C18.2975 27 18.5168 26.7808 18.5168 26.4989V23.4922C18.5168 23.2416 18.7673 22.9911 19.0179 22.9911H21.0224C21.3043 22.9911 21.5235 23.2416 21.5235 23.4922V26.4989C21.5235 26.7808 21.774 27 22.0246 27H25.5638C25.8143 27 26.0649 26.7808 26.0649 26.4989V21.3624L20.2707 16.6331C20.2081 16.5705 20.1141 16.5391 20.0515 16.5391C19.9575 16.5391 19.8635 16.5705 19.8009 16.6331ZM28.915 19.8591L26.3154 17.698V13.3758C26.3154 13.1566 26.1275 13 25.9396 13H24.1857C23.9664 13 23.8098 13.1566 23.8098 13.3758V15.6309L20.9911 13.3132C20.7405 13.1253 20.396 13 20.0515 13C19.6756 13 19.3311 13.1253 19.0805 13.3132L11.1566 19.8591C11.0626 19.9217 11 20.047 11 20.1409C11 20.2349 11.0626 20.3289 11.094 20.3915L11.9083 21.3624C11.9709 21.4564 12.0649 21.4877 12.1902 21.4877C12.2841 21.4877 12.3781 21.4564 12.4407 21.3937L19.8009 15.349C19.8635 15.2864 19.9575 15.255 20.0515 15.255C20.1141 15.255 20.2081 15.2864 20.2707 15.349L27.6309 21.3937C27.6935 21.4564 27.7875 21.4877 27.8814 21.4877C28.0067 21.4877 28.1007 21.4564 28.1633 21.3624L28.9776 20.3915C29.0403 20.3289 29.0716 20.2349 29.0716 20.1409C29.0716 20.047 29.0089 19.9217 28.915 19.8591Z" fill="#06C864"/>
</svg>
