<svg width="30" height="30" viewBox="0 0 30 30" fill="none" xmlns="http://www.w3.org/2000/svg">
<rect opacity="0.2" width="30" height="30" rx="15" fill="white"/>
<path d="M17.0769 17.1429C17.0769 17.3839 16.875 17.5714 16.6731 17.5714H14.25C14.0228 17.5714 13.8462 17.3839 13.8462 17.1429V15.8571H9V19.7143C9 20.4107 9.55529 21 10.2115 21H20.7115C21.3425 21 21.9231 20.4107 21.9231 19.7143V15.8571H17.0769V17.1429ZM20.7115 11.5714H18.6923V10.2857C18.6923 9.61607 18.1118 9 17.4808 9H13.4423C12.7861 9 12.2308 9.61607 12.2308 10.2857V11.5714H10.2115C9.55529 11.5714 9 12.1875 9 12.8571V15H21.9231V12.8571C21.9231 12.1875 21.3425 11.5714 20.7115 11.5714ZM17.0769 11.5714H13.8462V10.7143H17.0769V11.5714Z" fill="white"/>
</svg>
