<svg width="40" height="40" viewBox="0 0 40 40" fill="none" xmlns="http://www.w3.org/2000/svg">
<rect width="40" height="40" rx="15" fill="url(#paint0_linear)"/>
<path d="M22.903 21.1602C22.903 22.6893 21.6008 23.9333 20 23.9333C18.3992 23.9333 17.0975 22.6893 17.0975 21.1602C17.0975 19.6312 18.3992 18.3872 20 18.3872C21.6008 18.3872 22.903 19.6316 22.903 21.1602ZM29 17.2227V25.0987C29 26.1487 28.1088 27 27.0096 27H12.9904C11.8912 27 11 26.1487 11 25.0987V17.2227C11 16.1727 11.8912 15.3215 12.9904 15.3215H15.4385V14.6636C15.4385 13.7448 16.2178 13 17.1801 13H22.8199C23.7822 13 24.5615 13.7448 24.5615 14.6636V15.321H27.0096C28.1088 15.3215 29 16.1727 29 17.2227ZM24.3958 21.1602C24.3958 18.845 22.4238 16.9613 20 16.9613C17.5767 16.9613 15.6047 18.845 15.6047 21.1602C15.6047 23.4755 17.5767 25.3592 20 25.3592C22.4238 25.3592 24.3958 23.4755 24.3958 21.1602Z" fill="white"/>
<defs>
<linearGradient id="paint0_linear" x1="0.00451115" y1="0.0417617" x2="38.1867" y2="42.9785" gradientUnits="userSpaceOnUse">
<stop stop-color="#04D76A"/>
<stop offset="1" stop-color="#3F464E"/>
</linearGradient>
</defs>
</svg>
