<svg width="30" height="30" viewBox="0 0 30 30" fill="none" xmlns="http://www.w3.org/2000/svg">
<rect width="30" height="30" rx="10" fill="url(#paint0_linear)"/>
<path d="M21.8906 15.7031H17.8125C16.6488 15.7031 15.7031 16.6488 15.7031 17.8125V21.8906C15.7031 23.0543 16.6488 24 17.8125 24H21.8906C23.0543 24 24 23.0543 24 21.8906V17.8125C24 16.6488 23.0543 15.7031 21.8906 15.7031ZM22.5938 21.8906C22.5938 22.2773 22.2773 22.5938 21.8906 22.5938H17.8125C17.4258 22.5938 17.1094 22.2773 17.1094 21.8906V17.8125C17.1094 17.4258 17.4258 17.1094 17.8125 17.1094H21.8906C22.2773 17.1094 22.5938 17.4258 22.5938 17.8125V21.8906ZM12.1875 15.7031H8.10938C6.9457 15.7031 6 16.6488 6 17.8125V21.8906C6 23.0543 6.9457 24 8.10938 24H12.1875C13.3512 24 14.2969 23.0543 14.2969 21.8906V17.8125C14.2969 16.6488 13.3512 15.7031 12.1875 15.7031ZM12.8906 21.8906C12.8906 22.2773 12.5742 22.5938 12.1875 22.5938H8.10938C7.72266 22.5938 7.40625 22.2773 7.40625 21.8906V17.8125C7.40625 17.4258 7.72266 17.1094 8.10938 17.1094H12.1875C12.5742 17.1094 12.8906 17.4258 12.8906 17.8125V21.8906ZM12.1875 6H8.10938C6.9457 6 6 6.9457 6 8.10938V12.1875C6 13.3512 6.9457 14.2969 8.10938 14.2969H12.1875C13.3512 14.2969 14.2969 13.3512 14.2969 12.1875V8.10938C14.2969 6.9457 13.3512 6 12.1875 6ZM12.8906 12.1875C12.8906 12.5742 12.5742 12.8906 12.1875 12.8906H8.10938C7.72266 12.8906 7.40625 12.5742 7.40625 12.1875V8.10938C7.40625 7.72266 7.72266 7.40625 8.10938 7.40625H12.1875C12.5742 7.40625 12.8906 7.72266 12.8906 8.10938V12.1875ZM21.8906 6H17.8125C16.6488 6 15.7031 6.9457 15.7031 8.10938V12.1875C15.7031 13.3512 16.6488 14.2969 17.8125 14.2969H21.8906C23.0543 14.2969 24 13.3512 24 12.1875V8.10938C24 6.9457 23.0543 6 21.8906 6ZM22.5938 12.1875C22.5938 12.5742 22.2773 12.8906 21.8906 12.8906H17.8125C17.4258 12.8906 17.1094 12.5742 17.1094 12.1875V8.10938C17.1094 7.72266 17.4258 7.40625 17.8125 7.40625H21.8906C22.2773 7.40625 22.5938 7.72266 22.5938 8.10938V12.1875Z" fill="white"/>
<defs>
<linearGradient id="paint0_linear" x1="0.00338336" y1="0.0313212" x2="28.64" y2="32.2339" gradientUnits="userSpaceOnUse">
<stop stop-color="#04D76A"/>
<stop offset="1" stop-color="#3F464E"/>
</linearGradient>
</defs>
</svg>
