<svg width="18" height="15" viewBox="0 0 18 15" fill="none" xmlns="http://www.w3.org/2000/svg">
<path d="M7.25 6.68357C7.25 6.68357 4.43359 6.49216 2.79297 7.80466C2.19141 8.29685 1.69922 9.33591 1.28906 10.4844L2.92969 9.88279C3.09375 9.80076 3.23047 9.99216 3.12109 10.1289L0.550781 13.1914C0.332031 14.0937 0.25 14.7226 0.25 14.7226C0.25 14.7226 5.88281 15.0781 7.52344 13.7929C9.16406 12.4804 9.62891 9.66404 9.62891 9.66404L7.25 6.68357ZM17.6406 1.62498L17.0938 0.941383C16.957 0.749976 16.6836 0.695289 16.4922 0.859351L10.1211 5.72654L9.19141 4.55076C9.05469 4.35935 8.78125 4.41404 8.69922 4.60545L7.98828 6.10935L10.3672 9.08982L11.9805 8.73435C12.1992 8.70701 12.2812 8.43357 12.1445 8.26951L11.2148 7.09373L17.5586 2.22654C17.75 2.06248 17.8047 1.78904 17.6406 1.62498Z" fill="url(#paint0_linear)"/>
<defs>
<linearGradient id="paint0_linear" x1="0.251972" y1="0.776829" x2="12.9734" y2="18.6392" gradientUnits="userSpaceOnUse">
<stop stop-color="#04D76A"/>
<stop offset="1" stop-color="#3F464E"/>
</linearGradient>
</defs>
</svg>
