<svg width="24" height="21" viewBox="0 0 24 21" fill="none" xmlns="http://www.w3.org/2000/svg">
<path d="M20.7007 0H3.29934C1.47889 0 0 1.40666 0 3.13822V13.2669C0 14.9949 1.47513 16.398 3.28808 16.4051V21L10.2321 16.4051H20.7007C22.5211 16.4051 24 14.9985 24 13.2669V3.13822C24 1.40666 22.5174 0 20.7007 0ZM22.5924 13.2669C22.5924 14.2594 21.7441 15.0663 20.7007 15.0663H9.78918L4.6919 18.4402V15.0663H3.29934C2.25586 15.0663 1.40757 14.2594 1.40757 13.2669V3.13822C1.40757 2.1457 2.25586 1.33883 3.29934 1.33883H20.7007C21.7441 1.33883 22.5924 2.1457 22.5924 3.13822V13.2669ZM6.42227 4.72696H17.574V6.06579H6.42227V4.72696ZM6.42227 7.57957H17.574V8.9184H6.42227V7.57957ZM6.42227 10.4322H17.574V11.771H6.42227V10.4322Z" fill="#3F464E"/>
</svg>
