<svg width="40" height="40" viewBox="0 0 40 40" fill="none" xmlns="http://www.w3.org/2000/svg">
<rect width="40" height="40" rx="15" fill="#F4F1F0"/>
<path d="M21.6016 19.75L26.1406 15.2109C26.2773 15.0742 26.2773 14.8828 26.1406 14.7461C25.2383 13.8438 23.7891 13.8438 22.8867 14.7461L19.7422 17.918L19.0586 17.2344C19.168 16.9336 19.25 16.6055 19.25 16.25C19.25 14.8008 18.0742 13.625 16.625 13.625C15.1484 13.625 14 14.8008 14 16.25C14 17.7266 15.1484 18.875 16.625 18.875C16.7344 18.875 16.8438 18.875 16.9805 18.875L17.8828 19.75L16.9805 20.6523C16.8438 20.6523 16.7344 20.625 16.625 20.625C15.1484 20.625 14 21.8008 14 23.25C14 24.7266 15.1484 25.875 16.625 25.875C18.0742 25.875 19.25 24.7266 19.25 23.25C19.25 22.9219 19.168 22.5938 19.0586 22.293L19.7422 21.6094L22.8867 24.7812C23.7891 25.6836 25.2383 25.6836 26.1406 24.7812C26.2773 24.6445 26.2773 24.4531 26.1406 24.3164L21.6016 19.75ZM16.625 17.125C16.1328 17.125 15.75 16.7422 15.75 16.25C15.75 15.7852 16.1328 15.375 16.625 15.375C17.0898 15.375 17.5 15.7852 17.5 16.25C17.5 16.7422 17.0898 17.125 16.625 17.125ZM16.625 24.125C16.1328 24.125 15.75 23.7422 15.75 23.25C15.75 22.7852 16.1328 22.375 16.625 22.375C17.0898 22.375 17.5 22.7852 17.5 23.25C17.5 23.7422 17.0898 24.125 16.625 24.125Z" fill="#3F464E"/>
</svg>
