<svg width="10" height="15" viewBox="0 0 10 15" fill="none" xmlns="http://www.w3.org/2000/svg">
<path d="M2.8125 13.1914C2.8125 13.3555 2.83984 13.5195 2.94922 13.6836L3.41406 14.3672C3.57812 14.6133 3.85156 14.7773 4.15234 14.7773H5.82031C6.12109 14.7773 6.39453 14.6133 6.55859 14.3672L7.02344 13.6836C7.10547 13.5195 7.16016 13.3555 7.16016 13.1914V12.125H2.8125V13.1914ZM0.1875 5.5625C0.1875 6.79297 0.625 7.88672 1.36328 8.73438C1.82812 9.25391 2.51172 10.3477 2.78516 11.25C2.78516 11.25 2.78516 11.25 2.78516 11.2773H7.1875C7.1875 11.25 7.1875 11.25 7.1875 11.25C7.46094 10.3477 8.14453 9.25391 8.60938 8.73438C9.34766 7.88672 9.8125 6.79297 9.8125 5.5625C9.8125 2.91016 7.625 0.75 4.97266 0.75C2.18359 0.777344 0.1875 3.01953 0.1875 5.5625ZM5 3.375C3.76953 3.375 2.8125 4.35938 2.8125 5.5625C2.8125 5.80859 2.59375 6 2.375 6C2.12891 6 1.9375 5.80859 1.9375 5.5625C1.9375 3.89453 3.30469 2.5 5 2.5C5.21875 2.5 5.4375 2.71875 5.4375 2.9375C5.4375 3.18359 5.21875 3.375 5 3.375Z" fill="url(#paint0_linear)"/>
<defs>
<linearGradient id="paint0_linear" x1="0.188585" y1="0.764645" x2="13.2299" y2="10.8274" gradientUnits="userSpaceOnUse">
<stop stop-color="#04D76A"/>
<stop offset="1" stop-color="#3F464E"/>
</linearGradient>
</defs>
</svg>
