<svg width="20" height="21" viewBox="0 0 20 21" fill="none" xmlns="http://www.w3.org/2000/svg">
<path d="M10.01 20.02C7.36737 20.02 4.8048 18.979 2.96296 17.0571C1.04104 15.1351 0 12.6527 0 10.01C0 7.36737 1.04104 4.8048 2.96296 2.96296C4.88488 1.04104 7.36737 0 10.01 0C12.6527 0 15.2152 1.04104 17.0571 2.96296C20.981 6.88689 20.981 13.2132 17.0571 17.1371C15.2152 18.979 12.7327 20.02 10.01 20.02ZM10.01 0.960961C7.60761 0.960961 5.28528 1.92192 3.6036 3.6036C1.92192 5.28528 0.96096 7.60761 0.96096 10.01C0.96096 12.4124 1.92192 14.7347 3.6036 16.4164C5.28528 18.0981 7.60761 19.0591 10.01 19.0591C12.4124 19.0591 14.7347 18.0981 16.4164 16.4164C19.9399 12.8929 19.9399 7.12713 16.4164 3.6036C14.7347 1.84184 12.4925 0.960961 10.01 0.960961Z" fill="#3F464E"/>
<path d="M14.1745 11.5315C13.9343 11.4514 13.694 11.5315 13.5339 11.7717C12.9733 13.1331 11.5319 14.014 10.0104 14.014C8.40876 14.014 7.0474 13.1331 6.48684 11.7717C6.40676 11.5315 6.08644 11.4514 5.92628 11.5315C5.8462 11.6116 5.76612 11.6917 5.68604 11.7717C5.60596 11.8518 5.60596 12.012 5.68604 12.0921C6.40676 13.7737 8.08844 14.8949 10.0904 14.8949C12.0124 14.8949 13.694 13.7737 14.4148 12.0921C14.4948 11.8518 14.4148 11.6116 14.1745 11.5315Z" fill="#3F464E"/>
<path d="M12.8928 8.08793C12.4124 8.08793 12.012 7.68753 12.012 7.20705C12.012 6.72657 12.4124 6.32617 12.8928 6.32617C13.3733 6.32617 13.7737 6.72657 13.7737 7.20705C13.7737 7.68753 13.3733 8.08793 12.8928 8.08793Z" fill="#3F464E"/>
<path d="M7.36696 8.08793C6.88648 8.08793 6.48608 7.68753 6.48608 7.20705C6.48608 6.72657 6.88648 6.32617 7.36696 6.32617C7.84744 6.32617 8.24785 6.72657 8.24785 7.20705C8.24785 7.68753 7.84744 8.08793 7.36696 8.08793Z" fill="#3F464E"/>
</svg>
