<svg width="22" height="22" viewBox="0 0 22 22" fill="none" xmlns="http://www.w3.org/2000/svg">
<path d="M20.8832 15.3091L19.9301 14.2673C19.7778 14.0995 19.5278 14.0995 19.3794 14.2717C19.2271 14.4395 19.2271 14.715 19.3833 14.8786L20.3363 15.9204C20.4145 16.0022 20.5121 16.0452 20.6098 16.0452C20.7113 16.0452 20.809 16.0022 20.8871 15.9161C21.0394 15.7482 21.0394 15.477 20.8832 15.3091Z" fill="#3F464E" stroke="#3F464E" stroke-width="0.25"/>
<path d="M18.9599 13.1994C18.8076 13.0315 18.5615 13.0315 18.4092 13.1994C18.2568 13.3673 18.2568 13.6385 18.4092 13.8064C18.4873 13.8925 18.5849 13.9312 18.6865 13.9312C18.788 13.9312 18.8857 13.8882 18.9638 13.8064C19.1122 13.6428 19.1122 13.3673 18.9599 13.1994Z" fill="#3F464E" stroke="#3F464E" stroke-width="0.25"/>
<path d="M15.6286 15.1841L19.4174 11.0085C19.9916 10.3757 19.9916 9.34688 19.4174 8.71408C19.2143 8.49024 18.9682 8.34818 18.7065 8.27931C18.7963 8.06837 18.8432 7.83592 18.8432 7.59485C18.8432 7.16007 18.6909 6.75543 18.4136 6.44549C18.1948 6.20442 17.9214 6.04945 17.6246 5.99349C17.7925 5.42957 17.6753 4.78386 17.2691 4.33617C17.0465 4.0908 16.7692 3.94013 16.4801 3.88417C16.527 3.72059 16.5543 3.55271 16.5543 3.37621C16.5543 2.94143 16.402 2.53679 16.1247 2.22685C15.8474 1.92121 15.4763 1.75333 15.0818 1.75333C14.8318 1.75333 14.5936 1.8222 14.3787 1.95135L14.3397 1.9083C13.8475 1.33146 13.1562 1 12.4336 1H9.36745C9.15263 1 8.97686 1.19371 8.97686 1.43047V1.99439C8.97686 2.21824 9.01202 2.44209 9.07842 2.64871C8.90265 2.56692 8.71126 2.52388 8.51206 2.52388C8.11756 2.52388 7.7504 2.69176 7.46918 2.9974C7.06296 3.44509 6.94578 4.0908 7.11374 4.65472C6.8247 4.71068 6.54738 4.86135 6.32474 5.10672C6.04742 5.41235 5.89509 5.8213 5.89509 6.25608C5.89509 6.43257 5.92243 6.60046 5.9693 6.76404C5.67245 6.82 5.39904 6.97497 5.18031 7.21604C4.73113 7.71108 4.63348 8.44719 4.88737 9.04555C4.62176 9.11442 4.37569 9.26078 4.17649 9.48033C3.60232 10.1131 3.60232 11.142 4.17649 11.7747L4.95767 12.6357L1.11425 16.8586C0.961917 17.0265 0.961917 17.2977 1.11425 17.4656C1.19237 17.5517 1.29001 17.5904 1.39157 17.5904C1.49312 17.5904 1.59077 17.5474 1.66889 17.4656L5.54356 13.1953C5.76229 13.3331 6.01227 13.4062 6.27006 13.4062C6.66456 13.4062 7.03171 13.2384 7.31294 12.9327C7.6137 12.6013 7.75822 12.1579 7.74259 11.7188C7.76212 11.7188 7.78165 11.7188 7.80118 11.7188C8.17615 11.7188 8.55502 11.5595 8.84406 11.2453C9.12138 10.9396 9.27371 10.5307 9.27371 10.0959C9.27371 10.0744 9.27371 10.0529 9.27371 10.0313C9.29324 10.0313 9.31277 10.0313 9.3323 10.0313C9.71117 10.0313 10.0861 9.87206 10.3752 9.55781C10.6525 9.25218 10.8048 8.84323 10.8048 8.40845C10.8048 8.38692 10.8048 8.3654 10.8048 8.34388C10.8244 8.34388 10.8439 8.34388 10.8634 8.34388C11.2423 8.34388 11.6173 8.1846 11.9063 7.87036C12.4453 7.2763 12.4766 6.32926 12.0039 5.69646L14.5975 2.83812C14.7264 2.69607 14.9021 2.61428 15.0857 2.61428C15.2693 2.61428 15.4451 2.69176 15.574 2.83812C15.7029 2.98018 15.7771 3.17389 15.7771 3.37621C15.7771 3.57854 15.7068 3.77225 15.574 3.9143L15.1912 4.33617L13.8046 5.86435C13.6522 6.03223 13.6522 6.30343 13.8046 6.47132C13.8827 6.55741 13.9803 6.59615 14.0819 6.59615C14.1835 6.59615 14.2811 6.55311 14.3592 6.47132L15.7458 4.94314C16.0153 4.64611 16.4528 4.64611 16.7223 4.94314C16.9918 5.24016 16.9918 5.72229 16.7223 6.01932L16.3395 6.44118L15.3357 7.5475C15.1834 7.71538 15.1834 7.98658 15.3357 8.15447C15.4138 8.24056 15.5115 8.27931 15.613 8.27931C15.7146 8.27931 15.8122 8.23626 15.8903 8.15447L16.8942 7.04815C17.0231 6.9061 17.1988 6.82431 17.3824 6.82431C17.566 6.82431 17.7417 6.90179 17.8706 7.04815C17.9995 7.19021 18.0737 7.38392 18.0737 7.58624C18.0737 7.78857 18.0034 7.98228 17.8706 8.12433L17.3472 8.70117L16.8668 9.23065C16.7145 9.39854 16.7145 9.66973 16.8668 9.83762C16.9449 9.92371 17.0426 9.96246 17.1441 9.96246C17.2457 9.96246 17.3433 9.91941 17.4215 9.83762L17.9019 9.30814C18.1714 9.01111 18.6089 9.01111 18.8784 9.30814C19.1479 9.60516 19.1479 10.0873 18.8784 10.3843L15.0896 14.5599C14.1366 15.6103 12.875 16.2172 11.5274 16.2689C11.4298 16.2732 11.336 16.3162 11.2657 16.3937L7.76603 20.268C7.6137 20.4359 7.6137 20.7071 7.76603 20.875C7.84415 20.9567 7.94179 20.9998 8.04335 20.9998C8.1449 20.9998 8.24255 20.9567 8.32067 20.875L10.8947 18.0252C11.547 18.4858 12.3164 18.7097 13.1015 18.6494L15.117 20.8707C15.1951 20.9567 15.2927 20.9955 15.3943 20.9955C15.4958 20.9955 15.5935 20.9524 15.6716 20.8707C15.8239 20.7028 15.8239 20.4316 15.6716 20.2637L13.5273 17.9004C13.4452 17.81 13.332 17.7669 13.2187 17.7755L13.0937 17.7885C12.5234 17.8401 11.9571 17.7024 11.4649 17.3967L11.7149 17.1169C13.1835 17.0394 14.574 16.3464 15.6286 15.1841ZM6.7583 12.3258C6.6294 12.4678 6.45364 12.5496 6.27006 12.5496C6.08648 12.5496 5.91072 12.4721 5.78182 12.3258L4.72722 11.1635C4.45771 10.8665 4.45771 10.3843 4.72722 10.0873C4.85612 9.94524 5.03188 9.86345 5.21546 9.86345C5.39904 9.86345 5.57481 9.94093 5.7037 10.0873L6.7583 11.2496C7.02781 11.5466 7.02781 12.0287 6.7583 12.3258ZM8.28551 10.6426C8.01601 10.9396 7.57854 10.9396 7.30903 10.6426L6.25444 9.48033L5.73104 8.90349C5.46154 8.60646 5.46154 8.12433 5.73104 7.82731C5.85994 7.68525 6.03571 7.60346 6.21928 7.60346C6.40286 7.60346 6.57863 7.68095 6.70752 7.82731L8.28942 9.57073C8.41832 9.71278 8.49253 9.9065 8.49253 10.1088C8.49253 10.3111 8.41832 10.4962 8.28551 10.6426ZM9.81663 8.95515C9.54713 9.25218 9.10966 9.25218 8.84015 8.95515L6.87548 6.78987C6.74658 6.64781 6.67237 6.4541 6.67237 6.25178C6.67237 6.04945 6.74268 5.85574 6.87548 5.71368C7.00828 5.56732 7.18795 5.48984 7.36372 5.48984C7.53948 5.48984 7.71916 5.56302 7.85196 5.71368L8.74641 6.69947L9.81663 7.87896C9.94553 8.02102 10.0197 8.21473 10.0197 8.41706C10.0197 8.61938 9.94553 8.81309 9.81663 8.95515ZM11.3478 7.272C11.0782 7.56902 10.6408 7.56902 10.3713 7.272L8.4066 5.10672L8.02382 4.68485C7.75431 4.38783 7.75431 3.9057 8.02382 3.60867C8.15662 3.46231 8.33629 3.38482 8.51206 3.38482C8.68782 3.38482 8.8675 3.458 9.0003 3.60867L11.3438 6.19151C11.4727 6.33357 11.547 6.52728 11.547 6.7296C11.547 6.93623 11.4766 7.12564 11.3478 7.272ZM11.4493 5.0895L10.3752 3.9057C10.4963 3.93583 10.6213 3.94874 10.7501 3.94874C10.7541 3.94874 10.7541 3.94874 10.758 3.94874L11.8282 3.94444C12.043 3.94444 12.2188 3.75073 12.2188 3.51396C12.2188 3.2772 12.043 3.08349 11.8282 3.08349L10.758 3.0878H10.7541C10.4885 3.0878 10.2424 2.97587 10.0549 2.76925C9.86741 2.56262 9.76195 2.28712 9.76195 1.99439V1.86095H12.4375C12.9414 1.86095 13.4257 2.0934 13.7694 2.49805L13.785 2.51527L11.4493 5.0895Z" fill="#3F464E" stroke="#3F464E" stroke-width="0.25"/>
</svg>
