<svg width="15" height="15" viewBox="0 0 15 15" fill="none" xmlns="http://www.w3.org/2000/svg">
<path d="M7.5 0.96875C3.75391 0.96875 0.71875 4.03125 0.71875 7.75C0.71875 11.4961 3.75391 14.5312 7.5 14.5312C11.2188 14.5312 14.2812 11.4961 14.2812 7.75C14.2812 4.03125 11.2188 0.96875 7.5 0.96875ZM11.0547 4.19531C12.832 6 12.9688 8.73438 11.6016 10.6484L4.60156 3.64844C6.51562 2.28125 9.25 2.41797 11.0547 4.19531ZM3.91797 11.332C2.14062 9.52734 2.00391 6.79297 3.37109 4.87891L10.3711 11.8789C8.45703 13.2461 5.72266 13.1094 3.91797 11.332Z" fill="url(#paint0_linear)"/>
<defs>
<linearGradient id="paint0_linear" x1="0.72028" y1="0.98291" x2="13.6664" y2="15.5411" gradientUnits="userSpaceOnUse">
<stop stop-color="#04D76A"/>
<stop offset="1" stop-color="#3F464E"/>
</linearGradient>
</defs>
</svg>
