<svg width="30" height="30" viewBox="0 0 30 30" fill="none" xmlns="http://www.w3.org/2000/svg">
<path d="M0 10C0 4.47715 4.47715 0 10 0H20C25.5228 0 30 4.47715 30 10V20C30 25.5228 25.5228 30 20 30H10C4.47715 30 0 25.5228 0 20V10Z" fill="#04D76A" fill-opacity="0.1"/>
<path d="M8.97391 15.7976C10.1722 15.7976 11.1463 14.8269 11.1463 13.6329C11.1463 12.4389 10.1722 11.4683 8.97391 11.4683C7.77563 11.4683 6.80151 12.4389 6.80151 13.6329C6.80151 14.8269 7.77563 15.7976 8.97391 15.7976ZM8.97391 12.3333C9.69126 12.3333 10.2782 12.9181 10.2782 13.6329C10.2782 14.3477 9.69126 14.9325 8.97391 14.9325C8.25657 14.9325 7.66966 14.3477 7.66966 13.6329C7.66966 12.9181 8.25657 12.3333 8.97391 12.3333ZM21.0872 15.7976C22.2855 15.7976 23.2596 14.8269 23.2596 13.6329C23.2596 12.4389 22.2855 11.4683 21.0872 11.4683C19.8889 11.4683 18.9148 12.4389 18.9148 13.6329C18.9148 14.8269 19.8889 15.7976 21.0872 15.7976ZM21.0872 12.3333C21.8046 12.3333 22.3915 12.9181 22.3915 13.6329C22.3915 14.3477 21.8046 14.9325 21.0872 14.9325C20.3699 14.9325 19.783 14.3477 19.783 13.6329C19.783 12.9181 20.3658 12.3333 21.0872 12.3333ZM14.998 14.0634C16.6772 14.0634 18.0426 12.7029 18.0426 11.0297C18.0426 9.35645 16.6772 8 14.998 8C13.3187 8 11.9533 9.36051 11.9533 11.0337C11.9533 12.707 13.3228 14.0634 14.998 14.0634ZM14.998 8.86504C16.1962 8.86504 17.1704 9.83568 17.1704 11.0297C17.1704 12.2237 16.1962 13.1943 14.998 13.1943C13.7997 13.1943 12.8256 12.2237 12.8256 11.0297C12.8256 9.83974 13.7997 8.86504 14.998 8.86504ZM25 20.5614C25 20.801 24.8044 20.9959 24.5639 20.9959C24.3234 20.9959 24.1278 20.801 24.1278 20.5614C24.1278 18.8882 22.7624 17.5276 21.0831 17.5276C20.6756 17.5276 20.2721 17.6089 19.9012 17.7632C20.378 18.5876 20.647 19.542 20.647 20.5573C20.647 20.7969 20.4514 20.9919 20.2109 20.9919C19.9705 20.9919 19.7748 20.7969 19.7748 20.5573C19.7748 17.9297 17.6309 15.7935 14.9939 15.7935C12.3568 15.7935 10.217 17.9338 10.217 20.5614C10.217 20.801 10.0214 20.9959 9.78093 20.9959C9.54045 20.9959 9.34481 20.801 9.34481 20.5614C9.34481 19.5461 9.61789 18.5917 10.0907 17.7673C9.71979 17.6129 9.31628 17.5317 8.9087 17.5317C7.22947 17.5317 5.86407 18.8922 5.86407 20.5654C5.86407 20.8051 5.66843 21 5.42796 21C5.18749 21 5 20.801 5 20.5614C5 18.413 6.75667 16.6626 8.91278 16.6626C9.49562 16.6626 10.0703 16.7926 10.592 17.0403C11.6273 15.757 13.2168 14.9325 14.998 14.9325C16.7791 14.9325 18.3687 15.757 19.4039 17.0444C19.9256 16.7966 20.5003 16.6667 21.0831 16.6667C23.2433 16.6626 25 18.413 25 20.5614Z" fill="#3F464E"/>
</svg>
