<svg width="23" height="20" viewBox="0 0 23 20" fill="none" xmlns="http://www.w3.org/2000/svg">
<path d="M20.8575 2.85528H1.42764C0.639826 2.85528 0 2.2198 0 1.42764C0 0.635473 0.639826 0 1.42764 0H20.8575C21.6453 0 22.2851 0.639826 22.2851 1.42764C22.2851 2.21545 21.6453 2.85528 20.8575 2.85528ZM12.8575 11.4298H1.42764C0.639826 11.4298 0 10.79 0 9.99782C0 9.20566 0.639826 8.57019 1.42764 8.57019H12.8575C13.6453 8.57019 14.2851 9.21001 14.2851 9.99782C14.2851 10.7856 13.6453 11.4298 12.8575 11.4298ZM20.8575 11.4298H18.5724C17.7845 11.4298 17.1447 10.79 17.1447 10.0022C17.1447 9.21436 17.7845 8.57454 18.5724 8.57454H20.8575C21.6453 8.57454 22.2851 9.21436 22.2851 10.0022C22.2851 10.79 21.6453 11.4298 20.8575 11.4298ZM20.8575 20H1.42764C0.639826 20 0 19.3602 0 18.5724C0 17.7845 0.639826 17.1447 1.42764 17.1447H20.8575C21.6453 17.1447 22.2851 17.7845 22.2851 18.5724C22.2851 19.3602 21.6453 20 20.8575 20Z" fill="#3F464E"/>
</svg>
