<svg width="24" height="21" viewBox="0 0 24 21" fill="none" xmlns="http://www.w3.org/2000/svg">
<path d="M11.0719 20.6588C11.3297 20.8801 11.6578 21 12 21C12.3422 21 12.6703 20.8801 12.9281 20.6588C13.8984 19.8198 14.8359 19.036 15.6609 18.3445C18.0797 16.3205 20.1656 14.5686 21.6188 12.8443C23.2453 10.9172 24 9.09155 24 7.09528C24 5.15434 23.325 3.36553 22.0969 2.0562C20.8547 0.72843 19.1484 0 17.2969 0C15.9094 0 14.6437 0.42876 13.5187 1.28167C12.9562 1.71043 12.4453 2.236 11.9953 2.84918C11.5453 2.236 11.0344 1.71043 10.4719 1.28167C9.35625 0.42876 8.09062 0 6.70312 0C4.85156 0 3.14531 0.72843 1.90312 2.0562C0.675 3.36553 0 5.15434 0 7.09528C0 9.09155 0.754687 10.9172 2.38125 12.8443C3.83437 14.5686 5.92031 16.3205 8.33906 18.3445L8.34375 18.3491C9.16875 19.0406 10.1016 19.8244 11.0719 20.6588Z" fill="#3F464E"/>
</svg>
