<svg width="24" height="21" viewBox="0 0 24 21" fill="none" xmlns="http://www.w3.org/2000/svg">
<path d="M12 21C11.6578 21 11.3297 20.8801 11.0719 20.6588C10.1016 19.8244 9.16875 19.0406 8.34375 18.3491L8.33906 18.3445C5.92031 16.3205 3.83437 14.5686 2.38125 12.8443C0.754687 10.9172 0 9.09155 0 7.09528C0 5.15434 0.675 3.36553 1.90312 2.0562C3.14531 0.72843 4.85156 0 6.70312 0C8.09062 0 9.35625 0.42876 10.4719 1.28167C11.0344 1.71043 11.5453 2.236 11.9953 2.84918C12.4453 2.236 12.9562 1.71043 13.5187 1.28167C14.6437 0.42876 15.9094 0 17.2969 0C19.1484 0 20.8547 0.72843 22.0969 2.0562C23.325 3.36553 24 5.15434 24 7.09528C24 9.09155 23.2453 10.9172 21.6188 12.8443C20.1656 14.5686 18.0797 16.3205 15.6609 18.3445C14.8359 19.036 13.8984 19.8198 12.9281 20.6588C12.6703 20.8801 12.3422 21 12 21ZM6.70312 1.3831C5.25 1.3831 3.90938 1.95478 2.93906 2.9921C1.95 4.04786 1.40625 5.50472 1.40625 7.09528C1.40625 8.77344 2.03906 10.2764 3.46406 11.9638C4.8375 13.5958 6.88594 15.3109 9.25312 17.2933L9.25781 17.2979C10.0875 17.9941 11.025 18.7778 12 19.6169C12.9844 18.7732 13.9219 17.9895 14.7516 17.2933C17.1188 15.3063 19.1625 13.5958 20.5406 11.9638C21.9609 10.2764 22.5984 8.77344 22.5984 7.09528C22.5984 5.50472 22.0547 4.04786 21.0656 2.9921C20.0906 1.95478 18.75 1.3831 17.2969 1.3831C16.2281 1.3831 15.2484 1.71504 14.3859 2.37431C13.6172 2.95982 13.0781 3.70209 12.7641 4.21844C12.6 4.48584 12.3188 4.64259 12 4.64259C11.6812 4.64259 11.4 4.48123 11.2359 4.21844C10.9219 3.70209 10.3828 2.95982 9.61406 2.37431C8.75156 1.71504 7.77187 1.3831 6.70312 1.3831Z" fill="#3F464E"/>
</svg>
