<svg width="27" height="27" viewBox="0 0 27 27" fill="none" xmlns="http://www.w3.org/2000/svg">
<path fill-rule="evenodd" clip-rule="evenodd" d="M25.8299 14.3648C25.6031 14.5999 25.2347 14.5999 25.0079 14.3648L19.6871 8.86283C19.649 8.83143 19.6163 8.79758 19.5859 8.75757L17.3062 6.40055C17.2681 6.36916 17.2354 6.3353 17.205 6.29529L13.4997 2.46338L1.9921 14.3648C1.76532 14.5999 1.39687 14.5999 1.17009 14.3648C0.943304 14.1302 0.943304 13.7492 1.17009 13.5147L13.0182 1.26179C13.0366 1.23286 13.0497 1.19962 13.0741 1.17315C13.1914 1.0525 13.3461 0.99648 13.4997 1.00017C13.6533 0.99648 13.808 1.05188 13.9253 1.17315C13.9509 1.199 13.9622 1.23224 13.9824 1.26179L17.0711 4.4572V2.84503C17.0711 2.50524 17.3372 2.22946 17.6663 2.22946H20.0472C20.2121 2.22946 20.3609 2.29841 20.4681 2.40982C20.5764 2.52124 20.6425 2.67513 20.6425 2.84503V8.15061L25.8299 13.5147C26.0567 13.7492 26.0567 14.1302 25.8299 14.3648ZM19.452 3.4606H18.2616V5.68834L19.452 6.91948V3.4606ZM5.16647 13.3097C5.49504 13.3097 5.7617 13.5855 5.7617 13.9253V23.5377C5.7617 24.2179 6.29503 24.7689 6.95216 24.7689H10.5235V18.8498C10.5235 18.5094 10.7896 18.2342 11.1188 18.2342H15.8806C16.2098 18.2342 16.4759 18.5094 16.4759 18.8498V24.7689H20.0472C20.705 24.7689 21.2377 24.2179 21.2377 23.5377V13.9253C21.2377 13.5855 21.5038 13.3097 21.8329 13.3097C22.1621 13.3097 22.4282 13.5855 22.4282 13.9253V23.5377C22.4282 24.8975 21.3621 26 20.0472 26H6.95216C5.6373 26 4.57124 24.8975 4.57124 23.5377V13.9253C4.57124 13.5849 4.8379 13.3097 5.16647 13.3097ZM15.2854 24.7682V19.4648H11.714V24.7682H15.2854Z" fill="#3F464E" stroke="#3F464E" stroke-width="0.7"/>
</svg>
