<svg width="14" height="14" viewBox="0 0 14 14" fill="none" xmlns="http://www.w3.org/2000/svg">
<path d="M12.6875 3.25H10.5V1.9375C10.5 1.22656 9.89844 0.625 9.1875 0.625H4.8125C4.07422 0.625 3.5 1.22656 3.5 1.9375V3.25H1.3125C0.574219 3.25 0 3.85156 0 4.5625V12.4375C0 13.1758 0.574219 13.75 1.3125 13.75H12.6875C13.3984 13.75 14 13.1758 14 12.4375V4.5625C14 3.85156 13.3984 3.25 12.6875 3.25ZM5.25 2.375H8.75V3.25H5.25V2.375ZM9.625 9.15625C9.625 9.29297 9.51562 9.375 9.40625 9.375H7.875V10.9062C7.875 11.043 7.76562 11.125 7.65625 11.125H6.34375C6.20703 11.125 6.125 11.043 6.125 10.9062V9.375H4.59375C4.45703 9.375 4.375 9.29297 4.375 9.15625V7.84375C4.375 7.73438 4.45703 7.625 4.59375 7.625H6.125V6.09375C6.125 5.98438 6.20703 5.875 6.34375 5.875H7.65625C7.76562 5.875 7.875 5.98438 7.875 6.09375V7.625H9.40625C9.51562 7.625 9.625 7.73438 9.625 7.84375V9.15625Z" fill="url(#paint0_linear)"/>
<defs>
<linearGradient id="paint0_linear" x1="0.0015789" y1="0.638703" x2="12.4106" y2="15.5232" gradientUnits="userSpaceOnUse">
<stop stop-color="#04D76A"/>
<stop offset="1" stop-color="#3F464E"/>
</linearGradient>
</defs>
</svg>
