<svg width="14" height="15" viewBox="0 0 14 15" fill="none" xmlns="http://www.w3.org/2000/svg">
<path d="M12.9063 10.2109L11.9766 9.66406L12.6875 9.47266C12.9063 9.41797 13.043 9.17188 12.9883 8.95312L12.8789 8.54297C12.8242 8.32422 12.5781 8.1875 12.3594 8.24219L10.418 8.76172L8.66799 7.75L10.418 6.76562L12.3594 7.28516C12.5781 7.33984 12.8242 7.20312 12.8789 6.98438L12.9883 6.57422C13.043 6.35547 12.9063 6.10938 12.6875 6.05469L11.9766 5.86328L12.9063 5.31641C13.0977 5.20703 13.1797 4.96094 13.043 4.74219L12.6328 4.00391C12.5235 3.8125 12.25 3.75781 12.0586 3.86719L11.1289 4.38672L11.3203 3.67578C11.375 3.45703 11.2383 3.23828 11.0196 3.15625L10.6094 3.04688C10.3906 2.99219 10.1719 3.12891 10.0899 3.34766L9.57033 5.28906L7.87502 6.27344V4.16797L9.32424 2.69141C9.4883 2.52734 9.4883 2.25391 9.32424 2.0625L9.02346 1.76172C8.8594 1.59766 8.58596 1.59766 8.39455 1.76172L7.87502 2.30859V1.1875C7.87502 0.96875 7.65627 0.75 7.43752 0.75H6.56252C6.31643 0.75 6.12502 0.96875 6.12502 1.1875V2.30859L5.57815 1.76172C5.41408 1.59766 5.1133 1.59766 4.94924 1.76172L4.64846 2.0625C4.4844 2.25391 4.4844 2.52734 4.64846 2.69141L6.12502 4.16797V6.27344L4.40236 5.28906L3.88283 3.34766C3.82815 3.12891 3.58205 2.99219 3.3633 3.04688L2.95315 3.15625C2.7344 3.23828 2.59768 3.45703 2.65236 3.67578L2.84377 4.38672L1.91408 3.86719C1.72268 3.73047 1.44924 3.8125 1.33986 4.00391L0.929707 4.74219C0.792989 4.96094 0.87502 5.20703 1.06643 5.31641L1.99611 5.86328L1.28518 6.05469C1.06643 6.10938 0.929707 6.32812 0.984395 6.57422L1.09377 6.98438C1.14846 7.20312 1.39455 7.33984 1.6133 7.28516L3.55471 6.76562L5.30471 7.75L3.55471 8.76172L1.6133 8.24219C1.39455 8.1875 1.14846 8.32422 1.09377 8.54297L0.984395 8.95312C0.929707 9.17188 1.06643 9.41797 1.28518 9.47266L1.99611 9.66406L1.06643 10.2109C0.87502 10.3203 0.792989 10.5664 0.929707 10.7852L1.33986 11.5234C1.44924 11.7148 1.72268 11.7695 1.91408 11.6602L2.84377 11.1406L2.65236 11.8516C2.59768 12.0703 2.7344 12.2891 2.95315 12.3711L3.3633 12.4805C3.58205 12.5352 3.8008 12.3984 3.88283 12.1797L4.40236 10.2383L6.09768 9.25391V11.3594L4.64846 12.8359C4.45705 13 4.45705 13.2734 4.64846 13.4648L4.94924 13.7656C5.1133 13.9297 5.38674 13.9297 5.57815 13.7656L6.09768 13.2188V14.3125C6.09768 14.5586 6.31643 14.75 6.53518 14.75H7.41018C7.65627 14.75 7.84768 14.5586 7.84768 14.3125V13.2188L8.39455 13.7656C8.55861 13.9297 8.83205 13.9297 9.02346 13.7656L9.32424 13.4375C9.4883 13.2734 9.4883 13 9.32424 12.8359L7.87502 11.3594V9.25391L9.57033 10.2383L10.0899 12.1797C10.1719 12.3984 10.3906 12.5352 10.6094 12.4805L11.0196 12.3711C11.2383 12.2891 11.375 12.0703 11.3203 11.8516L11.1289 11.1406L12.0586 11.6602C12.25 11.7695 12.5235 11.7148 12.6328 11.4961L13.043 10.7852C13.1797 10.5664 13.0977 10.3203 12.9063 10.2109Z" fill="url(#paint0_linear)"/>
<defs>
<linearGradient id="paint0_linear" x1="0.863198" y1="0.764617" x2="14.3173" y2="14.0019" gradientUnits="userSpaceOnUse">
<stop stop-color="#04D76A"/>
<stop offset="1" stop-color="#3F464E"/>
</linearGradient>
</defs>
</svg>
