<svg width="22" height="20" viewBox="0 0 22 20" fill="none" xmlns="http://www.w3.org/2000/svg">
<path d="M14.3106 17.1553C14.1382 17.1553 13.8795 16.9829 13.7933 16.8105C13.7071 16.638 13.7933 16.3794 13.9658 16.2932C14.1382 16.1208 14.3968 16.1208 14.5692 16.207C14.7416 16.2932 14.8278 16.5518 14.8278 16.7243C14.7416 16.9829 14.5692 17.1553 14.3106 17.1553Z" fill="#3F464E"/>
<path d="M8.87945 8.18955C7.41393 8.18955 6.20703 6.98266 6.20703 5.51714C6.20703 4.05162 7.41393 2.84473 8.87945 2.84473C10.345 2.84473 11.5519 4.05162 11.5519 5.51714C11.5519 6.98266 10.345 8.18955 8.87945 8.18955ZM8.87945 3.793C7.93117 3.793 7.24151 4.56886 7.24151 5.43093C7.24151 6.293 8.01738 7.06886 8.87945 7.06886C9.82772 7.06886 10.5174 6.293 10.5174 5.43093C10.5174 4.56886 9.82772 3.793 8.87945 3.793Z" fill="#3F464E"/>
<path d="M19.2241 0H2.32759C1.03448 0 0 1.03448 0 2.32759V17.6724C0 18.9655 1.03448 20 2.32759 20H19.3103C20.6034 20 21.6379 18.9655 21.6379 17.6724V2.32759C21.5517 1.03448 20.5172 0 19.2241 0ZM20.5172 17.6724C20.5172 18.3621 19.9138 18.9655 19.2241 18.9655H2.32759C1.63793 18.9655 1.03448 18.3621 1.03448 17.6724V17.1552H11.9828C12.2414 17.1552 12.5 16.8966 12.5 16.6379C12.5 16.3793 12.2414 16.1207 11.9828 16.1207H8.01724L13.7069 9.65517L19.3965 16.1207H16.6379C16.3793 16.1207 16.1207 16.3793 16.1207 16.6379C16.1207 16.8966 16.3793 17.1552 16.6379 17.1552H20.6034V17.6724H20.5172ZM2.15517 16.1207L6.98276 10.9483L9.13793 13.2759L6.63793 16.1207H2.15517ZM20.5172 15.9483L14.0517 8.62069C13.9655 8.53448 13.7931 8.44828 13.7069 8.44828C13.5345 8.44828 13.4483 8.53448 13.3621 8.62069L9.91379 12.5L7.41379 9.82759C7.32759 9.74138 7.15517 9.65517 7.06896 9.65517C6.89655 9.65517 6.81034 9.74138 6.72414 9.82759L1.12069 15.8621V2.32759C1.12069 1.63793 1.72414 1.03448 2.41379 1.03448H19.3965C20.0862 1.03448 20.6897 1.63793 20.6897 2.32759V15.9483H20.5172Z" fill="#3F464E"/>
</svg>
