<svg width="15" height="13" viewBox="0 0 15 13" fill="none" xmlns="http://www.w3.org/2000/svg">
<path d="M9.25 8.9375C9.25 9.18359 9.03125 9.375 8.8125 9.375H6.1875C5.94141 9.375 5.75 9.18359 5.75 8.9375V7.625H0.5V11.5625C0.5 12.2734 1.10156 12.875 1.8125 12.875H13.1875C13.8711 12.875 14.5 12.2734 14.5 11.5625V7.625H9.25V8.9375ZM13.1875 3.25H11V1.9375C11 1.25391 10.3711 0.625 9.6875 0.625H5.3125C4.60156 0.625 4 1.25391 4 1.9375V3.25H1.8125C1.10156 3.25 0.5 3.87891 0.5 4.5625V6.75H14.5V4.5625C14.5 3.87891 13.8711 3.25 13.1875 3.25ZM9.25 3.25H5.75V2.375H9.25V3.25Z" fill="url(#paint0_linear)"/>
<defs>
<linearGradient id="paint0_linear" x1="0.501579" y1="0.63779" x2="11.9144" y2="15.3052" gradientUnits="userSpaceOnUse">
<stop stop-color="#04D76A"/>
<stop offset="1" stop-color="#3F464E"/>
</linearGradient>
</defs>
</svg>
