<svg width="16" height="15" viewBox="0 0 16 15" fill="none" xmlns="http://www.w3.org/2000/svg">
<path d="M8 14.2222C7.77187 14.2222 7.55312 14.141 7.38125 13.9912C6.73438 13.426 6.1125 12.8952 5.5625 12.4269L5.55937 12.4238C3.94687 11.0531 2.55625 9.86657 1.5875 8.69882C0.503125 7.39368 0 6.15724 0 4.80527C0 3.49077 0.45 2.2793 1.26875 1.39256C2.09687 0.493328 3.23438 0 4.46875 0C5.39375 0 6.2375 0.290377 6.98125 0.868008C7.35625 1.15839 7.69687 1.51433 7.99687 1.9296C8.29688 1.51433 8.6375 1.15839 9.0125 0.868008C9.7625 0.290377 10.6062 0 11.5312 0C12.7656 0 13.9031 0.493328 14.7312 1.39256C15.55 2.2793 16 3.49077 16 4.80527C16 6.15724 15.4969 7.39368 14.4125 8.69882C13.4438 9.86657 12.0531 11.0531 10.4406 12.4238C9.89062 12.8921 9.26562 13.4229 8.61875 13.9912C8.44687 14.141 8.22812 14.2222 8 14.2222ZM4.46875 0.9367C3.5 0.9367 2.60625 1.32387 1.95938 2.02639C1.3 2.74141 0.9375 3.72806 0.9375 4.80527C0.9375 5.9418 1.35938 6.95968 2.30938 8.10245C3.225 9.20776 4.59062 10.3693 6.16875 11.7119L6.17188 11.715C6.725 12.1865 7.35 12.7173 8 13.2855C8.65625 12.7141 9.28125 12.1833 9.83438 11.7119C11.4125 10.3661 12.775 9.20776 13.6938 8.10245C14.6406 6.95968 15.0656 5.9418 15.0656 4.80527C15.0656 3.72806 14.7031 2.74141 14.0437 2.02639C13.3938 1.32387 12.5 0.9367 11.5312 0.9367C10.8188 0.9367 10.1656 1.16151 9.59062 1.608C9.07812 2.00454 8.71875 2.50723 8.50937 2.85693C8.4 3.03803 8.2125 3.14419 8 3.14419C7.7875 3.14419 7.6 3.03491 7.49062 2.85693C7.28125 2.50723 6.92188 2.00454 6.40938 1.608C5.83438 1.16151 5.18125 0.9367 4.46875 0.9367Z" fill="#3F464E"/>
</svg>
