<svg width="16" height="15" viewBox="0 0 16 15" fill="none" xmlns="http://www.w3.org/2000/svg">
<path d="M13.8004 0H2.19956C0.985924 0 0 0.952662 0 2.12535V8.985C0 10.1553 0.983422 11.1055 2.19205 11.1104V14.2222L6.82139 11.1104H13.8004C15.0141 11.1104 16 10.1577 16 8.985V2.12535C16 0.952662 15.0116 0 13.8004 0ZM15.0616 8.985C15.0616 9.65718 14.4961 10.2036 13.8004 10.2036H6.52612L3.12793 12.4886V10.2036H2.19956C1.50391 10.2036 0.93838 9.65718 0.93838 8.985V2.12535C0.93838 1.45317 1.50391 0.906721 2.19956 0.906721H13.8004C14.4961 0.906721 15.0616 1.45317 15.0616 2.12535V8.985ZM4.28151 3.20133H11.716V4.10805H4.28151V3.20133ZM4.28151 5.13325H11.716V6.03997H4.28151V5.13325ZM4.28151 7.06517H11.716V7.97189H4.28151V7.06517Z" fill="#3F464E"/>
</svg>
