<svg width="16" height="15" viewBox="0 0 16 15" fill="none" xmlns="http://www.w3.org/2000/svg">
<path d="M15.8031 4.82853L9.17813 0.0874337C9.03438 -0.0137097 8.84688 -0.0295134 8.69063 0.0526656C8.53438 0.134845 8.4375 0.296042 8.4375 0.473043V2.85623C6.23438 2.97002 4.18125 3.89295 2.60938 5.4828C0.925 7.18327 0 9.44636 0 11.8517V13.7481C0 14.0105 0.2125 14.2222 0.46875 14.2222C0.675 14.2222 0.8625 14.0831 0.91875 13.8777L0.990625 13.6217C1.95312 10.2207 4.975 7.79962 8.4375 7.59733V9.95524C8.4375 10.1322 8.53438 10.2934 8.69063 10.3756C8.84688 10.4578 9.03438 10.4451 9.17813 10.3408L15.8031 5.59975C15.9281 5.51125 16 5.36585 16 5.21414C16 5.06242 15.925 4.91703 15.8031 4.82853ZM9.375 9.03862V7.11058C9.375 6.84824 9.16562 6.63647 8.90625 6.63647C7.9 6.63647 6.90937 6.80083 5.95937 7.12638C3.81562 7.86283 2.05 9.36418 0.95625 11.2859C1.24375 7.10426 4.7 3.79181 8.90625 3.79181C9.16562 3.79181 9.375 3.58004 9.375 3.3177V1.38965L14.7188 5.21414L9.375 9.03862Z" fill="#3F464E"/>
</svg>
