<svg width="12" height="15" viewBox="0 0 12 15" fill="none" xmlns="http://www.w3.org/2000/svg">
<path d="M11.0859 11.1133L8.89839 8.625H9.74605C9.99214 8.625 10.2109 8.48828 10.2929 8.26953C10.4023 8.05078 10.375 7.80469 10.2109 7.61328L8.07808 5.125H8.87105C9.11714 5.125 9.33589 4.98828 9.44526 4.76953C9.5273 4.55078 9.49995 4.27734 9.30855 4.11328L6.30073 0.886719C6.13667 0.722656 5.83589 0.722656 5.67183 0.886719L2.66401 4.11328C2.47261 4.27734 2.44526 4.55078 2.52729 4.76953C2.63667 4.98828 2.85542 5.125 3.10151 5.125H3.89448L1.76167 7.61328C1.59761 7.80469 1.57026 8.05078 1.67964 8.26953C1.76167 8.48828 1.98042 8.625 2.22651 8.625H3.07417L0.88667 11.1133C0.722607 11.3047 0.695264 11.5508 0.804639 11.7695C0.88667 11.9883 1.13276 12.125 1.37886 12.125H5.12495V12.8086L4.27729 14.1211C4.14058 14.4219 4.35933 14.7773 4.68745 14.7773H7.28511C7.61323 14.7773 7.83198 14.4219 7.69526 14.1211L6.87495 12.8086V12.125H10.5937C10.8398 12.125 11.0859 11.9883 11.1679 11.7695C11.2773 11.5508 11.25 11.3047 11.0859 11.1133Z" fill="url(#paint0_linear)"/>
<defs>
<linearGradient id="paint0_linear" x1="0.740197" y1="0.778303" x2="14.0128" y2="11.9556" gradientUnits="userSpaceOnUse">
<stop stop-color="#04D76A"/>
<stop offset="1" stop-color="#3F464E"/>
</linearGradient>
</defs>
</svg>
