<svg width="107" height="51" viewBox="0 0 107 51" fill="none" xmlns="http://www.w3.org/2000/svg">
<path d="M14.7941 0.0554443C14.3211 -0.457587 15.4021 2.6206 11.2808 8.00744C11.2808 8.00744 2.70036 17.4985 2.0923 18.4605C1.14642 19.9354 -1.35339 23.4625 0.943737 30.3884C0.943737 30.3884 1.28155 28.1439 3.84893 24.4244C4.65968 23.206 5.60555 22.1158 6.68655 21.0256L14.5914 13.0095C15.1994 12.4323 15.6724 11.7269 16.0777 11.0215C17.2939 8.84111 18.8478 4.48034 14.7941 0.0554443ZM24.6582 19.6789C24.4555 19.2941 24.8609 21.7952 22.5638 24.4244C16.6858 31.2221 12.024 32.8895 9.79443 34.7492C9.59174 34.9416 9.25393 34.8775 9.05124 34.6851C8.91612 34.5568 8.91612 34.3644 8.98368 34.1721C9.79443 32.1841 10.8754 30.2602 12.2942 28.5928L21.6179 18.1398L21.753 17.9474C22.5638 16.8572 26.2797 11.278 21.2125 5.76292C20.7396 5.24989 21.8206 8.32808 17.6993 13.7149C17.6993 13.7149 9.18637 23.206 8.51074 24.1679C7.15949 26.0918 -2.09658 34.9416 6.75412 50.0119C6.75412 50.0119 6.68655 49.1782 6.61899 47.8956C6.55143 46.1 7.22705 44.4327 8.37562 43.0219C9.79443 41.4186 11.4835 40.0078 13.2401 38.7893C15.6048 37.1861 19.7937 34.3003 22.3611 32.1199C25.2663 29.8754 27.5634 25.3864 24.6582 19.6789Z" fill="url(#paint0_linear_1732_11435)"/>
<path d="M34.1493 23.4096H32.0059V19.5269H34.1493V18.6024C34.1493 13.9801 36.8601 11.8847 42.2186 12.0079V16.0139C39.8861 15.9523 39.0665 16.6919 39.0665 18.7873V19.5885H42.4077V23.4712H39.0665V38.2626H34.1493V23.4096ZM43.4794 13.2406H48.3336V38.1393H43.4794V13.2406ZM69.0112 38.201H64.157V35.859C62.9593 37.4614 60.8789 38.4475 58.4833 38.4475C54.0074 38.4475 50.8553 35.6125 50.8553 30.4971V19.5269H55.7095V29.8192C55.7095 32.8391 57.4116 34.4415 59.9333 34.4415C62.581 34.4415 64.2201 32.8391 64.2201 29.8192V19.5269H69.0743V38.201H69.0112ZM78.9718 38.5091C74.1806 38.5091 70.8394 35.7974 70.6503 32.2844H75.5045C75.6936 33.7019 77.0175 34.7497 78.9718 34.7497C80.863 34.7497 81.8717 33.8868 81.8717 32.8391C81.8717 29.511 71.0916 31.6065 71.0916 24.7655C71.0916 21.684 73.9285 19.1571 78.6566 19.1571C83.2586 19.1571 86.0955 21.6223 86.3477 25.3202H81.7456C81.6195 23.841 80.4218 22.9166 78.5305 22.9166C76.7654 22.9166 75.8197 23.5945 75.8197 24.7039C75.8197 28.0935 86.4107 25.9981 86.5368 32.8391C86.5368 36.0439 83.6369 38.5091 78.9718 38.5091ZM88.428 13.2406H93.2822V21.8688C94.5431 20.2664 96.6865 19.2804 99.2081 19.2804C103.495 19.2804 106.647 22.1154 106.647 27.2923V38.2626H101.793V27.9086C101.793 24.8887 100.091 23.2863 97.5691 23.2863C94.9213 23.2863 93.2822 24.8887 93.2822 27.9086V38.201H88.428V13.2406Z" fill="#3F464E"/>
<defs>
<linearGradient id="paint0_linear_1732_11435" x1="14.0506" y1="7.91855" x2="45.1537" y2="34.6956" gradientUnits="userSpaceOnUse">
<stop stop-color="#04D76A"/>
<stop offset="1" stop-color="#3F464E"/>
</linearGradient>
</defs>
</svg>
