<svg width="17" height="15" viewBox="0 0 17 15" fill="none" xmlns="http://www.w3.org/2000/svg">
<path d="M16.5391 4.00391L14.7618 1.16016C14.5977 0.914062 14.3243 0.75 14.0235 0.75H2.9766C2.67582 0.75 2.37504 0.914062 2.21098 1.16016L0.460978 4.00391C-0.46871 5.48047 0.351603 7.50391 2.04692 7.72266C2.18363 7.75 2.29301 7.75 2.42973 7.75C3.25004 7.75 3.96098 7.39453 4.45317 6.84766C4.94535 7.39453 5.65629 7.75 6.4766 7.75C7.26957 7.75 7.98051 7.39453 8.4727 6.84766C8.96488 7.39453 9.70317 7.75 10.4961 7.75C11.3164 7.75 12.0274 7.39453 12.5196 6.84766C13.0118 7.39453 13.7227 7.75 14.543 7.75C14.6797 7.75 14.7891 7.75 14.9258 7.72266C16.6211 7.50391 17.4414 5.48047 16.5391 4.00391ZM14.543 8.625C14.2696 8.625 13.9961 8.59766 13.75 8.54297V11.25H3.25004V8.54297C2.9766 8.59766 2.70317 8.625 2.42973 8.625C2.26567 8.625 2.1016 8.625 1.93754 8.59766C1.77348 8.57031 1.63676 8.54297 1.50004 8.51562V13.875C1.50004 14.3672 1.88285 14.75 2.37504 14.75H14.625C15.0899 14.75 15.5 14.3672 15.5 13.875V8.51562C15.336 8.54297 15.1993 8.59766 15.0352 8.59766C14.8711 8.625 14.7071 8.625 14.543 8.625Z" fill="url(#paint0_linear)"/>
<defs>
<linearGradient id="paint0_linear" x1="0.0741646" y1="0.764617" x2="12.9391" y2="18.1644" gradientUnits="userSpaceOnUse">
<stop stop-color="#04D76A"/>
<stop offset="1" stop-color="#3F464E"/>
</linearGradient>
</defs>
</svg>
