<svg width="19" height="14" viewBox="0 0 19 14" fill="none" xmlns="http://www.w3.org/2000/svg">
<path d="M16.9167 0H1.75C0.765625 0 0 0.802083 0 1.75V12.25C0 13.2344 0.765625 14 1.75 14H16.9167C17.8646 14 18.6667 13.2344 18.6667 12.25V1.75C18.6667 0.802083 17.8646 0 16.9167 0ZM16.9167 1.75V3.24479C16.0781 3.9375 14.7656 4.95833 11.9948 7.14583C11.375 7.61979 10.1719 8.78646 9.33333 8.75C8.45833 8.78646 7.25521 7.61979 6.63542 7.14583C3.86458 4.95833 2.55208 3.9375 1.75 3.24479V1.75H16.9167ZM1.75 12.25V5.50521C2.55208 6.16146 3.75521 7.10938 5.54167 8.53125C6.34375 9.15104 7.76562 10.5365 9.33333 10.5C10.8646 10.5365 12.25 9.15104 13.0885 8.53125C14.875 7.10938 16.0781 6.16146 16.9167 5.50521V12.25H1.75Z" fill="url(#paint0_linear_1732_11520)"/>
<defs>
<linearGradient id="paint0_linear_1732_11520" x1="0.0021052" y1="0.0146166" x2="12.425" y2="18.641" gradientUnits="userSpaceOnUse">
<stop stop-color="#04D76A"/>
<stop offset="1" stop-color="#3F464E"/>
</linearGradient>
</defs>
</svg>
