<svg width="18" height="15" viewBox="0 0 18 15" fill="none" xmlns="http://www.w3.org/2000/svg">
<path d="M6.375 9.5H7.25V3.375H6.375C5.88281 3.375 5.5 3.78516 5.5 4.25V8.625C5.5 9.11719 5.88281 9.5 6.375 9.5ZM16 8.625V4.25C16 3.78516 15.5898 3.375 15.125 3.375H14.25V9.5H15.125C15.5898 9.5 16 9.11719 16 8.625ZM17.3125 11.25H3.75V1.1875C3.75 0.96875 3.53125 0.75 3.3125 0.75H0.6875C0.441406 0.75 0.25 0.96875 0.25 1.1875V2.0625C0.25 2.30859 0.441406 2.5 0.6875 2.5H2V12.5625C2 12.8086 2.19141 13 2.4375 13H4.67969C4.65234 13.1641 4.625 13.3008 4.625 13.4375C4.625 14.1758 5.19922 14.75 5.9375 14.75C6.64844 14.75 7.25 14.1758 7.25 13.4375C7.25 13.3008 7.19531 13.1641 7.16797 13H12.5547C12.5273 13.1641 12.5 13.3008 12.5 13.4375C12.5 14.1758 13.0742 14.75 13.8125 14.75C14.5234 14.75 15.125 14.1758 15.125 13.4375C15.125 13.3008 15.0703 13.1641 15.043 13H17.3125C17.5312 13 17.75 12.8086 17.75 12.5625V11.6875C17.75 11.4688 17.5312 11.25 17.3125 11.25ZM13.375 3.375V2.0625C13.375 1.35156 12.7734 0.75 12.0625 0.75H9.4375C8.69922 0.75 8.125 1.35156 8.125 2.0625V9.5H13.375V3.375ZM12.0625 3.375H9.4375V2.0625H12.0625V3.375Z" fill="url(#paint0_linear)"/>
<defs>
<linearGradient id="paint0_linear" x1="0.251974" y1="0.764617" x2="12.9638" y2="18.6331" gradientUnits="userSpaceOnUse">
<stop stop-color="#04D76A"/>
<stop offset="1" stop-color="#3F464E"/>
</linearGradient>
</defs>
</svg>
