<svg width="40" height="40" viewBox="0 0 40 40" fill="none" xmlns="http://www.w3.org/2000/svg">
<rect width="40" height="40" rx="20" fill="#F4F1F0"/>
<path d="M25 16V13C25 12.4688 24.5313 12 24 12H13C12.4375 12 12 12.4688 12 13V16C12 16.5625 12.4375 17 13 17H24C24.5313 17 25 16.5625 25 16ZM26 14V18C26 18.5625 25.5313 19 25 19H20C18.875 19 18 19.9063 18 21V22C17.4375 22 17 22.4688 17 23V27C17 27.5625 17.4375 28 18 28H20C20.5312 28 21 27.5625 21 27V23C21 22.4688 20.5312 22 20 22V21H25C26.6563 21 28 19.6875 28 18V16C28 14.9063 27.0938 14 26 14Z" fill="url(#paint0_linear_2139_8593)"/>
<defs>
<linearGradient id="paint0_linear_2139_8593" x1="12.0018" y1="12.0167" x2="27.2747" y2="29.1914" gradientUnits="userSpaceOnUse">
<stop stop-color="#04D76A"/>
<stop offset="1" stop-color="#3F464E"/>
</linearGradient>
</defs>
</svg>
