<svg width="18" height="14" viewBox="0 0 18 14" fill="none" xmlns="http://www.w3.org/2000/svg">
<path d="M6.15565 0C7.98859 0 9.47091 1.46079 9.47091 3.2671C9.47091 5.07341 7.98859 6.53421 6.15565 6.53421C4.32271 6.53421 2.84039 5.07341 2.84039 3.2671C2.84039 1.46079 4.32715 0 6.15565 0ZM12.7862 3.73071C14.0954 3.73071 15.1517 4.77601 15.1517 6.06186C15.1517 7.3477 14.091 8.39738 12.7862 8.39738C11.4814 8.39738 10.4207 7.35208 10.4207 6.06623C10.4207 4.78038 11.4769 3.73071 12.7862 3.73071ZM6.15565 7.46579C2.7605 7.46579 0 10.1862 0 13.532C0 13.7901 0.213029 14 0.474877 14H11.8364C12.0983 14 12.3113 13.7901 12.3113 13.532C12.3113 10.1862 9.5508 7.46579 6.15565 7.46579ZM12.7862 9.32896C12.4888 9.32896 12.1915 9.36832 11.903 9.42955C12.7507 10.5842 13.2611 11.9969 13.2611 13.5276C13.2611 13.6938 13.2256 13.8469 13.1723 13.9956H16.5719C16.8337 13.9956 17.0468 13.7857 17.0468 13.5276C17.0468 11.214 15.1339 9.32896 12.7862 9.32896Z" fill="url(#paint0_linear)"/>
<defs>
<linearGradient id="paint0_linear" x1="0.00192251" y1="0.0146166" x2="12.8197" y2="17.5653" gradientUnits="userSpaceOnUse">
<stop stop-color="#04D76A"/>
<stop offset="1" stop-color="#3F464E"/>
</linearGradient>
</defs>
</svg>
