<svg width="14" height="15" viewBox="0 0 14 15" fill="none" xmlns="http://www.w3.org/2000/svg">
<path d="M11.375 4.25V1.625C11.375 1.16016 10.9648 0.75 10.5 0.75H0.875C0.382812 0.75 0 1.16016 0 1.625V4.25C0 4.74219 0.382812 5.125 0.875 5.125H10.5C10.9648 5.125 11.375 4.74219 11.375 4.25ZM12.25 2.5V6C12.25 6.49219 11.8398 6.875 11.375 6.875H7C6.01562 6.875 5.25 7.66797 5.25 8.625V9.5C4.75781 9.5 4.375 9.91016 4.375 10.375V13.875C4.375 14.3672 4.75781 14.75 5.25 14.75H7C7.46484 14.75 7.875 14.3672 7.875 13.875V10.375C7.875 9.91016 7.46484 9.5 7 9.5V8.625H11.375C12.8242 8.625 14 7.47656 14 6V4.25C14 3.29297 13.207 2.5 12.25 2.5Z" fill="url(#paint0_linear)"/>
<defs>
<linearGradient id="paint0_linear" x1="0.0015789" y1="0.764617" x2="13.3653" y2="15.7925" gradientUnits="userSpaceOnUse">
<stop stop-color="#04D76A"/>
<stop offset="1" stop-color="#3F464E"/>
</linearGradient>
</defs>
</svg>
