<svg width="28" height="32" viewBox="0 0 28 32" fill="none" xmlns="http://www.w3.org/2000/svg">
<path d="M1.8887 30.4203H26.1118L23.1056 21.746C23.1056 21.746 21.2305 21.746 20.4866 21.746C19.9363 21.746 19.6102 21.4528 19.6204 20.9704C19.6204 20.4974 19.9465 20.1947 20.4968 20.1947C21.4853 20.1852 22.484 20.1947 23.4725 20.1947C24.1552 20.1947 24.3794 20.3461 24.5934 20.9325C25.5412 23.6379 27.722 29.8716 27.9156 30.4203C28.2315 31.3189 27.6302 32 26.6214 32C23.4317 32 1.80717 32 1.20592 32C0.400863 32 -0.251337 31.2811 0.0951443 30.4203C1.07345 27.6109 3.24405 21.4055 3.41729 20.9136C3.61091 20.3555 3.85549 20.1947 4.47712 20.1947C5.92419 20.1947 9.10367 20.1947 9.32786 20.1947C9.19538 20.0434 7.06554 17.8204 6.15857 16.7326C4.10006 14.2826 3.081 11.4921 3.58034 8.38941C4.19178 4.57728 6.54582 1.92866 10.4284 0.604348C16.4817 -1.45779 23.0037 1.95704 24.3183 7.81239C24.9603 10.6975 24.2368 13.3934 22.5247 15.815C21.6483 17.0542 20.5376 18.142 19.4981 19.2771C18.0714 20.8474 15.055 24.073 14.9531 24.196C15.4422 24.196 15.8702 24.196 16.2983 24.196C16.8791 24.2055 17.2562 24.4987 17.2562 24.9433C17.2562 25.3974 16.8791 25.7001 16.3084 25.7001C14.7697 25.7001 13.2309 25.7001 11.6921 25.7001C11.1214 25.7001 10.7444 25.3974 10.7342 24.9433C10.7342 24.4987 11.1112 24.196 11.6819 24.1866C12.0895 24.1866 13.0576 24.1866 13.0576 24.1866L10.8157 21.7366H4.88474L1.8887 30.4203ZM13.985 22.7866C14.0767 22.7014 14.1276 22.6447 14.1786 22.5974C16.2269 20.3934 18.2956 18.1988 20.3236 15.9664C20.7108 15.5123 21.2611 14.7839 21.6076 14.1407C22.5655 12.3718 23.0852 10.4894 22.7285 8.49346C21.8929 3.7827 17.1237 0.774617 12.0793 1.76785C8.43108 2.48676 5.56752 5.40971 5.21084 8.82454C4.9357 11.4542 5.8019 13.8002 7.5445 15.8434C8.93043 17.4609 10.4386 18.9839 11.8857 20.5447C12.5787 21.2825 13.2716 22.0204 13.985 22.7866ZM13.985 13.6677C11.6309 13.6677 9.7253 11.8988 9.73549 9.73264C9.74568 7.56645 11.6513 5.807 13.9952 5.807C16.3594 5.807 18.2752 7.58536 18.265 9.76102C18.2447 11.9367 16.339 13.6772 13.985 13.6677ZM14.0054 12.1164C15.4117 12.1069 16.5836 11.0286 16.5734 9.72318C16.5632 8.42725 15.3811 7.35834 13.9748 7.35834C12.5685 7.35834 11.3966 8.45563 11.4068 9.75156C11.4271 11.057 12.5889 12.1164 14.0054 12.1164Z" fill="url(#paint0_linear_1234_5100)"/>
<defs>
<linearGradient id="paint0_linear_1234_5100" x1="0.00315781" y1="0.0334093" x2="30.7555" y2="30.2924" gradientUnits="userSpaceOnUse">
<stop stop-color="#04D76A"/>
<stop offset="1" stop-color="#3F464E"/>
</linearGradient>
</defs>
</svg>
