<svg width="40" height="40" viewBox="0 0 40 40" fill="none" xmlns="http://www.w3.org/2000/svg">
<rect width="40" height="40" rx="15" fill="#F4F1F0"/>
<path d="M27.9016 13H12.1469C11.5145 13 11 13.513 11 14.1435V25.8565C11 26.487 11.5145 27 12.1469 27H27.9048C28.5372 27 29.0517 26.487 29.0517 25.8565V14.1435C29.0484 13.513 28.534 13 27.9016 13ZM27.9016 14.1435V22.452L25.6439 20.4035C25.3031 20.0964 24.7821 20.1095 24.4577 20.4329L22.1738 22.7134L17.6649 17.3454C17.3242 16.9403 16.7016 16.937 16.3542 17.3356L12.1469 22.2135V14.1435H27.9016ZM23.0323 17.1428C23.0323 16.2737 23.7368 15.5713 24.6084 15.5713C25.48 15.5713 26.1845 16.2737 26.1845 17.1428C26.1845 18.0119 25.48 18.7144 24.6084 18.7144C23.7368 18.7144 23.0323 18.0086 23.0323 17.1428Z" fill="#3F464E"/>
</svg>
