<svg width="30" height="30" viewBox="0 0 30 30" fill="none" xmlns="http://www.w3.org/2000/svg">
<path d="M0 10C0 4.47715 4.47715 0 10 0H20C25.5228 0 30 4.47715 30 10V20C30 25.5228 25.5228 30 20 30H10C4.47715 30 0 25.5228 0 20V10Z" fill="#04D76A" fill-opacity="0.1"/>
<path d="M20.0182 8.22934C18.578 6.79117 16.6624 6 14.6271 6C12.5918 6 10.6727 6.79117 9.2325 8.22934C7.79229 9.66751 7 11.5804 7 13.6128C7 17.7269 10.8945 21.1483 12.9897 22.9873C13.282 23.244 13.532 23.462 13.7327 23.6484C13.9827 23.884 14.3067 24 14.6271 24C14.9475 24 15.2715 23.884 15.5215 23.6484C15.7222 23.462 15.9722 23.2405 16.2645 22.9873C18.3561 21.1483 22.2542 17.7269 22.2542 13.6128C22.2507 11.5804 21.4584 9.66751 20.0182 8.22934ZM15.5638 22.1996C15.268 22.4599 15.0109 22.6849 14.7996 22.8853C14.7011 22.9768 14.5496 22.9768 14.4546 22.8853C14.2433 22.6884 13.9862 22.4634 13.6904 22.1996C11.7185 20.4696 8.05639 17.2522 8.05639 13.6128C8.05639 9.99805 11.0037 7.05489 14.6236 7.05489C18.247 7.05489 21.1943 9.99805 21.1943 13.6163C21.1943 17.2522 17.5322 20.4696 15.5638 22.1996ZM14.6271 9.96992C12.7749 9.96992 11.2678 11.4749 11.2678 13.3245C11.2678 15.1741 12.7749 16.679 14.6271 16.679C16.4793 16.679 17.9864 15.1776 17.9864 13.328C17.9864 11.4784 16.4793 9.96992 14.6271 9.96992ZM14.6271 15.6277C13.3559 15.6277 12.3242 14.5939 12.3242 13.328C12.3242 12.0621 13.3594 11.0283 14.6271 11.0283C15.8948 11.0283 16.93 12.0621 16.93 13.328C16.93 14.5939 15.8948 15.6277 14.6271 15.6277Z" fill="#3F464E"/>
</svg>
