<svg width="14" height="15" viewBox="0 0 14 15" fill="none" xmlns="http://www.w3.org/2000/svg">
<path d="M0.875 12.125C0.875 13.5742 2.05078 14.75 3.5 14.75H10.5C11.9219 14.75 13.125 13.5742 13.125 12.125V11.25H0.875V12.125ZM13.5625 8.625H10.9375V7.75H12.6875C12.9062 7.75 13.125 7.55859 13.125 7.3125V6.875C13.125 6.65625 12.9062 6.4375 12.6875 6.4375H10.5C10.0078 6.4375 9.625 6.84766 9.625 7.3125V8.625H7.875V3.375C7.875 2.91016 8.25781 2.5 8.75 2.5C9.21484 2.5 9.625 2.91016 9.625 3.375V3.8125C9.625 4.05859 9.81641 4.25 10.0625 4.25H10.9375C11.1562 4.25 11.375 4.05859 11.375 3.8125V3.375C11.3477 1.92578 10.1719 0.75 8.72266 0.75C8.55859 0.75 8.39453 0.777344 8.20312 0.804688C6.97266 1.05078 6.125 2.22656 6.125 3.48438V8.625H4.375V7.3125C4.375 6.84766 3.96484 6.4375 3.5 6.4375H1.3125C1.06641 6.4375 0.875 6.65625 0.875 6.875V7.3125C0.875 7.55859 1.06641 7.75 1.3125 7.75H3.0625V8.625H0.4375C0.191406 8.625 0 8.84375 0 9.0625V9.9375C0 10.1836 0.191406 10.375 0.4375 10.375H13.5625C13.7812 10.375 14 10.1836 14 9.9375V9.0625C14 8.84375 13.7812 8.625 13.5625 8.625Z" fill="url(#paint0_linear)"/>
<defs>
<linearGradient id="paint0_linear" x1="0.0015789" y1="0.764617" x2="13.3653" y2="15.7925" gradientUnits="userSpaceOnUse">
<stop stop-color="#04D76A"/>
<stop offset="1" stop-color="#3F464E"/>
</linearGradient>
</defs>
</svg>
