<svg width="30" height="30" viewBox="0 0 30 30" fill="none" xmlns="http://www.w3.org/2000/svg">
<rect width="30" height="30" rx="10" fill="url(#paint0_linear)"/>
<path d="M13.4656 19.7193L11.3459 21.839C10.467 22.7178 9.04335 22.7178 8.16453 21.839C7.28571 20.9602 7.28571 19.5365 8.16453 18.6577L12.4075 14.4147C13.2863 13.5359 14.71 13.5359 15.5888 14.4147C15.8806 14.7065 16.3551 14.7065 16.6504 14.4147C16.9422 14.1229 16.9422 13.6484 16.6504 13.3531C15.1846 11.8872 12.8117 11.8872 11.3494 13.3531L7.0994 17.5996C5.63353 19.0654 5.63353 21.4382 7.0994 22.9006C8.56176 24.3665 10.9381 24.3665 12.404 22.9006L14.5237 20.7809C14.8154 20.4891 14.8154 20.0146 14.5237 19.7193C14.2319 19.424 13.7573 19.4275 13.4656 19.7193ZM22.9006 7.0994C21.4347 5.63353 19.0619 5.63353 17.596 7.0994L15.051 9.64447C14.7592 9.93624 14.7592 10.4108 15.051 10.7061C15.3427 10.9979 15.8173 10.9979 16.1126 10.7061L18.6576 8.16102C19.5365 7.2822 20.9602 7.2822 21.839 8.16102C22.7178 9.03984 22.7178 10.4635 21.839 11.3423L17.1742 16.0071C16.2954 16.886 14.8717 16.886 13.9929 16.0071C13.7011 15.7154 13.2265 15.7154 12.9313 16.0071C12.636 16.2989 12.6395 16.7735 12.9313 17.0687C14.3971 18.5346 16.7699 18.5346 18.2323 17.0687L22.8971 12.404C24.3665 10.9381 24.3665 8.56528 22.9006 7.0994Z" fill="white"/>
<defs>
<linearGradient id="paint0_linear" x1="0.00338336" y1="0.0313212" x2="28.64" y2="32.2339" gradientUnits="userSpaceOnUse">
<stop stop-color="#04D76A"/>
<stop offset="1" stop-color="#3F464E"/>
</linearGradient>
</defs>
</svg>
