<svg width="40" height="32" viewBox="0 0 40 32" fill="none" xmlns="http://www.w3.org/2000/svg">
<path opacity="0.15" d="M40 4.67652L36.1637 8.03941C34.2882 9.68582 33.3504 11.7001 33.3504 14.0821C33.3504 15.5183 34.1858 17.1823 35.8568 19.0739C37.5277 20.9655 38.3632 22.6995 38.3632 24.2759C38.3632 29.4253 35.8909 32 30.9463 32C25.6607 32 23.0179 28.8998 23.0179 22.6995C23.0179 13.4165 27.5362 5.85003 36.5729 0L40 4.67652ZM16.9821 4.67652L13.1458 8.03941C11.2702 9.68582 10.3325 11.7001 10.3325 14.0821C10.3325 15.5183 11.1679 17.1823 12.8389 19.0739C14.5098 20.9655 15.3453 22.6995 15.3453 24.2759C15.3453 29.4253 12.873 32 7.92839 32C2.6428 32 0 28.8998 0 22.6995C0 13.4165 4.51833 5.85003 13.555 0L16.9821 4.67652Z" fill="#666666"/>
</svg>
