<svg width="101" height="15" viewBox="0 0 101 15" fill="none" xmlns="http://www.w3.org/2000/svg">
<path d="M7.08203 1.24219L5.30469 4.87891L1.28516 5.45312C0.574219 5.5625 0.300781 6.4375 0.820312 6.95703L3.69141 9.77344L3.00781 13.7383C2.89844 14.4492 3.66406 14.9961 4.29297 14.668L7.875 12.7812L11.4297 14.668C12.0586 14.9961 12.8242 14.4492 12.7148 13.7383L12.0312 9.77344L14.9023 6.95703C15.4219 6.4375 15.1484 5.5625 14.4375 5.45312L10.4453 4.87891L8.64062 1.24219C8.33984 0.613281 7.41016 0.585938 7.08203 1.24219ZM28.3008 1.24219L26.5234 4.87891L22.5039 5.45312C21.793 5.5625 21.5195 6.4375 22.0391 6.95703L24.9102 9.77344L24.2266 13.7383C24.1172 14.4492 24.8828 14.9961 25.5117 14.668L29.0938 12.7812L32.6484 14.668C33.2773 14.9961 34.043 14.4492 33.9336 13.7383L33.25 9.77344L36.1211 6.95703C36.6406 6.4375 36.3672 5.5625 35.6562 5.45312L31.6641 4.87891L29.8594 1.24219C29.5586 0.613281 28.6289 0.585938 28.3008 1.24219ZM49.5195 1.24219L47.7422 4.87891L43.7227 5.45312C43.0117 5.5625 42.7383 6.4375 43.2578 6.95703L46.1289 9.77344L45.4453 13.7383C45.3359 14.4492 46.1016 14.9961 46.7305 14.668L50.3125 12.7812L53.8672 14.668C54.4961 14.9961 55.2617 14.4492 55.1523 13.7383L54.4688 9.77344L57.3398 6.95703C57.8594 6.4375 57.5859 5.5625 56.875 5.45312L52.8828 4.87891L51.0781 1.24219C50.7773 0.613281 49.8477 0.585938 49.5195 1.24219ZM70.7383 1.24219L68.9609 4.87891L64.9414 5.45312C64.2305 5.5625 63.957 6.4375 64.4766 6.95703L67.3477 9.77344L66.6641 13.7383C66.5547 14.4492 67.3203 14.9961 67.9492 14.668L71.5312 12.7812L75.0859 14.668C75.7148 14.9961 76.4805 14.4492 76.3711 13.7383L75.6875 9.77344L78.5586 6.95703C79.0781 6.4375 78.8047 5.5625 78.0938 5.45312L74.1016 4.87891L72.2969 1.24219C71.9961 0.613281 71.0664 0.585938 70.7383 1.24219ZM91.957 1.24219L90.1797 4.87891L86.1602 5.45312C85.4492 5.5625 85.1758 6.4375 85.6953 6.95703L88.5664 9.77344L87.8828 13.7383C87.7734 14.4492 88.5391 14.9961 89.168 14.668L92.75 12.7812L96.3047 14.668C96.9336 14.9961 97.6992 14.4492 97.5898 13.7383L96.9062 9.77344L99.7773 6.95703C100.297 6.4375 100.023 5.5625 99.3125 5.45312L95.3203 4.87891L93.5156 1.24219C93.2148 0.613281 92.2852 0.585938 91.957 1.24219Z" fill="#FDAD11"/>
</svg>
