<svg width="40" height="40" viewBox="0 0 40 40" fill="none" xmlns="http://www.w3.org/2000/svg">
<rect width="40" height="40" rx="15" fill="#F4F1F0"/>
<path d="M20 28C19.7434 28 19.4973 27.9087 19.3039 27.7401C18.5762 27.1043 17.8766 26.5071 17.2578 25.9802L17.2543 25.9767C15.4402 24.4347 13.8758 23.0999 12.7859 21.7862C11.566 20.3179 11 18.9269 11 17.4059C11 15.9271 11.5062 14.5642 12.4273 13.5666C13.359 12.555 14.6387 12 16.0273 12C17.068 12 18.0172 12.3267 18.8539 12.9765C19.2758 13.3032 19.659 13.7036 19.9965 14.1708C20.334 13.7036 20.7172 13.3032 21.1391 12.9765C21.9828 12.3267 22.932 12 23.9727 12C25.3613 12 26.641 12.555 27.5727 13.5666C28.4937 14.5642 29 15.9271 29 17.4059C29 18.9269 28.434 20.3179 27.2141 21.7862C26.1242 23.0999 24.5598 24.4347 22.7457 25.9767C22.127 26.5036 21.4238 27.1008 20.6961 27.7401C20.5027 27.9087 20.2566 28 20 28ZM16.0273 13.0538C14.9375 13.0538 13.932 13.4894 13.2043 14.2797C12.4625 15.0841 12.0547 16.1941 12.0547 17.4059C12.0547 18.6845 12.5293 19.8296 13.598 21.1153C14.6281 22.3587 16.1645 23.6654 17.9398 25.1759L17.9434 25.1794C18.5656 25.7098 19.2688 26.3069 20 26.9462C20.7383 26.3034 21.4414 25.7063 22.0637 25.1759C23.8391 23.6619 25.3719 22.3587 26.4055 21.1153C27.4707 19.8296 27.9488 18.6845 27.9488 17.4059C27.9488 16.1941 27.541 15.0841 26.7992 14.2797C26.068 13.4894 25.0625 13.0538 23.9727 13.0538C23.1711 13.0538 22.4363 13.3067 21.7895 13.809C21.2129 14.2551 20.8086 14.8206 20.573 15.2141C20.45 15.4178 20.2391 15.5372 20 15.5372C19.7609 15.5372 19.55 15.4143 19.427 15.2141C19.1914 14.8206 18.7871 14.2551 18.2105 13.809C17.5637 13.3067 16.8289 13.0538 16.0273 13.0538Z" fill="#3F464E"/>
</svg>
