<svg width="16" height="13" viewBox="0 0 16 13" fill="none" xmlns="http://www.w3.org/2000/svg">
<path d="M7.78125 3.82422L2.75 7.98047V12.4375C2.75 12.6836 2.94141 12.875 3.1875 12.875H6.25C6.46875 12.875 6.66016 12.6836 6.66016 12.4375V9.8125C6.66016 9.59375 6.87891 9.375 7.09766 9.375H8.84766C9.09375 9.375 9.28516 9.59375 9.28516 9.8125V12.4375C9.28516 12.6836 9.50391 12.875 9.72266 12.875H12.8125C13.0312 12.875 13.25 12.6836 13.25 12.4375V7.95312L8.19141 3.82422C8.13672 3.76953 8.05469 3.74219 8 3.74219C7.91797 3.74219 7.83594 3.76953 7.78125 3.82422ZM15.7383 6.64062L13.4688 4.75391V0.980469C13.4688 0.789062 13.3047 0.652344 13.1406 0.652344H11.6094C11.418 0.652344 11.2812 0.789062 11.2812 0.980469V2.94922L8.82031 0.925781C8.60156 0.761719 8.30078 0.652344 8 0.652344C7.67188 0.652344 7.37109 0.761719 7.15234 0.925781L0.234375 6.64062C0.152344 6.69531 0.0976562 6.80469 0.0976562 6.88672C0.0976562 6.96875 0.152344 7.05078 0.179688 7.10547L0.890625 7.95312C0.945312 8.03516 1.02734 8.0625 1.13672 8.0625C1.21875 8.0625 1.30078 8.03516 1.35547 7.98047L7.78125 2.70312C7.83594 2.64844 7.91797 2.62109 8 2.62109C8.05469 2.62109 8.13672 2.64844 8.19141 2.70312L14.6172 7.98047C14.6719 8.03516 14.7539 8.0625 14.8359 8.0625C14.9453 8.0625 15.0273 8.03516 15.082 7.95312L15.793 7.10547C15.8477 7.05078 15.875 6.96875 15.875 6.88672C15.875 6.80469 15.8203 6.69531 15.7383 6.64062Z" fill="url(#paint0_linear)"/>
<defs>
<linearGradient id="paint0_linear" x1="0.0994356" y1="0.665105" x2="11.0761" y2="16.5984" gradientUnits="userSpaceOnUse">
<stop stop-color="#04D76A"/>
<stop offset="1" stop-color="#3F464E"/>
</linearGradient>
</defs>
</svg>
