<svg width="20" height="20" viewBox="0 0 20 20" fill="none" xmlns="http://www.w3.org/2000/svg">
<path d="M19.6714 17.7323L15.8949 14.0421C17.1134 12.5209 17.7745 10.6423 17.7721 8.70831C17.7721 6.98597 17.2509 5.30231 16.2745 3.87023C15.2981 2.43816 13.9103 1.322 12.2866 0.662884C10.6629 0.00377314 8.87617 -0.16868 7.15245 0.167332C5.42873 0.503343 3.84539 1.33273 2.60266 2.55061C1.35993 3.76849 0.513616 5.32016 0.170746 7.0094C-0.172123 8.69865 0.00385015 10.4496 0.676412 12.0408C1.34897 13.6321 2.48792 14.9921 3.94922 15.949C5.41052 16.9059 7.12854 17.4166 8.88603 17.4166C10.8595 17.419 12.7764 16.7711 14.3287 15.577L18.0942 19.278C18.1974 19.38 18.3203 19.461 18.4556 19.5163C18.591 19.5715 18.7362 19.6 18.8828 19.6C19.0294 19.6 19.1746 19.5715 19.31 19.5163C19.4453 19.461 19.5682 19.38 19.6714 19.278C19.7755 19.1768 19.8582 19.0564 19.9146 18.9238C19.971 18.7911 20 18.6489 20 18.5052C20 18.3615 19.971 18.2192 19.9146 18.0865C19.8582 17.9539 19.7755 17.8335 19.6714 17.7323ZM2.22151 8.70831C2.22151 7.41655 2.61238 6.15381 3.34468 5.07975C4.07699 4.0057 5.11785 3.16857 6.33563 2.67424C7.55341 2.17991 8.89342 2.05057 10.1862 2.30258C11.479 2.55458 12.6665 3.17662 13.5986 4.09003C14.5306 5.00344 15.1653 6.16719 15.4225 7.43413C15.6796 8.70106 15.5477 10.0143 15.0432 11.2077C14.5388 12.4011 13.6846 13.4212 12.5886 14.1388C11.4927 14.8565 10.2041 15.2395 8.88603 15.2395C7.11849 15.2395 5.42334 14.5514 4.1735 13.3266C2.92366 12.1017 2.22151 10.4405 2.22151 8.70831Z" fill="#06C864"/>
</svg>
