<svg width="30" height="30" viewBox="0 0 30 30" fill="none" xmlns="http://www.w3.org/2000/svg">
<rect width="30" height="30" rx="10" fill="#F4F1F0"/>
<path d="M20.0312 7.94141L8.65625 14.5039C7.69922 15.0508 7.78125 16.4453 8.79297 16.8555L11.9375 18.1406V20.4375C11.9375 21.7227 13.5508 22.2422 14.2891 21.2305L15.4922 19.6172L18.5547 20.875C18.7188 20.957 18.8828 20.9844 19.0469 20.9844C19.2656 20.9844 19.4844 20.9297 19.7031 20.8203C20.0586 20.6016 20.2773 20.2734 20.3594 19.8633L21.9727 9.28125C22.1367 8.1875 20.9609 7.39453 20.0312 7.94141ZM13.25 20.4375V18.6875L14.2344 19.0977L13.25 20.4375ZM19.0469 19.6719L14.8359 17.9219L18.6914 12.3984C18.9648 11.9609 18.418 11.4688 18.0352 11.8242L12.2383 16.8555L9.3125 15.625L20.6875 9.0625L19.0469 19.6719Z" fill="#3F464E"/>
</svg>
