<svg width="50" height="50" viewBox="0 0 50 50" fill="none" xmlns="http://www.w3.org/2000/svg">
<rect width="50" height="50" rx="25" fill="url(#paint0_linear_1820_8621)"/>
<path d="M32.625 13.3281L13.125 24.5781C11.4844 25.5156 11.625 27.9062 13.3594 28.6094L18.75 30.8125V34.75C18.75 36.9531 21.5156 37.8438 22.7812 36.1094L24.8438 33.3438L30.0938 35.5C30.375 35.6406 30.6562 35.6875 30.9375 35.6875C31.3125 35.6875 31.6875 35.5938 32.0625 35.4062C32.6719 35.0312 33.0469 34.4688 33.1875 33.7656L35.9531 15.625C36.2344 13.75 34.2188 12.3906 32.625 13.3281ZM21 34.75V31.75L22.6875 32.4531L21 34.75ZM30.9375 33.4375L23.7188 30.4375L30.3281 20.9688C30.7969 20.2188 29.8594 19.375 29.2031 19.9844L19.2656 28.6094L14.25 26.5L33.75 15.25L30.9375 33.4375Z" fill="white"/>
<defs>
<linearGradient id="paint0_linear_1820_8621" x1="50" y1="0" x2="50.2639" y2="51.6628" gradientUnits="userSpaceOnUse">
<stop stop-color="#04D76A"/>
<stop offset="1" stop-color="#3F464E"/>
</linearGradient>
</defs>
</svg>
