<svg width="48" height="48" viewBox="0 0 48 48" fill="none" xmlns="http://www.w3.org/2000/svg">
<rect width="48" height="48" rx="16" fill="#F4F1F0"/>
<path d="M29.7642 16.2029L16.768 23.7031C15.6746 24.3281 15.7683 25.9219 16.9242 26.3906L20.5169 27.8594V30.4845C20.5169 31.9533 22.3601 32.547 23.2036 31.3908L24.5782 29.547L28.0772 30.9845C28.2647 31.0783 28.4521 31.1095 28.6396 31.1095C28.8895 31.1095 29.1394 31.047 29.3893 30.922C29.7955 30.672 30.0454 30.297 30.1391 29.8282L31.9823 17.7341C32.1698 16.4841 30.8264 15.5778 29.7642 16.2029ZM22.0165 30.4845V28.4844L23.1412 28.9532L22.0165 30.4845ZM28.6396 29.6095L23.8285 27.6094L28.2334 21.2967C28.5458 20.7967 27.921 20.2342 27.4836 20.6405L20.8606 26.3906L17.5178 24.9843L30.514 17.4841L28.6396 29.6095Z" fill="#3F464E"/>
</svg>
