<svg width="26" height="14" viewBox="0 0 26 14" fill="none" xmlns="http://www.w3.org/2000/svg">
<path d="M8.58867 9.16044H4.01133C3.6668 9.16044 3.44039 9.3781 3.44039 9.69765C3.44039 10.0172 3.67172 10.2349 4.01133 10.2349H8.59359C8.93813 10.2349 9.16453 10.0172 9.16453 9.69765C9.16453 9.3781 8.9332 9.16044 8.58867 9.16044ZM6.87094 6.4651H2.28867C1.94414 6.4651 1.71773 6.68277 1.71773 7.00232C1.71773 7.32187 1.94906 7.53953 2.28867 7.53953H6.87094C7.21547 7.53953 7.44187 7.32187 7.44187 7.00232C7.4468 6.68277 7.21547 6.4651 6.87094 6.4651ZM5.1532 3.7744H0.570938C0.231328 3.7744 0 3.98743 0 4.31161C0 4.63579 0.231328 4.84883 0.570938 4.84883H5.1532C5.49773 4.84883 5.72414 4.63116 5.72414 4.31161C5.72414 3.99206 5.49773 3.7744 5.1532 3.7744ZM22.7932 2.37115C22.6209 2.15349 22.2223 2.10255 21.9909 2.26464L15.9223 6.63182C15.2923 7.06252 14.4309 7.06252 13.8009 6.63182L7.73227 2.26464C7.50094 2.10255 7.10227 2.10255 6.93 2.37115C6.75773 2.58882 6.75773 2.96394 7.0432 3.12603L13.1709 7.49322C13.6877 7.86834 14.3177 8.03043 14.8887 8.03043C15.4596 8.03043 16.1487 7.86834 16.6064 7.49322L22.6751 3.12603C22.9113 2.96394 22.9655 2.58882 22.7932 2.37115ZM23.4823 0H5.1532C4.80867 0 4.58227 0.217665 4.58227 0.537215C4.58227 0.856765 4.81359 1.07443 5.1532 1.07443H23.4823C23.8268 1.07443 24.0532 1.29209 24.0532 1.61164V12.3884C24.0532 12.7125 23.8219 12.9256 23.4823 12.9256H5.1532C4.80867 12.9256 4.58227 13.1432 4.58227 13.4628C4.58227 13.787 4.81359 14 5.1532 14H23.4823C24.4568 14 25.2 13.3007 25.2 12.3837V1.61628C25.2 0.699305 24.4568 0 23.4823 0ZM22.7391 10.9388L19.3036 7.70625C19.0723 7.48859 18.7327 7.48859 18.5013 7.70625C18.27 7.92392 18.27 8.24347 18.5013 8.46113L21.9368 11.6937C22.05 11.8002 22.2223 11.8558 22.3355 11.8558C22.4487 11.8558 22.6209 11.8002 22.7341 11.6937C22.9655 11.4806 22.9655 11.1565 22.7391 10.9388Z" fill="white"/>
</svg>
