<svg width="17" height="14" viewBox="0 0 17 14" fill="none" xmlns="http://www.w3.org/2000/svg">
<path d="M1.23607 8.6V8.4C1.33607 8 1.43607 7.7 1.53607 7.3C2.53607 4.4 4.43607 2.6 7.03607 2.1C7.13607 2.1 7.13607 2.1 7.23607 2.1V1.7H6.93607C6.43607 1.7 6.13607 1.4 6.13607 0.9C6.13607 0.7 6.23607 0.4 6.33607 0.3C6.43607 0.1 6.63607 0 6.93607 0C7.63607 0 8.33607 0 9.03607 0C9.33607 0 9.53607 0.1 9.63607 0.4C9.73607 0.6 9.83607 0.9 9.73607 1.2C9.63607 1.5 9.33607 1.7 9.03607 1.7C8.93607 1.7 8.83607 1.7 8.63607 1.7V2.1C8.73607 2.1 8.83607 2.1 8.93607 2.2C9.33607 2.3 9.63607 2.4 10.0361 2.5C12.4361 3.5 13.9361 5.5 14.6361 8.5C14.7361 9 14.5361 9.5 14.1361 9.6C14.0361 9.6 14.0361 9.6 13.9361 9.6C13.8361 9.6 2.23607 9.6 1.73607 9.6C1.33607 9.5 1.13607 9 1.23607 8.6ZM15.5361 13.3C15.2361 13.7 14.8361 14 14.4361 14C14.3361 14 5.53607 14 1.73607 14C0.836068 14 0.136068 13.4 0.036068 12.4C-0.063932 11.8 0.036068 11.2 0.436068 10.7C0.736068 10.3 1.13607 10 1.63607 10C1.73607 10 1.73607 10 1.83607 10H14.3361C15.2361 10 15.9361 10.7 16.0361 11.7C16.0361 12.2 15.8361 12.8 15.5361 13.3ZM14.4361 11.4C14.3361 11.4 14.2361 11.4 14.1361 11.4H1.83607H1.73607H1.63607C1.43607 11.4 1.23607 11.7 1.13607 12C1.13607 12.3 1.23607 12.6 1.43607 12.7H1.53607C1.73607 12.7 6.33607 12.7 9.93607 12.7C12.3361 12.7 14.3361 12.7 14.3361 12.7C14.5361 12.7 14.7361 12.4 14.7361 12.2C14.7361 11.7 14.6361 11.5 14.4361 11.4Z" fill="url(#paint0_linear)"/>
<defs>
<linearGradient id="paint0_linear" x1="0.00180853" y1="0.0146166" x2="13.0378" y2="16.8058" gradientUnits="userSpaceOnUse">
<stop stop-color="#04D76A"/>
<stop offset="1" stop-color="#3F464E"/>
</linearGradient>
</defs>
</svg>
