<svg width="14" height="15" viewBox="0 0 14 15" fill="none" xmlns="http://www.w3.org/2000/svg">
<path d="M13.8164 9.39078L12.6406 8.73453C12.7773 8.07828 12.7773 7.44937 12.6406 6.79312L13.8164 6.13687C13.9531 6.05484 14.0078 5.89078 13.9531 5.75406C13.6523 4.76968 13.1328 3.89468 12.4765 3.1564C12.3671 3.04703 12.2031 3.01968 12.0664 3.10171L10.8906 3.75796C10.3984 3.34781 9.85152 3.01968 9.24996 2.80093V1.46109C9.24996 1.32437 9.14058 1.18765 8.97652 1.16031C7.9648 0.914213 6.95309 0.941557 5.99605 1.16031C5.83199 1.18765 5.74996 1.32437 5.74996 1.46109V2.80093C5.12105 3.01968 4.57418 3.34781 4.08199 3.78531L2.90621 3.10171C2.76949 3.01968 2.60543 3.04703 2.49605 3.1564C1.8398 3.89468 1.32027 4.76968 1.01949 5.75406C0.964804 5.89078 1.01949 6.05484 1.15621 6.13687L2.33199 6.79312C2.22262 7.44937 2.22262 8.07828 2.33199 8.73453L1.15621 9.39078C1.01949 9.47281 0.964804 9.63687 1.01949 9.77359C1.32027 10.758 1.8398 11.633 2.49605 12.3712C2.60543 12.4806 2.76949 12.508 2.90621 12.4259L4.08199 11.7697C4.57418 12.1798 5.12105 12.508 5.74996 12.7267V14.0666C5.74996 14.2033 5.85934 14.34 5.99605 14.3947C7.00777 14.6134 8.01949 14.5861 8.97652 14.3947C9.14058 14.34 9.24996 14.2033 9.24996 14.0666V12.7267C9.85152 12.508 10.3984 12.1798 10.8906 11.7697L12.0664 12.4259C12.2031 12.508 12.3671 12.4806 12.4765 12.3712C13.1601 11.633 13.6523 10.758 13.9804 9.77359C14.0078 9.63687 13.9531 9.47281 13.8164 9.39078ZM7.49996 9.93765C6.26949 9.93765 5.31246 8.98062 5.31246 7.75015C5.31246 6.54703 6.26949 5.56265 7.49996 5.56265C8.70308 5.56265 9.68746 6.54703 9.68746 7.75015C9.68746 8.98062 8.70308 9.93765 7.49996 9.93765Z" fill="url(#paint0_linear)"/>
<defs>
<linearGradient id="paint0_linear" x1="1" y1="1" x2="14" y2="15" gradientUnits="userSpaceOnUse">
<stop stop-color="#04D76A"/>
<stop offset="1" stop-color="#3F464E"/>
</linearGradient>
</defs>
</svg>
