<svg width="24" height="21" viewBox="0 0 24 21" fill="none" xmlns="http://www.w3.org/2000/svg">
<path d="M23.7047 7.12963L13.7672 0.129101C13.5516 -0.0202432 13.2703 -0.0435783 13.0359 0.0777641C12.8016 0.199107 12.6562 0.437124 12.6562 0.698477V4.21741C9.35156 4.38542 6.27187 5.74819 3.91406 8.0957C1.3875 10.6066 0 13.9481 0 17.4997V20.2999C0 20.6873 0.31875 21 0.703125 21C1.0125 21 1.29375 20.7947 1.37812 20.4913L1.48594 20.1133C2.92969 15.0916 7.4625 11.5166 12.6562 11.2179V14.6995C12.6562 14.9609 12.8016 15.1989 13.0359 15.3202C13.2703 15.4416 13.5516 15.4229 13.7672 15.2689L23.7047 8.26838C23.8922 8.1377 24 7.92302 24 7.699C24 7.47499 23.8875 7.2603 23.7047 7.12963ZM14.0625 13.3461V10.4992C14.0625 10.1119 13.7484 9.79916 13.3594 9.79916C11.85 9.79916 10.3641 10.0418 8.93906 10.5225C5.72344 11.61 3.075 13.8268 1.43438 16.6643C1.86563 10.4899 7.05 5.59885 13.3594 5.59885C13.7484 5.59885 14.0625 5.28615 14.0625 4.89879V2.05191L22.0781 7.699L14.0625 13.3461Z" fill="#3F464E"/>
</svg>
