<svg width="40" height="40" viewBox="0 0 40 40" fill="none" xmlns="http://www.w3.org/2000/svg">
<rect width="40" height="40" rx="15" fill="#F4F1F0"/>
<path d="M13 19.668C13 20.0234 13.1367 20.3516 13.3828 20.5977L19.1523 26.3672C19.6719 26.8867 20.5195 26.8867 21.0117 26.3672L26.5898 20.7891C27.1094 20.2969 27.1094 19.4492 26.5898 18.9297L20.8203 13.1602C20.5742 12.9141 20.2461 12.75 19.8906 12.75H14.3125C13.5742 12.75 13 13.3516 13 14.0625V19.668ZM16.0625 14.5C16.7734 14.5 17.375 15.1016 17.375 15.8125C17.375 16.5508 16.7734 17.125 16.0625 17.125C15.3242 17.125 14.75 16.5508 14.75 15.8125C14.75 15.1016 15.3242 14.5 16.0625 14.5Z" fill="#3F464E"/>
</svg>
