<svg width="40" height="40" viewBox="0 0 40 40" fill="none" xmlns="http://www.w3.org/2000/svg">
<rect width="40" height="40" rx="15" fill="#F4F1F0"/>
<path d="M26.4375 17.4531L22.4453 16.8789L20.6406 13.2422C20.3398 12.6133 19.4102 12.5859 19.082 13.2422L17.3047 16.8789L13.2852 17.4531C12.5742 17.5625 12.3008 18.4375 12.8203 18.957L15.6914 21.7734L15.0078 25.7383C14.8984 26.4492 15.6641 26.9961 16.293 26.668L19.875 24.7812L23.4297 26.668C24.0586 26.9961 24.8242 26.4492 24.7148 25.7383L24.0312 21.7734L26.9023 18.957C27.4219 18.4375 27.1484 17.5625 26.4375 17.4531ZM22.6094 21.3086L23.2656 25.082L19.875 23.3047L16.457 25.082L17.1133 21.3086L14.3516 18.6289L18.1523 18.082L19.875 14.6367L21.5703 18.082L25.3711 18.6289L22.6094 21.3086Z" fill="#3F464E"/>
</svg>
