<svg width="20" height="20" viewBox="0 0 20 20" fill="none" xmlns="http://www.w3.org/2000/svg">
<path d="M10 0C4.47266 0 0 4.47266 0 10C0 15.5273 4.47266 20 10 20C15.5273 20 20 15.5273 20 10C20 4.47266 15.5273 0 10 0ZM10 18.4375C5.33594 18.4375 1.5625 14.6641 1.5625 10C1.5625 5.33594 5.33594 1.5625 10 1.5625C14.6641 1.5625 18.4375 5.33594 18.4375 10C18.4375 14.6641 14.6641 18.4375 10 18.4375ZM17.0312 7.91797V10.8867C17.0312 11.3164 16.6797 11.668 16.25 11.668C15.8203 11.668 15.4688 11.3164 15.4688 10.8867V9.80469L12.6367 12.6367C12.332 12.9414 11.8359 12.9414 11.5312 12.6367L7.91797 9.02344L4.30469 12.6367C4 12.9414 3.50391 12.9414 3.19922 12.6367C2.89453 12.332 2.89453 11.8359 3.19922 11.5312L7.36719 7.36328C7.67188 7.05859 8.16797 7.05859 8.47266 7.36328L12.0859 10.9766L14.3672 8.69531H13.2812C12.8516 8.69531 12.5 8.34375 12.5 7.91406C12.5 7.48438 12.8516 7.13281 13.2812 7.13281H16.25C16.6875 7.13672 17.0312 7.49609 17.0312 7.91797Z" fill="#3F464E"/>
</svg>
