<svg width="70" height="70" viewBox="0 0 70 70" fill="none" xmlns="http://www.w3.org/2000/svg">
<rect width="70" height="70" rx="35" fill="#F4F1F0"/>
<path d="M44.5577 29.7157C45.4971 29.0289 46.3425 28.2048 47 27.2434C46.1546 27.6096 45.1683 27.8843 44.182 27.9759C45.2153 27.3807 45.9667 26.4651 46.3425 25.3205C45.4031 25.8699 44.3229 26.2819 43.2427 26.5108C42.3033 25.5494 41.0352 25 39.6262 25C36.9022 25 34.6947 27.1518 34.6947 29.8072C34.6947 30.1735 34.7417 30.5398 34.8356 30.906C30.7495 30.6771 27.0861 28.7542 24.6438 25.8699C24.2211 26.5566 23.9863 27.3807 23.9863 28.2964C23.9863 29.9446 24.8317 31.4096 26.1937 32.2795C25.3953 32.2337 24.5969 32.0506 23.9393 31.6843V31.7301C23.9393 34.0651 25.6301 35.988 27.8845 36.4458C27.5088 36.5373 27.0391 36.6289 26.6164 36.6289C26.2877 36.6289 26.0059 36.5831 25.6771 36.5373C26.2877 38.4602 28.1194 39.8337 30.2798 39.8795C28.589 41.1614 26.4755 41.9398 24.1742 41.9398C23.7515 41.9398 23.3757 41.894 23 41.8482C25.1605 43.2217 27.7436 44 30.5616 44C39.6262 44 44.5577 36.7205 44.5577 30.3566C44.5577 30.1277 44.5577 29.9446 44.5577 29.7157Z" fill="#00A2F5"/>
</svg>
