<svg width="22" height="22" viewBox="0 0 22 22" fill="none" xmlns="http://www.w3.org/2000/svg">
<path d="M13.3447 16.5351C13.3525 16.5312 13.3603 16.5272 13.3681 16.5272C13.4384 16.4957 13.5478 16.4523 13.6103 16.4286C13.6338 16.4207 13.6494 16.4128 13.6611 16.4089C14.0987 16.2275 14.38 15.8922 14.4698 15.4505C14.5597 15.0167 14.462 14.4961 14.2432 13.94C15.634 13.8651 16.5873 14.0702 17.7827 14.4606C17.9937 14.5316 18.1851 14.5592 18.3531 14.5592C18.7907 14.5592 19.0798 14.3699 19.2321 14.2279C19.572 13.9124 19.7166 13.4194 19.6111 12.9383C19.49 12.4058 19.0915 12.0035 18.5172 11.83C17.5015 11.5224 15.4192 10.8914 13.1376 12.0233C12.9149 11.7156 12.6727 11.412 12.4266 11.1201L16.4662 7.7323C16.474 7.72835 16.4779 7.72046 16.4857 7.71258C16.6185 7.57848 16.6889 7.40495 16.6889 7.21564C16.6889 7.02634 16.6185 6.8528 16.4857 6.71871L15.2199 5.45272C14.9504 5.18059 14.5089 5.18059 14.2354 5.45272C14.2276 5.4606 14.2237 5.46455 14.2159 5.47244L12.9853 6.96718C12.8837 7.09338 12.8993 7.27875 13.0243 7.38523C13.1493 7.49172 13.333 7.472 13.4384 7.34579L14.6613 5.86288C14.7042 5.82739 14.7706 5.82739 14.8097 5.87077L16.0677 7.13677C16.095 7.16437 16.0989 7.19592 16.0989 7.21564C16.0989 7.23142 16.095 7.25903 16.0755 7.28663L12.0359 10.6745C11.9226 10.5482 11.8093 10.4299 11.696 10.3116C11.6921 10.3077 11.6921 10.3077 11.6882 10.3037C11.5632 10.1815 11.4382 10.0631 11.3093 9.94483L12.5555 8.43431C12.6571 8.30811 12.6415 8.12274 12.5165 8.01626C12.3914 7.91372 12.2078 7.92949 12.1023 8.0557L10.8678 9.55438C10.5982 9.32169 10.317 9.09689 10.0357 8.88392C11.3093 6.62011 10.7858 4.47068 10.5279 3.41766C10.3834 2.83002 10.0044 2.40802 9.48483 2.25815C9.01602 2.12406 8.51986 2.24632 8.18779 2.57366C7.98464 2.7748 7.6721 3.23624 7.88306 4.02108C8.21904 5.29102 8.37531 6.29671 8.19951 7.77962C7.60178 7.52327 7.04702 7.40495 6.58603 7.50355C6.14456 7.59426 5.8164 7.87822 5.63669 8.31994C5.63278 8.32783 5.62497 8.34755 5.61715 8.37121C5.59371 8.43037 5.55074 8.5408 5.51949 8.61573C5.51558 8.62362 5.51167 8.63151 5.51167 8.63939L5.14053 9.69242V9.69636L4.51545 11.4711C4.51545 11.4751 4.51545 11.4751 4.51155 11.479L3.60909 14.0347C3.60909 14.0386 3.60518 14.0386 3.60518 14.0426L3.33171 14.8195L2.10109 18.3138C1.8745 18.9567 1.94091 19.497 2.28471 19.8046C2.46832 20.0176 2.7418 20.1241 3.06996 20.1241C3.28093 20.1241 3.51142 20.0807 3.76145 19.99L7.21892 18.7476L7.99636 18.4676C8.00027 18.4676 8.00027 18.4676 8.00417 18.4637L10.5357 17.5566C10.5396 17.5566 10.5396 17.5566 10.5436 17.5526L12.3016 16.9216H12.3055L13.3447 16.5351ZM18.3414 12.394C18.8454 12.5478 18.9899 12.883 19.0329 13.0684C19.0954 13.3366 19.0134 13.6206 18.8297 13.7901C18.6266 13.9755 18.318 14.0149 17.9585 13.8966C16.6576 13.4707 15.5754 13.2459 13.9737 13.3603C13.8291 13.0802 13.6572 12.7963 13.4697 12.5084C15.5207 11.5382 17.4116 12.11 18.3414 12.394ZM8.44954 3.86332C8.35187 3.49654 8.40657 3.18497 8.598 2.99172C8.7738 2.81424 9.05899 2.7472 9.32074 2.82213C9.50436 2.8734 9.82862 3.03904 9.95363 3.55175C10.188 4.51801 10.6686 6.48602 9.54733 8.53291C9.28168 8.35149 9.01602 8.18979 8.75427 8.04781C8.98086 6.36376 8.82068 5.26341 8.44954 3.86332ZM6.05862 8.84053C6.09768 8.75377 6.14066 8.6394 6.1641 8.57629C6.168 8.56052 6.17582 8.54869 6.17582 8.54474C6.28521 8.2805 6.4532 8.13457 6.70323 8.07936C7.08609 8.00048 7.63694 8.14246 8.27764 8.46586C8.29327 8.47375 8.3089 8.48164 8.32452 8.48953C8.67613 8.67095 9.05508 8.90364 9.44967 9.1876C9.46139 9.19549 9.47311 9.20337 9.48483 9.21126C9.48483 9.21126 9.48873 9.21126 9.48873 9.21521C10.063 9.62537 10.6647 10.1381 11.2702 10.7257C11.446 10.9071 11.6101 11.0886 11.7703 11.27C11.7703 11.27 11.7703 11.2739 11.7742 11.2739C11.7781 11.2779 11.7781 11.2779 11.782 11.2818C12.1609 11.7156 12.5008 12.1416 12.7899 12.5518C12.7977 12.5675 12.8095 12.5833 12.8212 12.5951C13.1103 13.0132 13.3486 13.4115 13.5283 13.7783C13.5361 13.798 13.5439 13.8138 13.5556 13.8296C13.8487 14.4409 13.9737 14.9615 13.8955 15.3322C13.8447 15.5886 13.6963 15.7582 13.4345 15.8646C13.4267 15.8686 13.415 15.8725 13.4033 15.8765C13.3408 15.9001 13.2275 15.9435 13.1415 15.983L12.4071 16.2472C12.0203 14.993 10.9381 13.6245 10.2896 12.887C10.1841 12.7647 9.99661 12.7529 9.8755 12.8594C9.75439 12.9659 9.74267 13.1552 9.84815 13.2774C10.8756 14.4527 11.5906 15.5886 11.8523 16.4444L10.5943 16.8979C10.1138 15.9396 9.2973 14.8392 8.26983 13.7625C8.26592 13.7586 8.26592 13.7586 8.26202 13.7546C7.19548 12.7174 6.1055 11.8931 5.15616 11.408L5.60543 10.1381C6.49226 10.4142 7.69945 11.2029 8.90272 12.2993C9.02383 12.4098 9.20745 12.3979 9.31684 12.2796C9.42622 12.1574 9.4145 11.972 9.2973 11.8616C8.03152 10.706 6.78136 9.89356 5.80468 9.58199L6.05862 8.84053ZM8.01199 17.8208C7.55099 17.1385 6.96498 16.4207 6.30865 15.7345C6.30474 15.7305 6.30474 15.7305 6.30083 15.7266C5.62106 15.064 4.91004 14.4724 4.23417 14.011L4.95301 11.972C5.82812 12.4334 6.8634 13.2222 7.8479 14.1766C8.79333 15.1666 9.57468 16.2156 10.0318 17.0951L8.01199 17.8208ZM7.0353 18.1758L5.99611 18.5465C5.6445 18.0969 5.25774 17.6512 4.84362 17.2174C4.83971 17.2135 4.83971 17.2135 4.83581 17.2095C4.40607 16.7915 3.9646 16.401 3.51924 16.0461L3.88647 15.0088L4.03493 14.5868C4.64438 15.0167 5.28118 15.5531 5.89453 16.1486C6.48836 16.7678 7.01577 17.4106 7.4416 18.0259L7.0353 18.1758ZM3.56612 19.4181C3.16763 19.5601 2.85118 19.5522 2.71836 19.3905C2.70663 19.3747 2.69491 19.3629 2.67929 19.351C2.51911 19.2209 2.5113 18.9014 2.65194 18.4992L3.30827 16.6376C3.68723 16.9453 4.05837 17.2766 4.42169 17.6315C4.7733 17.9983 5.10147 18.3769 5.40619 18.7555L3.56612 19.4181Z" fill="#3F464E" stroke="#3F464E" stroke-width="0.25"/>
<path d="M16.1468 3.41779L16.8851 3.94627C16.8891 3.95416 16.893 3.96993 16.9008 4.00937L17.057 4.87309C17.0727 4.9638 17.1039 5.16888 17.2954 5.24776C17.3383 5.26748 17.3813 5.27142 17.4243 5.27142C17.5649 5.27142 17.6821 5.18466 17.7407 5.13733L18.4244 4.6049C18.44 4.59702 18.4791 4.58518 18.4947 4.58518L19.3542 4.69956C19.4441 4.71139 19.6589 4.739 19.7879 4.56941C19.9168 4.40376 19.8465 4.21051 19.8113 4.12375L19.5183 3.29553C19.5066 3.26003 19.5027 3.24031 19.5027 3.23637L19.8816 2.4042C19.9246 2.32138 20.0144 2.13207 19.9051 1.9546C19.7918 1.77712 19.5847 1.78106 19.4948 1.78106L18.5885 1.80078L17.9361 1.16581C17.8775 1.10666 17.7212 0.956788 17.5102 1.012C17.2993 1.06722 17.2407 1.28019 17.2172 1.35907L16.9711 2.23856L16.1741 2.68028C16.096 2.72366 15.9124 2.8262 15.9046 3.03917C15.8967 3.2482 16.0686 3.36652 16.1468 3.41779ZM17.2758 2.74338C17.4516 2.64478 17.4946 2.53435 17.5259 2.41603L17.7095 1.76529L18.1705 2.21489L18.1861 2.23067C18.2681 2.31349 18.3619 2.38843 18.5572 2.38843C18.5611 2.38843 18.5611 2.38843 18.565 2.38843L19.2448 2.37659L18.9713 2.99579C18.8815 3.18904 18.9245 3.36652 18.9713 3.49666L19.1784 4.08036L18.5768 4.00148C18.4127 3.97782 18.2017 4.03304 18.0689 4.13558L17.5884 4.51025L17.4751 3.89894C17.4516 3.77274 17.4008 3.59132 17.225 3.46511L16.6781 3.07467L17.2758 2.74338Z" fill="#3F464E" stroke="#3F464E" stroke-width="0.25"/>
<path d="M12.0005 3.86346L12.6217 4.2263C12.7037 4.27362 12.7975 4.29729 12.8873 4.29729C13.0592 4.29729 13.235 4.21447 13.364 4.05671L14.5086 2.66451C14.6024 2.55014 14.6415 2.40027 14.6141 2.24646C14.5829 2.07687 14.4774 1.927 14.3289 1.84418L13.1881 1.17766C13.0397 1.09089 12.8561 1.07511 12.6998 1.13427C12.5592 1.18554 12.4459 1.29597 12.399 1.43401L11.7778 3.12989C11.6684 3.42174 11.7622 3.72148 12.0005 3.86346ZM12.3248 3.33497L12.9225 1.70614L14.0125 2.34111L12.9147 3.67809C12.9069 3.68598 12.899 3.69387 12.8951 3.69781L12.3209 3.36258C12.3169 3.35469 12.3209 3.34681 12.3248 3.33497Z" fill="#3F464E" stroke="#3F464E" stroke-width="0.25"/>
<path d="M20.8658 6.45469C20.7407 6.30482 20.5454 6.21411 20.3501 6.21411H18.6194C18.424 6.21411 18.2287 6.30482 18.1037 6.45469C17.9904 6.58878 17.9474 6.75443 17.9748 6.92007L18.3694 9.25881C18.4319 9.62165 18.6897 9.86223 19.014 9.86223H19.9516C20.2758 9.86223 20.5337 9.61771 20.5962 9.25487L20.9908 6.91613C21.022 6.75443 20.9751 6.58878 20.8658 6.45469ZM20.0219 9.15627C20.0141 9.21148 19.9828 9.27064 19.9555 9.27064H19.0179C18.9827 9.27064 18.9593 9.20359 18.9515 9.15627L18.5569 6.8333C18.5686 6.82147 18.5959 6.8057 18.6233 6.8057H20.354C20.3813 6.8057 20.4087 6.82147 20.4204 6.8333L20.0219 9.15627Z" fill="#3F464E" stroke="#3F464E" stroke-width="0.25"/>
<path d="M2.65215 10.2564C2.70685 10.2564 2.75763 10.2485 2.81233 10.2367L3.71869 9.99219C4.03514 9.90937 4.22266 9.60568 4.1875 9.2389L3.96872 6.87256C3.95309 6.70691 3.86715 6.55704 3.7226 6.45845C3.56242 6.34802 3.35146 6.30858 3.16393 6.35985L1.49576 6.8134C1.30433 6.86467 1.14415 7.00271 1.0582 7.18018C0.983974 7.33794 0.980067 7.51147 1.05039 7.66134L2.03098 9.81866C2.1599 10.0908 2.39431 10.2564 2.65215 10.2564ZM1.64421 7.38132L3.3163 6.92777C3.34364 6.91988 3.37099 6.92777 3.38662 6.9396L3.6054 9.28623C3.6093 9.34144 3.59758 9.40455 3.57023 9.41243L2.66387 9.65696C2.63262 9.66484 2.58964 9.60963 2.57011 9.56625L1.59342 7.4247C1.59733 7.41287 1.61687 7.38921 1.64421 7.38132Z" fill="#3F464E" stroke="#3F464E" stroke-width="0.25"/>
<path d="M15.7894 18.752L14.0236 17.4899C13.7423 17.2848 13.4024 17.3006 13.1797 17.5215L12.5703 18.1367C12.3476 18.3576 12.3358 18.7007 12.539 18.9846L13.7892 20.7673C13.8829 20.9014 14.0236 20.9803 14.1915 20.996C14.2072 20.996 14.2267 21 14.2423 21C14.4103 21 14.5783 20.929 14.6994 20.8107L15.8246 19.6748C15.9574 19.5407 16.0277 19.3475 16.0121 19.1621C16.0004 18.9886 15.9222 18.8427 15.7894 18.752ZM15.4144 19.2489L14.2892 20.3847C14.2814 20.3926 14.2658 20.4005 14.258 20.4005L13.0195 18.6376C12.9883 18.5942 12.9844 18.5587 12.9883 18.5508L13.5977 17.9356H13.6016C13.6134 17.9356 13.6446 17.9435 13.6837 17.9711L15.43 19.2173C15.4261 19.2292 15.4222 19.241 15.4144 19.2489Z" fill="#3F464E" stroke="#3F464E" stroke-width="0.25"/>
<path d="M2.89756 3.43748C2.89756 3.43748 2.89756 3.4572 2.87803 3.51636L2.56158 4.41557C2.52642 4.50628 2.45219 4.70742 2.58502 4.87701C2.71785 5.0466 2.93272 5.01899 3.0343 5.00716L3.9641 4.88095C3.98754 4.87701 4.04224 4.89278 4.05786 4.90462L4.80405 5.48831C4.86656 5.53564 4.98376 5.62635 5.12831 5.62635C5.17128 5.62635 5.21426 5.61846 5.25723 5.59874C5.45257 5.51987 5.48773 5.30689 5.50336 5.21224L5.67525 4.27753C5.68697 4.21443 5.69869 4.19866 5.69869 4.19471L6.50739 3.61496C6.59334 3.5558 6.76523 3.43748 6.75742 3.22451C6.74961 3.0076 6.55818 2.90505 6.47613 2.85773L5.60493 2.37263L5.33146 1.41031C5.30802 1.32749 5.24551 1.10663 5.03064 1.04747C4.81968 0.988314 4.65559 1.15001 4.59309 1.20917L3.89769 1.89147L3.87815 1.90725L2.88193 1.88753C2.78817 1.88358 2.5694 1.87964 2.4561 2.06106C2.3428 2.24248 2.43657 2.43179 2.48345 2.52644L2.89756 3.43748ZM3.88987 2.49883C4.10084 2.50278 4.1946 2.42784 4.28445 2.33319L4.8353 1.79682L5.04627 2.54221C5.08143 2.66842 5.1244 2.77885 5.30802 2.88139L5.9917 3.26001L5.36662 3.70567C5.18691 3.83187 5.13222 4.01724 5.10487 4.16316L4.97595 4.86518L4.42119 4.43135C4.30399 4.34064 4.12818 4.28542 3.96801 4.28542C3.94066 4.28542 3.91722 4.28542 3.88987 4.28937L3.19447 4.38402L3.43278 3.70961C3.47967 3.57157 3.52655 3.38621 3.43278 3.18507L3.11243 2.48306L3.88987 2.49883Z" fill="#3F464E" stroke="#3F464E" stroke-width="0.25"/>
<path d="M20.6024 16.3852L19.6335 16.1446L19.1217 15.2848C19.0788 15.2099 18.9616 15.0127 18.7389 15.0127C18.5162 15.0127 18.399 15.2099 18.356 15.2848L17.856 16.1249L17.8442 16.1446L16.8754 16.3852C16.7855 16.4088 16.5745 16.4601 16.512 16.6652C16.4495 16.8663 16.5863 17.028 16.6566 17.1069L17.2895 17.876C17.2895 17.876 17.2973 17.8957 17.2895 17.9588L17.2152 18.9093C17.2035 19.0039 17.184 19.2208 17.352 19.3471C17.5239 19.4772 17.7231 19.3983 17.8208 19.3549L18.6881 18.9921C18.7115 18.9842 18.7662 18.9842 18.7858 18.9921L19.657 19.3589C19.7117 19.3825 19.8054 19.418 19.907 19.418C19.9773 19.418 20.0515 19.3983 20.1219 19.3471C20.2898 19.2169 20.2703 19.0039 20.2625 18.9093L20.1844 17.9549C20.1805 17.8917 20.1844 17.876 20.1844 17.872L20.8173 17.103C20.8876 17.0241 21.0243 16.8663 20.9618 16.6612C20.9032 16.4601 20.6922 16.4088 20.6024 16.3852ZM19.739 17.4974C19.5984 17.6709 19.5905 17.8602 19.6023 18.0061L19.6609 18.72L19.0123 18.4478C18.8483 18.3808 18.6295 18.3808 18.4654 18.4478L17.8169 18.72L17.8716 18.0061C17.8833 17.8602 17.8794 17.6709 17.7348 17.4974L17.2426 16.8979L18.0005 16.7086C18.2037 16.6573 18.2779 16.5587 18.3404 16.4483L18.735 15.7857L19.1139 16.4246L19.1295 16.4483C19.196 16.5627 19.2663 16.6573 19.4694 16.7086L20.2273 16.8979L19.739 17.4974Z" fill="#3F464E" stroke="#3F464E" stroke-width="0.25"/>
</svg>
