<svg width="40" height="40" viewBox="0 0 40 40" fill="none" xmlns="http://www.w3.org/2000/svg">
<rect width="40" height="40" rx="15" fill="#F4F1F0"/>
<path d="M20 12.9688C16.2539 12.9688 13.1914 16.0312 13.2188 19.7773C13.2188 23.4961 16.2539 26.5312 20 26.5312C21.7227 26.5312 23.3359 25.875 24.5391 24.8086C24.6758 24.6719 24.6758 24.4531 24.5391 24.3164L23.4453 23.2227C23.3359 23.1133 23.1445 23.1133 23.0078 23.2227C22.1602 23.9609 21.1211 24.3438 20 24.3438C17.4297 24.3438 15.4062 22.293 15.4062 19.8047C15.3789 17.1797 17.5117 15.1562 20.0273 15.1836C21.1758 15.1836 22.2695 15.6211 23.1172 16.4141L21.9688 17.5625C21.5586 17.9727 21.8594 18.6562 22.4336 18.6562H26.125C26.4805 18.6562 26.7812 18.3828 26.7812 18V14.3359C26.7812 13.7617 26.0703 13.4609 25.6602 13.8711L24.6758 14.8555C23.4453 13.707 21.8047 12.9961 20 12.9688Z" fill="#3F464E"/>
</svg>
