<svg width="24" height="32" viewBox="0 0 24 32" fill="none" xmlns="http://www.w3.org/2000/svg">
<g clip-path="url(#clip0_1271_5041)">
<path d="M0.0110497 15.9756C0.0110497 11.7656 0.0355821 7.55562 0.000146395 3.34564C-0.0153 1.45466 1.19406 0.259486 2.45157 0.0454683C2.65874 0.0102874 2.87226 0.0063784 3.08306 0.0063784C6.4231 0.00344665 9.76315 0.0102874 13.1023 -0.000462338C14.2835 -0.00437133 15.273 0.433436 16.1062 1.33446C18.5894 4.01896 21.0808 6.69564 23.5767 9.36646C23.8648 9.67527 23.9992 10.0075 23.9992 10.4444C23.9929 16.5561 24.0029 22.6678 23.9902 28.7795C23.9856 30.7018 22.7363 31.9966 20.9436 31.9966C14.9595 31.9986 8.97539 32.0005 2.99129 31.9956C1.54751 31.9947 0.404477 31.0409 0.0855557 29.573C0.0110497 29.23 0.0137755 28.8635 0.0128669 28.5078C0.00923249 24.3311 0.0110497 20.1533 0.0110497 15.9756ZM13.5466 2.04101C13.3403 2.04101 13.1786 2.04101 13.0169 2.04101C9.73771 2.04003 6.45945 2.04003 3.18028 2.04003C2.22351 2.04003 1.88278 2.40846 1.88097 3.45704C1.87733 5.11446 1.88097 6.77285 1.88097 8.43026C1.88097 15.1264 1.88006 21.8235 1.88097 28.5196C1.88097 29.5955 2.22351 29.962 3.2039 29.962C9.06625 29.962 14.9295 29.962 20.7918 29.962C21.784 29.962 22.1275 29.5994 22.1275 28.5313C22.1293 22.9561 22.1275 17.3809 22.1257 11.8067C22.1257 11.6366 22.1102 11.4656 22.1002 11.2672C21.864 11.2672 21.6841 11.2672 21.5042 11.2672C19.2527 11.2672 17.0011 11.2711 14.7496 11.2653C13.8592 11.2633 13.5466 10.9213 13.5466 9.97822C13.5457 7.52435 13.5466 5.0695 13.5466 2.61563C13.5466 2.44168 13.5466 2.26773 13.5466 2.04101ZM20.5611 9.2189C18.862 7.38656 17.1365 5.52588 15.4583 3.71601C15.4583 5.47213 15.4583 7.33085 15.4583 9.2189C17.211 9.2189 18.9356 9.2189 20.5611 9.2189Z" fill="#04D76A"/>
<path d="M11.0698 18.2627C10.4764 18.9028 9.98397 19.4402 9.48424 19.9699C9.21892 20.2514 8.90273 20.3716 8.53292 20.2406C8.1713 20.1116 7.90326 19.8399 7.90235 19.4383C7.90144 19.1432 7.98867 18.7669 8.16948 18.5637C9.19076 17.4115 10.2457 16.2935 11.3024 15.1794C11.7685 14.6879 12.2709 14.7016 12.7398 15.2C13.7383 16.2632 14.7296 17.3333 15.7146 18.4112C16.1698 18.9106 16.1807 19.4901 15.7736 19.9211C15.3811 20.3374 14.8241 20.3002 14.3662 19.8243C13.9119 19.3523 13.4594 18.8783 12.936 18.332C12.936 18.5705 12.936 18.7386 12.936 18.9057C12.937 21.083 12.937 23.2603 12.9379 25.4376C12.9379 25.5676 12.9397 25.6976 12.9342 25.8275C12.9061 26.5028 12.559 26.9142 12.0138 26.9221C11.4559 26.9299 11.0952 26.5028 11.0698 25.8021C11.0661 25.6888 11.0679 25.5744 11.0679 25.4611C11.0679 23.2672 11.0689 21.0742 11.0689 18.8803C11.0698 18.7259 11.0698 18.5695 11.0698 18.2627Z" fill="#04D76A"/>
</g>
<defs>
<clipPath id="clip0_1271_5041">
<rect width="24" height="32" fill="white"/>
</clipPath>
</defs>
</svg>
