<?xml version="1.0" encoding="utf-8"?>
<!-- Generator: Adobe Illustrator 25.0.1, SVG Export Plug-In . SVG Version: 6.00 Build 0)  -->
<svg version="1.1" id="Layer_1" xmlns="http://www.w3.org/2000/svg" xmlns:xlink="http://www.w3.org/1999/xlink" x="0px" y="0px"
	 viewBox="0 0 130.4 130.4" style="enable-background:new 0 0 130.4 130.4;" xml:space="preserve">
<style type="text/css">
	.st0{fill:#E0E0E0;}
	.st1{fill:#FFFFFF;}
</style>
<g>
	
		<ellipse transform="matrix(0.7071 -0.7071 0.7071 0.7071 -27.0054 65.1969)" class="st0" cx="65.2" cy="65.2" rx="65.2" ry="65.2"/>
	<path class="st1" d="M81.1,91c-0.2-1.8-0.5-3.6-0.8-5.3c-0.7,0.8-1.6,1.3-2.5,1.6V83c5.3-3.9,9.4-10.2,11.4-17.8
		c2.1,0,4.6-2.7,5.9-6.4c1.5-4.3,0.9-8.3-1.3-9.1c-1-0.4-2.2,0.1-3.3,1c-0.1-0.6-0.1-1.1-0.2-1.7c1.6-2.3,3.2-4.6,4.7-6.8
		c-0.9,0-1.8,0-2.6,0C95.4,41.4,98,39,99,36c-1.4,0-2.7-0.1-4.1-0.1c2.4-0.9,4.5-2.6,6-4.7c-1.7-0.1-3.5-0.2-5.2-0.4
		c2.3-0.9,4.3-2.6,5.6-4.8c-2,0.8-4.3,0.8-6.3,0.2c2.2-0.9,4.1-2.5,5.2-4.7c-5.4,3.1-12.3,3.4-17.9,0.7c-3-1.4-5.6-3.6-8.7-4.9
		c-5-2-11-1.3-15.3,1.9c-1.9,1.4-3.7,3.4-6,3.7c-1.2,0.2-2.4-0.1-3.6-0.1c-6.8-0.2-12,7-12.2,13.8c-0.1,4.7,1.5,9.3,3.6,13.6
		c0,0.2,0,0.3,0,0.5c-1.1-1-2.3-1.4-3.3-1c-2.2,0.8-2.8,4.8-1.3,9.1c1.3,3.8,3.8,6.4,5.9,6.4c2,7.6,6.1,13.9,11.4,17.8v4.3
		c-1-0.3-1.9-0.8-2.5-1.6c-0.3,1.8-0.6,3.5-0.8,5.3c-14.5,2.3-26.8,7.8-34.9,15c12,14.8,30.3,24.3,50.8,24.3
		c20.5,0,38.8-9.5,50.8-24.3C107.9,98.8,95.6,93.3,81.1,91z"/>
</g>
</svg>
