<svg width="40" height="40" viewBox="0 0 40 40" fill="none" xmlns="http://www.w3.org/2000/svg">
<rect width="40" height="40" rx="15" fill="#F4F1F0"/>
<path d="M11.5116 27H28.3548C29.1825 27 29.8663 26.3162 29.8663 25.4884V14.5116C29.8303 13.6838 29.1825 13 28.3548 13H11.5116C10.6838 13 10 13.6838 10 14.5116V25.5244C10 26.3162 10.6838 27 11.5116 27ZM21.0848 25.9563H18.7815V24.5167H21.0848V25.9563ZM26.5913 14.0797H28.8946V15.5193H26.5913V14.0797ZM26.5193 24.5167H28.8226V25.9563H26.5193V24.5167ZM22.7044 14.0797H25.0077V15.5193H22.7044V14.0797ZM22.6324 24.5167H24.9357V25.9563H22.6324V24.5167ZM18.8175 14.0797H21.1568V15.5193H18.8535V14.0797H18.8175ZM18.1697 17.5347L21.6247 19.2622C22.4165 19.6581 22.4165 20.3059 21.6247 20.7378L18.1697 22.4653C17.3779 22.8612 16.6941 22.4653 16.6941 21.5656V18.4344C16.7301 17.5347 17.3779 17.1388 18.1697 17.5347ZM14.9666 14.0797H17.2699V15.5193H14.9666V14.0797ZM14.8946 24.5167H17.1979V25.9563H14.8946V24.5167ZM11.0797 14.0797H13.383V15.5193H11.0797V14.0797ZM11.0077 24.5167H13.3111V25.9563H11.0077V24.5167Z" fill="#3F464E"/>
</svg>
