<svg width="50" height="80" viewBox="0 0 50 80" fill="none" xmlns="http://www.w3.org/2000/svg">
<g filter="url(#filter0_d)">
<path d="M21.8466 5.06652C21.3081 4.45103 22.5391 8.14398 17.8459 14.6066C17.8459 14.6066 8.07502 25.9932 7.38259 27.1473C6.30548 28.9168 3.45884 33.1483 6.07467 41.4575C6.07467 41.4575 6.45936 38.7647 9.38294 34.3024C10.3062 32.8406 11.3833 31.5326 12.6143 30.2247L21.6158 20.6077C22.3083 19.9152 22.8468 19.0689 23.3084 18.2226C24.6933 15.6068 26.4628 10.3751 21.8466 5.06652ZM33.0794 28.6091C32.8486 28.1474 33.3102 31.148 30.6943 34.3024C24.0009 42.4576 18.6922 44.458 16.1533 46.6891C15.9225 46.9199 15.5379 46.843 15.307 46.6122C15.1532 46.4583 15.1532 46.2275 15.2301 45.9967C16.1533 43.6117 17.3843 41.3036 19 39.3032L29.6172 26.7626L29.7711 26.5318C30.6943 25.2239 34.9258 18.5304 29.1556 11.9139C28.617 11.2984 29.848 14.9913 25.1549 21.454C25.1549 21.454 15.4609 32.8406 14.6916 33.9946C13.1528 36.3027 2.61254 46.9199 12.6912 65C12.6912 65 12.6143 63.9998 12.5373 62.4611C12.4604 60.3069 13.2298 58.3065 14.5377 56.6139C16.1533 54.6905 18.0768 52.9979 20.0771 51.5361C22.7699 49.6127 27.5399 46.1506 30.4635 43.5347C33.7718 40.842 36.3876 35.4564 33.0794 28.6091Z" fill="white"/>
</g>
<defs>
<filter id="filter0_d" x="0" y="0" width="49.6073" height="80" filterUnits="userSpaceOnUse" color-interpolation-filters="sRGB">
<feFlood flood-opacity="0" result="BackgroundImageFix"/>
<feColorMatrix in="SourceAlpha" type="matrix" values="0 0 0 0 0 0 0 0 0 0 0 0 0 0 0 0 0 0 127 0" result="hardAlpha"/>
<feOffset dx="5" dy="5"/>
<feGaussianBlur stdDeviation="5"/>
<feComposite in2="hardAlpha" operator="out"/>
<feColorMatrix type="matrix" values="0 0 0 0 0 0 0 0 0 0 0 0 0 0 0 0 0 0 0.25 0"/>
<feBlend mode="normal" in2="BackgroundImageFix" result="effect1_dropShadow"/>
<feBlend mode="normal" in="SourceGraphic" in2="effect1_dropShadow" result="shape"/>
</filter>
</defs>
</svg>
