<svg width="70" height="70" viewBox="0 0 70 70" fill="none" xmlns="http://www.w3.org/2000/svg">
<rect width="70" height="70" rx="35" fill="#F4F1F0"/>
<path d="M43.3777 35.8694C43.3777 33.3919 44.508 31.584 46.7021 30.1778C45.4388 28.3699 43.5771 27.4325 41.117 27.2316C38.7234 27.0307 36.1303 28.5708 35.1995 28.5708C34.2021 28.5708 31.9415 27.2986 30.1463 27.2986C26.4229 27.3655 22.5 30.2448 22.5 36.2042C22.5 37.9451 22.766 39.753 23.4309 41.6279C24.2952 44.1054 27.3537 50.1317 30.5452 49.9978C32.2074 49.9978 33.4043 48.7925 35.5984 48.7925C37.7261 48.7925 38.7899 49.9978 40.6516 49.9978C43.9096 49.9978 46.7021 44.5071 47.5 42.0296C43.1782 39.9539 43.3777 36.0033 43.3777 35.8694ZM39.6543 24.888C41.4495 22.7453 41.25 20.7366 41.25 20C39.6543 20.1339 37.7926 21.1383 36.7287 22.3436C35.5319 23.6828 34.867 25.3568 35 27.1647C36.7287 27.2986 38.3245 26.4281 39.6543 24.888Z" fill="#3F464E"/>
</svg>
